<?xml version="1.0" encoding="iso-8859-1"?>
<!-- Generator: Adobe Illustrator 19.0.0, SVG Export Plug-In . SVG Version: 6.00 Build 0)  -->
<svg version="1.1" id="Capa_1" xmlns="http://www.w3.org/2000/svg" xmlns:xlink="http://www.w3.org/1999/xlink" x="0px" y="0px"
	 viewBox="0 0 384 384" style="enable-background:new 0 0 384 384;" xml:space="preserve">
<path style="fill:#FFE5AB;" d="M367.28,178.24l-4.08-2.64c-21.2-9.2-105.84-44.88-182.32-22.16C95.44,178.8,96,242.16,28.64,245.52
	h-4.96C18.64,229.2,16,211.92,16,194c0-23.12,4.48-45.2,12.64-65.44c0,0,62,22.08,70.88-1.44c8.88-23.6-33.12-56.4-33.12-56.4
	c10.24-10.48,21.84-19.6,34.4-27.28c0,0,31.84,12.96,49.04,29.92C173.12,96.32,208.24,112.8,264.4,98c36-9.44,52-17.04,58.8-21.28
	C347.84,104.16,363.92,139.44,367.28,178.24z"/>
<path style="fill:#FFDC7B;" d="M323.2,76.72c-6.8,4.24-22.8,11.84-58.8,21.28c-56.16,14.8-91.28-1.68-114.56-24.64
	c-17.2-16.96-49.04-29.92-49.04-29.92C127.36,27.28,158.56,18,192,18C244.16,18,291.04,40.64,323.2,76.72z"/>
<path style="fill:#EDC45F;" d="M368,194c0,10.88-1.04,21.52-2.88,31.76c0,0-111.28-39.28-169.2,2.88s-72.8,78.24-143.28,72.72
	c-12.8-16.48-22.72-35.36-28.96-55.84h4.96c67.36-3.36,66.8-66.72,152.24-92.08C257.36,130.72,342,166.4,363.2,175.6l4.08,2.64
	C367.76,183.44,368,188.72,368,194z"/>
<path style="fill:#FFE5AB;" d="M365.12,225.76c-3.04,17.04-8.64,33.2-16.24,48.08c-7.28,14.4-16.56,27.68-27.44,39.44
	c0,0-43.76-22.24-105.12-6c-61.36,16.32-83.04,52.64-83.04,52.64c-32.24-11.36-60.16-31.92-80.64-58.56
	c70.48,5.52,85.36-30.56,143.28-72.72C253.84,186.48,365.12,225.76,365.12,225.76z"/>
<path style="fill:#FFDC7B;" d="M321.44,313.28C289.28,348.16,243.2,370,192,370c-20.64,0-40.4-3.52-58.72-10.08
	c0,0,21.68-36.32,83.04-52.64C277.68,291.04,321.44,313.28,321.44,313.28z"/>
<path style="fill:#EDC45F;" d="M99.52,127.12c-8.88,23.52-70.88,1.44-70.88,1.44C37.28,106.8,50.16,87.2,66.4,70.72
	C66.4,70.72,108.4,103.52,99.52,127.12z"/>
<path style="fill:#141F38;" d="M383.216,174.856c0-0.016-0.008-0.032-0.008-0.048c0-0.008,0-0.024,0-0.032s-0.008-0.024-0.008-0.032
	c-3.6-41.376-20.216-79.624-48.032-110.648c-0.008-0.008-0.016-0.024-0.024-0.032s-0.016-0.024-0.032-0.032
	c-0.008,0-0.008-0.008-0.008-0.008c0-0.008-0.008-0.008-0.008-0.008C298.792,23.336,246.648,0,192,0
	c-35.24,0-69.656,9.6-99.52,27.776l0,0c-0.016,0.008-0.024,0.008-0.04,0.016c-13.872,8.488-26.456,18.472-37.432,29.68
	C55,57.48,55,57.48,54.992,57.488c-0.008,0.008-0.008,0.008-0.016,0.016c-0.008,0.008-0.024,0.024-0.032,0.032
	c-0.016,0.016-0.024,0.032-0.04,0.048c-17.864,18.152-31.68,39.32-41.08,62.928c-0.008,0.024-0.024,0.04-0.032,0.064
	c-0.008,0.016-0.008,0.024-0.016,0.04c-0.008,0.016-0.016,0.024-0.016,0.04c-0.008,0.024-0.008,0.04-0.016,0.064
	C4.632,143.384,0,167.36,0,192c0,19.264,2.816,38.16,8.376,56.168v0.008v0.008c0,0.016,0.008,0.032,0.008,0.04
	s0.008,0.016,0.016,0.024c6.576,21.536,16.896,41.512,30.584,59.48c0.288,0.464,0.608,0.904,0.944,1.336l0.008,0.008
	c0,0.008,0.008,0.016,0.008,0.016c0.008,0.008,0.016,0.016,0.016,0.016c0.016,0.024,0.024,0.032,0.032,0.048
	c0.008,0.016,0.024,0.024,0.032,0.04c22.656,29.432,53.032,51.488,87.856,63.776l0,0l0,0c0.024,0.008,0.048,0.016,0.072,0.024
	c0.04,0.016,0.072,0.016,0.112,0.032C148.432,380.304,169.936,384,192,384c53.48,0,104.944-22.552,141.2-61.872
	c0.008-0.008,0.008-0.016,0.016-0.024c11.856-12.824,21.84-27.16,29.68-42.56c0.008-0.016,0.016-0.016,0.024-0.032
	c0.008-0.016,0.016-0.032,0.024-0.048c0.056-0.12,0.128-0.224,0.192-0.344c8.512-16.68,14.472-34.328,17.712-52.44
	c0.008-0.024,0.016-0.048,0.024-0.072C382.944,215.04,384,203.4,384,192c0-5.696-0.264-11.448-0.784-17.104
	C383.216,174.888,383.216,174.872,383.216,174.856z M345.016,201.264c-0.304-0.072-0.576-0.144-0.888-0.224
	c-2.256-0.56-4.656-1.12-7.128-1.68c-0.6-0.136-1.192-0.264-1.808-0.4c-2.464-0.544-4.992-1.088-7.632-1.608
	c-0.168-0.032-0.32-0.064-0.488-0.104c-2.736-0.544-5.584-1.056-8.48-1.56c-0.704-0.12-1.408-0.24-2.12-0.36
	c-2.976-0.496-6.008-0.968-9.128-1.4c-0.2-0.024-0.4-0.048-0.592-0.072c-2.944-0.4-5.952-0.76-8.992-1.08
	c-0.744-0.08-1.48-0.16-2.232-0.232c-3.232-0.32-6.496-0.6-9.816-0.816c-0.432-0.024-0.864-0.04-1.296-0.072
	c-3-0.176-6.032-0.304-9.08-0.376c-0.72-0.016-1.432-0.04-2.152-0.048c-3.376-0.056-6.76-0.04-10.16,0.056
	c-0.576,0.016-1.16,0.048-1.736,0.072c-3.032,0.112-6.072,0.288-9.104,0.536c-0.64,0.048-1.272,0.088-1.912,0.152
	c-3.392,0.312-6.768,0.712-10.128,1.216c-0.672,0.104-1.344,0.224-2.016,0.328c-3.016,0.488-6.016,1.056-8.984,1.72
	c-0.512,0.112-1.024,0.208-1.528,0.328c-3.28,0.768-6.52,1.664-9.712,2.664c-0.712,0.224-1.416,0.464-2.128,0.704
	c-2.976,0.992-5.912,2.064-8.784,3.28c-0.296,0.128-0.6,0.232-0.896,0.36c-3.064,1.328-6.04,2.824-8.96,4.424
	c-0.688,0.376-1.368,0.768-2.048,1.16c-2.928,1.696-5.808,3.48-8.56,5.488c-15.496,11.28-27.992,22.112-39.008,31.664
	c-1.848,1.6-3.64,3.152-5.4,4.672c-1.008,0.864-1.976,1.688-2.96,2.528c-0.736,0.632-1.488,1.272-2.208,1.888
	c-1.208,1.016-2.384,1.992-3.56,2.96c-0.464,0.384-0.944,0.784-1.408,1.168c-1.232,1.008-2.448,1.96-3.656,2.912
	c-0.4,0.312-0.8,0.64-1.2,0.944c-1.216,0.944-2.424,1.84-3.632,2.72c-0.384,0.288-0.776,0.576-1.16,0.856
	c-1.184,0.856-2.368,1.664-3.552,2.456c-0.416,0.28-0.824,0.56-1.24,0.832c-1.168,0.76-2.336,1.488-3.512,2.192
	c-0.44,0.264-0.872,0.528-1.312,0.784c-1.16,0.672-2.328,1.312-3.504,1.928c-0.472,0.248-0.952,0.496-1.424,0.736
	c-1.152,0.584-2.32,1.128-3.504,1.656c-0.528,0.232-1.056,0.464-1.592,0.688c-1.152,0.488-2.328,0.944-3.512,1.384
	c-0.6,0.216-1.2,0.424-1.808,0.632c-1.16,0.392-2.336,0.768-3.528,1.112c-0.688,0.2-1.392,0.376-2.088,0.56
	c-1.16,0.296-2.336,0.584-3.536,0.84c-0.808,0.168-1.632,0.32-2.456,0.464c-1.16,0.208-2.32,0.416-3.52,0.584
	c-0.944,0.136-1.928,0.232-2.904,0.344c-1.144,0.128-2.296,0.256-3.48,0.352c-1.128,0.088-2.304,0.128-3.464,0.184
	c-1.128,0.056-2.232,0.12-3.4,0.136c-1.352,0.024-2.768,0-4.176-0.016c-1.072-0.016-2.112-0.008-3.224-0.04
	c-0.176-0.008-0.376-0.024-0.552-0.032c-5.88-8.32-10.92-17.128-15.064-26.352c0.36-0.072,0.664-0.192,1.016-0.272
	c3.312-0.712,6.512-1.536,9.528-2.52c0.136-0.048,0.264-0.104,0.408-0.144c2.96-0.984,5.768-2.112,8.48-3.328
	c0.424-0.192,0.856-0.368,1.272-0.56c2.64-1.232,5.16-2.576,7.6-4c0.488-0.288,0.976-0.576,1.456-0.872
	c2.392-1.456,4.72-2.976,6.944-4.576c0.32-0.224,0.616-0.464,0.936-0.696c2.144-1.576,4.224-3.216,6.24-4.896
	c0.224-0.192,0.456-0.368,0.68-0.56c2.096-1.776,4.12-3.608,6.112-5.464c0.4-0.376,0.808-0.752,1.208-1.128
	c1.92-1.824,3.808-3.664,5.672-5.528c0.416-0.416,0.824-0.824,1.232-1.24c1.832-1.848,3.648-3.704,5.456-5.552
	c18.224-18.688,37.08-38.008,75.232-49.336c2.88-0.856,5.824-1.632,8.808-2.32c0.496-0.112,1.008-0.192,1.504-0.304
	c2.504-0.552,5.024-1.08,7.592-1.52c0.752-0.128,1.52-0.216,2.28-0.328c2.352-0.368,4.72-0.736,7.128-1.016
	c0.84-0.096,1.704-0.144,2.544-0.232c2.352-0.24,4.712-0.472,7.12-0.624c0.96-0.064,1.944-0.072,2.904-0.12
	c2.328-0.112,4.656-0.224,7.024-0.256c1.048-0.016,2.12,0.024,3.184,0.024c2.312,0,4.632,0.008,6.984,0.08
	c1.144,0.04,2.304,0.128,3.456,0.184c2.304,0.112,4.6,0.224,6.936,0.4c1.224,0.096,2.472,0.24,3.704,0.352
	c2.288,0.216,4.576,0.424,6.896,0.704c1.296,0.16,2.616,0.36,3.92,0.536c2.28,0.312,4.56,0.616,6.864,0.992
	c1.392,0.224,2.8,0.496,4.2,0.744c2.24,0.4,4.48,0.792,6.744,1.248c1.488,0.304,3,0.648,4.496,0.976
	c2.208,0.48,4.408,0.952,6.632,1.488c1.552,0.376,3.128,0.792,4.688,1.192c2.184,0.56,4.376,1.12,6.576,1.736
	c1.632,0.456,3.28,0.952,4.92,1.432c2.152,0.632,4.304,1.264,6.464,1.944c1.712,0.544,3.44,1.12,5.16,1.696
	c2.112,0.704,4.224,1.4,6.352,2.152c1.776,0.624,3.56,1.296,5.344,1.952c2.088,0.768,4.176,1.544,6.28,2.36
	c1.824,0.704,3.648,1.456,5.472,2.192c1.432,0.584,2.864,1.168,4.296,1.776C351.96,188.152,352,190.08,352,192
	c0,3.632-0.136,7.288-0.384,10.976c-0.216-0.056-0.48-0.12-0.704-0.184C349.048,202.288,347.088,201.784,345.016,201.264z
	 M345.336,149.288c-6.816-2.48-13.592-4.72-20.328-6.768c-1.216-0.368-2.432-0.736-3.648-1.096
	c-6.664-1.952-13.272-3.704-19.832-5.232c-1.12-0.256-2.224-0.488-3.336-0.736c-6.704-1.488-13.368-2.808-19.936-3.84
	c-0.608-0.096-1.2-0.16-1.8-0.248c-6.424-0.976-12.76-1.72-19.024-2.256c-0.712-0.056-1.432-0.152-2.136-0.208
	c-6.28-0.488-12.456-0.704-18.552-0.744c-1.128-0.008-2.256-0.032-3.384-0.024c-5.912,0.04-11.712,0.304-17.416,0.768
	c-1.136,0.096-2.256,0.2-3.376,0.312c-5.736,0.56-11.376,1.304-16.872,2.312c-0.816,0.152-1.608,0.336-2.424,0.496
	c-5.784,1.128-11.464,2.448-16.952,4.072c-46.136,13.696-69.92,38.072-89.032,57.664c-2.152,2.2-4.216,4.32-6.256,6.368
	c-0.688,0.696-1.36,1.328-2.04,2c-1.384,1.368-2.76,2.72-4.128,4c-0.808,0.76-1.616,1.448-2.424,2.176
	c-1.232,1.112-2.472,2.208-3.712,3.24c-0.864,0.72-1.744,1.376-2.624,2.056c-1.208,0.936-2.424,1.84-3.664,2.696
	c-0.92,0.632-1.864,1.224-2.816,1.808c-1.256,0.776-2.536,1.52-3.84,2.208c-0.984,0.52-1.992,1.016-3.008,1.488
	c-1.368,0.624-2.776,1.192-4.216,1.728c-1.064,0.392-2.128,0.776-3.24,1.12c-1.536,0.472-3.16,0.848-4.792,1.208
	c-1.136,0.248-2.264,0.52-3.456,0.72c-0.416,0.064-0.88,0.088-1.296,0.144C33.264,215.44,32,203.808,32,192
	c0-15.592,2.216-30.864,6.616-45.568c0.112,0.032,0.224,0.056,0.336,0.088c1.76,0.472,3.6,0.936,5.496,1.392
	c0.688,0.168,1.384,0.32,2.088,0.48c1.448,0.328,2.912,0.64,4.416,0.936c0.744,0.144,1.472,0.296,2.224,0.44
	c2.128,0.392,4.28,0.76,6.464,1.064c0.512,0.072,1.024,0.12,1.536,0.184c1.752,0.224,3.504,0.416,5.264,0.576
	c0.808,0.072,1.608,0.12,2.416,0.176c1.608,0.104,3.216,0.168,4.816,0.192c0.52,0.008,1.056,0.064,1.576,0.064
	c0.208,0,0.416-0.024,0.624-0.024c1.272-0.008,2.528-0.08,3.776-0.144c0.728-0.04,1.472-0.048,2.192-0.104
	c1.896-0.16,3.768-0.4,5.592-0.712c0.688-0.12,1.336-0.304,2.008-0.448c1.176-0.248,2.352-0.504,3.48-0.832
	c0.744-0.216,1.456-0.488,2.176-0.744c1.008-0.352,2.008-0.72,2.968-1.144c0.72-0.32,1.4-0.672,2.088-1.032
	c0.904-0.472,1.784-0.984,2.64-1.536c0.648-0.416,1.28-0.856,1.888-1.312c0.824-0.624,1.592-1.312,2.352-2.024
	c0.544-0.512,1.088-1.008,1.592-1.56c0.776-0.848,1.464-1.8,2.144-2.768c0.384-0.544,0.8-1.04,1.152-1.616
	c0.96-1.576,1.808-3.272,2.528-5.136c0.016-0.032,0.032-0.056,0.048-0.096c0-0.008,0.008-0.016,0.008-0.024
	c0.696-1.84,1.16-3.696,1.528-5.544c0.104-0.512,0.176-1.016,0.256-1.528c0.232-1.512,0.368-3.024,0.408-4.528
	c0.008-0.36,0.048-0.728,0.048-1.088c-0.008-1.824-0.152-3.648-0.408-5.456c-0.064-0.432-0.152-0.856-0.224-1.288
	c-0.256-1.456-0.576-2.912-0.968-4.352c-0.128-0.464-0.24-0.92-0.384-1.384c-0.544-1.776-1.152-3.544-1.88-5.28
	c-0.08-0.192-0.176-0.384-0.264-0.576c-0.672-1.576-1.416-3.12-2.216-4.648c-0.24-0.456-0.48-0.904-0.72-1.36
	c-0.816-1.496-1.672-2.96-2.576-4.408c-0.12-0.184-0.224-0.376-0.344-0.56c-1.04-1.624-2.128-3.2-3.256-4.752
	c-0.28-0.384-0.56-0.76-0.848-1.144c-0.92-1.232-1.848-2.432-2.8-3.6c-0.264-0.328-0.528-0.664-0.8-0.992
	c-1.176-1.416-2.352-2.792-3.536-4.112c-0.224-0.248-0.44-0.472-0.664-0.72c-0.992-1.088-1.976-2.136-2.96-3.152
	c-0.328-0.336-0.648-0.672-0.976-1c-0.232-0.24-0.48-0.496-0.712-0.728c3.824-3.144,7.816-6.136,11.976-8.96
	c0.368,0.176,0.664,0.304,1.04,0.48c0.056,0.032,0.12,0.064,0.184,0.088c1.688,0.808,3.496,1.712,5.376,2.68
	c0.096,0.048,0.192,0.096,0.288,0.152c3.944,2.04,8.216,4.392,12.416,6.968c0.016,0.008,0.032,0.016,0.04,0.024
	c1.888,1.16,3.744,2.368,5.56,3.608c0.448,0.304,0.896,0.616,1.336,0.928c1.424,1,2.8,2.016,4.128,3.048
	c0.464,0.36,0.944,0.72,1.392,1.088c1.664,1.352,3.256,2.72,4.656,4.104c2.624,2.584,5.328,4.976,8.08,7.28
	c0.776,0.648,1.56,1.272,2.344,1.896c2.248,1.792,4.536,3.488,6.864,5.096c0.616,0.424,1.224,0.88,1.848,1.296
	c2.88,1.904,5.832,3.664,8.832,5.288c0.72,0.392,1.464,0.736,2.192,1.112c2.424,1.248,4.888,2.4,7.392,3.464
	c0.872,0.368,1.736,0.752,2.616,1.096c3.176,1.256,6.392,2.416,9.688,3.384c0.296,0.088,0.608,0.152,0.912,0.24
	c3.04,0.872,6.128,1.592,9.264,2.224c0.984,0.2,1.976,0.376,2.968,0.552c2.864,0.504,5.768,0.904,8.712,1.208
	c0.672,0.072,1.336,0.176,2.008,0.232c3.544,0.304,7.152,0.456,10.816,0.48c0.328,0,0.632,0.04,0.96,0.04
	c0.832,0,1.696-0.08,2.536-0.088c2.08-0.032,4.176-0.104,6.288-0.224c1.312-0.08,2.632-0.176,3.96-0.296
	c2.104-0.176,4.232-0.408,6.368-0.672c1.312-0.16,2.632-0.32,3.96-0.52c2.32-0.344,4.672-0.76,7.032-1.2
	c1.16-0.216,2.312-0.408,3.48-0.648c3.536-0.728,7.104-1.552,10.728-2.504c4.712-1.24,9.16-2.48,13.48-3.728
	c1.104-0.32,2.176-0.64,3.256-0.96c3.616-1.072,7.088-2.144,10.392-3.224c0.6-0.192,1.232-0.392,1.824-0.584
	c3.76-1.248,7.28-2.488,10.6-3.728c0.784-0.296,1.52-0.584,2.28-0.88c2.616-1.008,5.072-2.008,7.384-3.008
	c0.448-0.192,1-0.392,1.432-0.584c12.704,16.472,21.912,35.016,27.288,54.856C346.04,149.512,345.688,149.416,345.336,149.288z
	 M67.64,91.28c1.056,1.08,2.064,2.168,3.056,3.256c0.304,0.336,0.624,0.664,0.92,0.992c0.992,1.112,1.936,2.224,2.84,3.328
	c0.312,0.376,0.608,0.752,0.912,1.128c0.88,1.104,1.744,2.208,2.52,3.28c0.144,0.192,0.256,0.376,0.392,0.576
	c1.344,1.888,2.472,3.68,3.432,5.392c0.328,0.584,0.68,1.184,0.96,1.744c0.32,0.64,0.568,1.224,0.816,1.824
	c0.296,0.704,0.544,1.376,0.728,2.016c0.136,0.44,0.272,0.88,0.352,1.28c0.2,1.008,0.304,1.952,0.16,2.712l0,0
	c-0.696,0.36-1.688,0.616-2.8,0.808c-0.352,0.064-0.744,0.104-1.136,0.152c-0.888,0.112-1.88,0.176-2.952,0.2
	c-0.464,0.016-0.888,0.04-1.376,0.04c-1.52-0.008-3.152-0.072-4.928-0.208c-0.504-0.04-1.056-0.112-1.576-0.16
	c-1.408-0.136-2.872-0.296-4.392-0.504c-0.712-0.096-1.424-0.2-2.152-0.312c-1.624-0.248-3.296-0.536-5.008-0.856
	c-0.528-0.096-1.04-0.184-1.576-0.288c-1.928-0.384-3.904-0.832-5.888-1.296C55.688,107.512,61.264,99.12,67.64,91.28z M192,32
	c38.064,0,74.68,13.584,103.336,37.84c-0.224,0.08-0.464,0.168-0.696,0.248c-1.744,0.632-3.608,1.28-5.616,1.96
	c-0.224,0.08-0.424,0.152-0.656,0.224c-2.152,0.72-4.504,1.472-6.976,2.24c-0.536,0.168-1.064,0.328-1.608,0.496
	c-2.504,0.768-5.16,1.552-8,2.368c-0.568,0.16-1.168,0.328-1.752,0.488c-3.064,0.864-6.256,1.744-9.712,2.648
	c-41.648,10.984-74.104,4.248-99.24-20.56c-1.56-1.544-3.248-3.032-4.968-4.496c-0.448-0.384-0.904-0.76-1.368-1.144
	c-1.536-1.264-3.112-2.504-4.736-3.704c-0.232-0.168-0.448-0.344-0.68-0.52c-1.856-1.36-3.76-2.672-5.664-3.944
	c-0.456-0.304-0.912-0.6-1.376-0.896c-1.608-1.048-3.216-2.064-4.824-3.04c-0.232-0.144-0.472-0.304-0.704-0.448
	C154.32,35.336,173.008,32,192,32z M89.616,314.088c3.704-0.608,7.256-1.368,10.672-2.256c0.648-0.168,1.28-0.36,1.912-0.536
	c6.976-1.96,13.392-4.488,19.432-7.496c0.536-0.272,1.088-0.528,1.616-0.808c2.88-1.488,5.68-3.08,8.424-4.776
	c0.52-0.32,1.032-0.656,1.552-0.984c5.648-3.592,11.08-7.576,16.464-11.872c0.472-0.376,0.952-0.752,1.424-1.136
	c2.608-2.104,5.216-4.28,7.84-6.504c0.552-0.472,1.12-0.952,1.672-1.432c2.584-2.208,5.176-4.448,7.832-6.744
	c10.536-9.136,22.48-19.488,36.872-29.968c2.192-1.6,4.52-3.008,6.896-4.336c0.56-0.312,1.12-0.624,1.688-0.928
	c2.352-1.232,4.76-2.376,7.256-3.384c0.424-0.168,0.856-0.312,1.288-0.472c2.224-0.856,4.496-1.616,6.808-2.304
	c0.64-0.192,1.28-0.392,1.928-0.576c2.592-0.72,5.232-1.336,7.912-1.872c0.696-0.136,1.408-0.256,2.104-0.376
	c2.28-0.408,4.584-0.76,6.904-1.056c0.664-0.08,1.312-0.184,1.976-0.256c2.712-0.304,5.448-0.52,8.192-0.68
	c0.888-0.056,1.784-0.088,2.68-0.128c2.376-0.104,4.752-0.16,7.136-0.168c0.68,0,1.368-0.016,2.048-0.008
	c2.6,0.016,5.2,0.096,7.784,0.208c0.984,0.04,1.968,0.088,2.952,0.144c2.64,0.152,5.264,0.328,7.872,0.56
	c0.8,0.072,1.584,0.16,2.376,0.24c2.048,0.2,4.08,0.424,6.088,0.672c1,0.12,2,0.24,2.984,0.368c2.448,0.328,4.864,0.672,7.232,1.04
	c0.944,0.152,1.872,0.312,2.8,0.464c1.752,0.288,3.48,0.592,5.176,0.904c0.888,0.168,1.8,0.328,2.672,0.488
	c2.208,0.424,4.36,0.856,6.456,1.304c0.88,0.184,1.728,0.376,2.584,0.56c1.632,0.36,3.224,0.72,4.76,1.08
	c0.624,0.144,1.264,0.288,1.872,0.432c1.944,0.464,3.776,0.928,5.544,1.376c0.608,0.16,1.208,0.312,1.8,0.464
	c1.792,0.472,3.544,0.936,5.112,1.376c0.008,0,0.016,0.008,0.024,0.008c-1.48,5.368-3.288,10.664-5.36,15.896
	c-17.056-6.928-45.864-16-75.576-13.52c-8.808,0.728-15.352,8.456-14.624,17.264c0.72,8.8,8.24,15.424,17.264,14.632
	c21.792-1.784,44.016,4.792,58.192,10.264c-2.904,4.464-6.016,8.792-9.368,12.96c-0.544-0.184-1.168-0.384-1.752-0.568
	c-0.432-0.144-0.832-0.272-1.28-0.416c-1.576-0.504-3.248-1.008-5.056-1.512c-0.304-0.088-0.64-0.168-0.952-0.256
	c-1.544-0.424-3.16-0.832-4.856-1.24c-0.6-0.144-1.208-0.288-1.832-0.432c-1.76-0.4-3.584-0.784-5.488-1.16
	c-0.408-0.08-0.784-0.16-1.192-0.24c-2.28-0.424-4.68-0.816-7.152-1.176c-0.632-0.088-1.28-0.168-1.92-0.256
	c-2.008-0.272-4.064-0.504-6.184-0.712c-0.72-0.072-1.424-0.144-2.16-0.208c-2.768-0.24-5.608-0.432-8.552-0.552
	c-0.216-0.008-0.44-0.008-0.648-0.016c-2.72-0.096-5.528-0.12-8.392-0.088c-0.84,0.008-1.68,0.032-2.528,0.048
	c-2.608,0.064-5.272,0.184-7.984,0.36c-0.616,0.04-1.216,0.064-1.84,0.112c-3.296,0.248-6.664,0.608-10.096,1.056
	c-0.744,0.096-1.512,0.224-2.256,0.336c-2.784,0.4-5.608,0.872-8.472,1.408c-0.984,0.184-1.96,0.368-2.952,0.568
	c-3.624,0.744-7.28,1.56-11.024,2.552c-3.736,0.992-7.296,2.08-10.776,3.208c-0.92,0.296-1.816,0.6-2.72,0.904
	c-3.008,1.016-5.928,2.072-8.736,3.168c-0.384,0.152-0.792,0.288-1.168,0.44c-3.136,1.248-6.128,2.552-9.024,3.888
	c-0.728,0.336-1.44,0.68-2.152,1.016c-2.384,1.136-4.688,2.288-6.904,3.464c-0.496,0.264-1,0.512-1.488,0.776
	c-2.584,1.4-5.048,2.824-7.408,4.256c-0.544,0.328-1.056,0.664-1.592,0.992c-1.92,1.2-3.768,2.4-5.536,3.6
	c-0.472,0.32-0.96,0.64-1.424,0.968c-2.072,1.44-4.048,2.88-5.904,4.304c-0.368,0.28-0.704,0.552-1.056,0.832
	c-1.536,1.2-3,2.392-4.392,3.56c-0.424,0.352-0.84,0.704-1.248,1.056c-1.592,1.368-3.104,2.72-4.496,4.032
	c-0.184,0.176-0.352,0.344-0.536,0.52c-1.224,1.168-2.368,2.296-3.448,3.392c-0.336,0.336-0.656,0.672-0.976,1
	c-1.104,1.152-2.152,2.272-3.088,3.328c-0.04,0.04-0.08,0.088-0.12,0.128c-14.224-6.184-27.408-14.408-39.2-24.408
	C89.088,314.216,89.336,314.128,89.616,314.088z M162.76,349.344c0.176-0.152,0.336-0.288,0.52-0.44
	c0.768-0.632,1.608-1.288,2.432-1.936c0.736-0.576,1.464-1.152,2.248-1.744c0.856-0.64,1.792-1.288,2.704-1.936
	c0.864-0.608,1.704-1.216,2.624-1.832c0.96-0.64,2-1.28,3.016-1.92c0.992-0.624,1.952-1.248,2.992-1.864
	c1.08-0.64,2.248-1.272,3.392-1.904c1.096-0.608,2.16-1.224,3.312-1.832c1.24-0.648,2.584-1.28,3.888-1.912
	c1.184-0.576,2.312-1.16,3.552-1.72c1.44-0.656,2.992-1.272,4.504-1.912c1.232-0.512,2.408-1.048,3.696-1.544
	c1.76-0.68,3.648-1.32,5.504-1.976c1.168-0.408,2.272-0.84,3.48-1.232c3.128-1.024,6.384-1.992,9.784-2.896
	c3.496-0.928,6.92-1.704,10.28-2.36c1.088-0.216,2.128-0.352,3.208-0.536c2.248-0.392,4.496-0.792,6.68-1.08
	c1.216-0.16,2.376-0.248,3.568-0.384c1.976-0.216,3.968-0.44,5.88-0.576c1.2-0.088,2.352-0.112,3.528-0.168
	c1.832-0.088,3.672-0.184,5.44-0.208c1.144-0.016,2.248,0.008,3.368,0.016c1.72,0.016,3.44,0.032,5.088,0.104
	c1.064,0.048,2.088,0.12,3.128,0.184c1.616,0.104,3.232,0.208,4.776,0.352c0.968,0.088,1.904,0.2,2.84,0.304
	c1.512,0.168,3.008,0.352,4.44,0.56c0.88,0.128,1.72,0.264,2.568,0.4c1.4,0.224,2.768,0.464,4.08,0.712
	c0.336,0.064,0.656,0.136,0.984,0.2C262.36,339.928,227.72,352,192,352C182.08,352,172.312,351.112,162.76,349.344z"/>
<g>
</g>
<g>
</g>
<g>
</g>
<g>
</g>
<g>
</g>
<g>
</g>
<g>
</g>
<g>
</g>
<g>
</g>
<g>
</g>
<g>
</g>
<g>
</g>
<g>
</g>
<g>
</g>
<g>
</g>
</svg>
