<?xml version="1.0" encoding="iso-8859-1"?>
<!-- Generator: Adobe Illustrator 19.0.0, SVG Export Plug-In . SVG Version: 6.00 Build 0)  -->
<svg version="1.1" id="Capa_1" xmlns="http://www.w3.org/2000/svg" xmlns:xlink="http://www.w3.org/1999/xlink" x="0px" y="0px"
	 viewBox="0 0 384 384" style="enable-background:new 0 0 384 384;" xml:space="preserve">
<path style="fill:#38B4C1;" d="M364,231.44c-14.56,67.12-67.44,120-134.56,134.56c0,0-2.56-47.12,42.4-92.16
	C316.8,228.88,364,231.44,364,231.44z"/>
<path style="fill:#FFDC7B;" d="M368,194c0,12.88-1.36,25.36-4,37.44c0,0-47.2-2.56-92.16,42.4c-44.96,45.04-42.4,92.16-42.4,92.16
	c-12.08,2.64-24.56,4-37.44,4c-30.4,0-59.04-7.68-84-21.28C53.2,318.88,16,260.8,16,194C16,96.8,94.8,18,192,18
	c66.8,0,124.88,37.2,154.72,92C360.32,134.96,368,163.6,368,194z"/>
<path style="fill:#141F38;" d="M192,0C86.128,0,0,86.128,0,192c0,70.4,38.456,135.064,100.344,168.768
	C128.232,375.968,159.928,384,192,384c13.832,0,27.552-1.464,40.784-4.36c0.016,0,0.032,0,0.04,0
	c73.232-15.888,130.824-73.44,146.768-146.656c0.008-0.04,0.032-0.08,0.04-0.12C382.528,219.592,384,205.848,384,192
	c0-32.072-8.032-63.768-23.224-91.648C327.072,38.456,262.4,0,192,0z M182.296,351.52c3.576-20.92,11.24-53.504,33.512-78.96
	c5.824-6.648,5.144-16.76-1.504-22.576c-6.672-5.816-16.768-5.144-22.584,1.504c-27.816,31.792-37.032,71.568-41.032,95.024
	c-9.024-2.384-17.792-5.608-26.224-9.512c2.352-27.848,15.088-81.888,72.88-139.672c5.472-5.48,11.104-10.728,16.736-15.608
	c6.68-5.792,7.4-15.896,1.616-22.568c-5.792-6.68-15.896-7.408-22.568-1.616c-6.208,5.384-12.408,11.168-18.416,17.176
	c-55.552,55.552-74.184,109.36-80.12,144.152C55.504,288.824,32,242.184,32,192c0-88.224,71.776-160,160-160
	c50.2,0,96.848,23.52,126.888,62.608c-11.96,2.048-26.336,5.6-42.248,11.72c-8.248,3.168-12.368,12.424-9.2,20.672
	c2.448,6.36,8.504,10.264,14.936,10.264c1.912,0,3.848-0.344,5.736-1.064c20.32-7.8,37.392-10.72,49.008-11.728
	C346.872,145.448,352,168.592,352,192c0,7.496-0.52,14.944-1.528,22.264c-0.128,0.016-0.28,0.04-0.408,0.056
	c-0.416,0.056-0.848,0.12-1.28,0.184c-1.232,0.176-2.528,0.376-3.872,0.608c-0.528,0.088-1.04,0.176-1.584,0.28
	c-1.792,0.328-3.656,0.704-5.616,1.152c-0.328,0.072-0.68,0.168-1.016,0.248c-1.696,0.4-3.448,0.856-5.248,1.352
	c-0.64,0.176-1.28,0.36-1.936,0.552c-1.984,0.576-4.016,1.216-6.104,1.928c-0.256,0.088-0.488,0.152-0.744,0.24
	c-2.296,0.792-4.664,1.704-7.072,2.672c-0.672,0.272-1.352,0.56-2.04,0.848c-2.024,0.848-4.08,1.768-6.168,2.76
	c-0.536,0.256-1.064,0.488-1.608,0.752c-2.544,1.24-5.128,2.592-7.736,4.056c-0.624,0.352-1.256,0.728-1.888,1.096
	c-2.144,1.24-4.304,2.552-6.488,3.952c-0.688,0.44-1.36,0.864-2.048,1.32c-2.704,1.792-5.424,3.696-8.16,5.752
	c-0.448,0.336-0.888,0.704-1.336,1.048c-2.344,1.8-4.696,3.712-7.048,5.728c-0.744,0.632-1.48,1.272-2.224,1.92
	c-2.776,2.456-5.56,5.008-8.328,7.776c-2.768,2.776-5.32,5.552-7.776,8.336c-0.656,0.744-1.288,1.48-1.92,2.224
	c-2.016,2.36-3.936,4.72-5.736,7.072c-0.336,0.44-0.704,0.88-1.032,1.312c-2.064,2.744-3.968,5.472-5.768,8.184
	c-0.44,0.664-0.856,1.328-1.28,1.992c-1.424,2.216-2.76,4.408-4.016,6.584c-0.344,0.6-0.704,1.2-1.04,1.792
	c-1.48,2.64-2.848,5.248-4.096,7.816c-0.232,0.48-0.44,0.952-0.672,1.432c-1.032,2.168-1.984,4.304-2.872,6.408
	c-0.256,0.616-0.52,1.224-0.76,1.832c-1,2.472-1.928,4.896-2.744,7.248c-0.032,0.08-0.048,0.16-0.08,0.24
	c-0.792,2.296-1.472,4.512-2.104,6.672c-0.16,0.536-0.304,1.064-0.456,1.6c-0.56,2.008-1.072,3.968-1.504,5.84
	c-0.04,0.16-0.08,0.328-0.12,0.48c-0.472,2.072-0.872,4.024-1.216,5.904c-0.072,0.376-0.128,0.728-0.192,1.104
	c-0.28,1.608-0.52,3.152-0.72,4.6c-0.032,0.216-0.064,0.44-0.096,0.648c-0.024,0.192-0.064,0.408-0.088,0.6
	C203.728,351.936,193,352.192,182.296,351.52z M248.4,341.768c0.088-0.344,0.192-0.704,0.288-1.056
	c0.368-1.352,0.76-2.744,1.216-4.184c0.216-0.672,0.456-1.376,0.688-2.064c0.448-1.352,0.936-2.728,1.472-4.144
	c0.304-0.808,0.632-1.632,0.968-2.456c0.552-1.36,1.144-2.752,1.776-4.168c0.408-0.92,0.832-1.84,1.28-2.776
	c0.664-1.392,1.392-2.808,2.144-4.232c0.52-0.992,1.04-1.976,1.6-2.976c0.808-1.44,1.696-2.896,2.592-4.36
	c0.632-1.024,1.24-2.048,1.92-3.088c0.984-1.504,2.072-3.032,3.16-4.56c0.728-1.016,1.408-2.032,2.184-3.056
	c1.264-1.672,2.664-3.36,4.064-5.056c0.736-0.888,1.408-1.776,2.184-2.664c2.24-2.584,4.632-5.168,7.216-7.76
	c2.576-2.576,5.144-4.944,7.712-7.184c0.864-0.752,1.72-1.4,2.576-2.12c1.704-1.416,3.408-2.824,5.096-4.104
	c1-0.76,1.992-1.432,2.984-2.144c1.536-1.096,3.072-2.192,4.584-3.184c1.024-0.672,2.032-1.28,3.04-1.904
	c1.464-0.904,2.928-1.784,4.368-2.592c0.992-0.56,1.976-1.088,2.952-1.608c1.432-0.752,2.84-1.472,4.24-2.144
	c0.928-0.448,1.848-0.88,2.76-1.288c1.416-0.64,2.808-1.224,4.176-1.784c0.824-0.336,1.648-0.672,2.448-0.976
	c1.44-0.544,2.832-1.032,4.208-1.496c0.664-0.224,1.344-0.464,1.992-0.672c1.544-0.488,3.032-0.912,4.48-1.296
	c0.328-0.088,0.68-0.2,1-0.28C325.576,291.4,291.416,325.56,248.4,341.768z"/>
<g>
</g>
<g>
</g>
<g>
</g>
<g>
</g>
<g>
</g>
<g>
</g>
<g>
</g>
<g>
</g>
<g>
</g>
<g>
</g>
<g>
</g>
<g>
</g>
<g>
</g>
<g>
</g>
<g>
</g>
</svg>
