<?xml version="1.0" encoding="iso-8859-1"?>
<!-- Generator: Adobe Illustrator 19.0.0, SVG Export Plug-In . SVG Version: 6.00 Build 0)  -->
<svg version="1.1" id="Capa_1" xmlns="http://www.w3.org/2000/svg" xmlns:xlink="http://www.w3.org/1999/xlink" x="0px" y="0px"
	 viewBox="0 0 384 384" style="enable-background:new 0 0 384 384;" xml:space="preserve">
<g>
	<ellipse style="fill:#FFDC7B;" cx="49.664" cy="53.212" rx="33.664" ry="35.208"/>
	<ellipse style="fill:#FFDC7B;" cx="334.344" cy="53.212" rx="33.656" ry="35.208"/>
</g>
<path style="fill:#141F38;" d="M334.344,0.004c-21.96,0-40.608,14.792-47.144,35.208h-61.368c-5.832-12.264-18.008-20.8-32.216-20.8
	c-9.712,0.016-18.808,3.944-25.608,11.056c-2.752,2.88-4.848,6.216-6.52,9.744h-64.68C90.272,14.796,71.624,0.004,49.656,0.004
	C22.28,0.004,0,22.98,0,51.212c0,27.32,20.864,49.64,47.016,51.072L127.864,313.3c-2.408,6.016-3.76,12.592-3.76,19.488
	c0,28.24,22.28,51.208,49.664,51.208s49.664-22.976,49.664-51.208c0-2.68-0.264-5.288-0.648-7.856l112.992-222.584
	C362.496,101.556,384,78.956,384,51.212C384,22.98,361.728,0.004,334.344,0.004z M173.776,281.58c-7.816,0-15.192,1.92-21.776,5.256
	L77.856,93.324c8.808-6.288,15.536-15.424,18.952-26.112h64.656c1.792,3.792,4.12,7.344,7.16,10.376
	c6.736,6.728,15.624,10.432,25,10.432c0.016,0,0.032,0,0.048,0c9.416,0,18.32-3.712,25.056-10.464
	c3.024-3.032,5.336-6.568,7.12-10.344H287.2c3.256,10.184,9.544,18.936,17.752,25.184L203.64,291.972
	C195.312,285.484,184.992,281.58,173.776,281.58z M32,51.212c0-10.592,7.92-19.208,17.656-19.208S67.32,40.62,67.32,51.212
	S59.392,70.42,49.656,70.42S32,61.812,32,51.212z M173.776,352.004c-9.736,0-17.664-8.616-17.664-19.208
	c0-10.592,7.928-19.208,17.664-19.208c9.736,0,17.664,8.616,17.664,19.208C191.44,343.388,183.512,352.004,173.776,352.004z
	 M334.344,70.428c-9.744,0-17.664-8.616-17.664-19.208s7.92-19.208,17.664-19.208C344.08,32.004,352,40.62,352,51.212
	C352,61.812,344.08,70.428,334.344,70.428z"/>
<g>
</g>
<g>
</g>
<g>
</g>
<g>
</g>
<g>
</g>
<g>
</g>
<g>
</g>
<g>
</g>
<g>
</g>
<g>
</g>
<g>
</g>
<g>
</g>
<g>
</g>
<g>
</g>
<g>
</g>
</svg>
