<?xml version="1.0" encoding="iso-8859-1"?>
<!-- Generator: Adobe Illustrator 19.0.0, SVG Export Plug-In . SVG Version: 6.00 Build 0)  -->
<svg version="1.1" id="Capa_1" xmlns="http://www.w3.org/2000/svg" xmlns:xlink="http://www.w3.org/1999/xlink" x="0px" y="0px"
	 viewBox="0 0 384.003 384.003" style="enable-background:new 0 0 384.003 384.003;" xml:space="preserve">
<path style="fill:#38B4C1;" d="M71.541,32.401l-12.96,75.36l-13.36-2.88c-19.36-3.84-32.16-23.76-28.64-44.56
	c3.6-20.8,22.16-34.56,41.52-30.72L71.541,32.401z"/>
<path style="fill:#EDC45F;" d="M175.141,91.761c-2.88,16.8-10.16,30.88-21.04,38.48c-7.68,5.36-17.12,7.6-28.16,5.44l-23.44-4.64
	l17.84-103.84l23.44,4.64c11.04,2.16,19.12,7.92,24.48,15.84C175.941,58.961,178.021,74.881,175.141,91.761z"/>
<polygon style="fill:#FFDC7B;" points="120.341,27.201 102.501,131.041 56.181,121.841 58.581,107.761 71.541,32.401 74.021,18.001 
	"/>
<path style="fill:#B9D5EA;" d="M271.861,68.241l-1.68,9.6l-11.44,67.04l-1.04,5.92l-103.6-20.56c10.88-7.6,18.16-21.68,21.04-38.48
	c2.88-16.88,0.8-32.8-6.88-44.08L271.861,68.241z"/>
<path style="fill:#EBF3FF;" d="M367.221,129.681c-6.08,35.52-30,30.8-30,30.8l-78.48-15.6l11.44-67.04l78.56,15.52
	C348.741,93.361,372.661,98.161,367.221,129.681z"/>
<path style="fill:#141F38;" d="M340.053,174.697c5.456,0,13.736-1.192,22.032-6.904c10.912-7.512,17.944-20.104,20.904-37.408
	c5.92-34.368-15.352-51.544-31.152-54.712l-64.336-12.712c-1.28-6.096-6.056-11.128-12.528-12.408l-97.88-19.432
	c-7.776-8.752-18.072-14.6-30.208-16.976l-23.408-4.632c-0.008,0-0.016-0.008-0.024-0.008l-46.32-9.2
	c-4.232-0.832-8.624,0.064-12.176,2.504c-3.056,2.104-5.192,5.208-6.224,8.728c-12.368-1.816-24.816,1.04-35.328,8.248
	C11.581,27.905,3.341,40.953,0.797,55.641c-4.848,28.648,12.928,56.312,39.536,62.488c-0.88,8.176,4.552,15.776,12.728,17.4
	l46.32,9.2c0.008,0,0.016,0,0.024,0l23.464,4.648c3.792,0.744,7.528,1.112,11.192,1.112c8.096,0,15.8-1.832,22.856-5.384
	l17.064,3.384c-12.968,6.632-21.96,19.976-21.96,35.512c0,7.024,1.976,13.536,5.176,19.28h-0.104
	c-6.696,0-12.688,4.168-15.008,10.456l-54.976,148.72c-3.064,8.288,1.168,17.496,9.464,20.552c1.824,0.672,3.696,0.992,5.544,0.992
	c6.504,0,12.624-4,15.008-10.456l51.112-138.264h7.784v97.44c0,8.832,7.168,16,16,16s16-7.168,16-16v-97.44h7.784l51.112,138.264
	c2.392,6.464,8.504,10.456,15.008,10.456c1.84,0,3.72-0.32,5.544-1c8.288-3.064,12.528-12.264,9.464-20.552l-54.976-148.72
	c-2.328-6.28-8.312-10.456-15.008-10.456h-0.104c3.2-5.736,5.176-12.248,5.176-19.272c0-9.936-3.776-18.92-9.792-25.928l32.36,6.424
	c1.032,0.2,2.072,0.304,3.112,0.304c3.2,0,6.36-0.96,9.04-2.8c0.424-0.288,0.776-0.656,1.168-0.984l66.208,13.168
	C334.973,174.353,337.101,174.697,340.053,174.697z M253.429,78.897l-8.712,51.024l-49.424-9.808
	c-0.032-0.008-0.072-0.016-0.104-0.024l-12.256-2.432c0.136-0.272,0.216-0.592,0.344-0.864c1.576-3.28,2.968-6.736,4.16-10.384
	c0.2-0.616,0.368-1.248,0.56-1.88c1.168-3.856,2.184-7.848,2.912-12.056c0-0.008,0-0.016,0-0.016
	c0.424-2.504,0.736-4.968,0.976-7.408c0.08-0.816,0.112-1.608,0.176-2.416c0.12-1.624,0.216-3.24,0.248-4.84
	c0.024-0.912,0.016-1.816,0.008-2.72c-0.008-1.48-0.056-2.952-0.144-4.4c-0.048-0.888-0.104-1.784-0.184-2.656
	c-0.04-0.44-0.048-0.896-0.088-1.328L253.429,78.897z M200.021,184.001c0,4.408-3.592,8-8,8s-8-3.592-8-8s3.592-8,8-8
	C196.429,176.001,200.021,179.593,200.021,184.001z M32.341,61.049c1.072-6.184,4.416-11.608,9.176-14.88
	c2.296-1.576,5.744-3.232,10.016-3.232c0.52,0,1.048,0.024,1.592,0.08l-7.472,43.424C36.301,83.041,30.453,72.249,32.341,61.049z
	 M75.997,98.889l11.008-64l14.928,2.968l-3.104,18.08l-9.312,54.208l-14.944-2.968L75.997,98.889z M129.045,117.985l-8.136-1.608
	l5.584-32.488l6.84-39.808l7.376,1.464c6.312,1.232,10.992,4.208,14.328,9.144c2.184,3.208,3.584,7.376,4.432,12.024
	c1.096,6.008,1.168,12.896-0.096,20.344c-0.56,3.248-1.304,6.32-2.216,9.184c-2.744,8.584-7.008,15.248-12.216,18.88l-0.008,0.008
	C140.429,118.257,135.229,119.185,129.045,117.985z M279.109,118.625l4.104-23.904l61.92,12.224
	c3.368,0.92,8.664,4.488,6.328,18.016c0,0.008,0,0.016,0,0.024c-1.96,11.44-6.384,18.208-11.112,17.808l-63.208-12.568
	L279.109,118.625z"/>
<g>
</g>
<g>
</g>
<g>
</g>
<g>
</g>
<g>
</g>
<g>
</g>
<g>
</g>
<g>
</g>
<g>
</g>
<g>
</g>
<g>
</g>
<g>
</g>
<g>
</g>
<g>
</g>
<g>
</g>
</svg>
