<?xml version="1.0" encoding="iso-8859-1"?>
<!-- Generator: Adobe Illustrator 19.0.0, SVG Export Plug-In . SVG Version: 6.00 Build 0)  -->
<svg version="1.1" id="Capa_1" xmlns="http://www.w3.org/2000/svg" xmlns:xlink="http://www.w3.org/1999/xlink" x="0px" y="0px"
	 viewBox="0 0 384 384" style="enable-background:new 0 0 384 384;" xml:space="preserve">
<ellipse style="fill:#38B4C1;" cx="192.24" cy="193.28" rx="31.912" ry="31.744"/>
<g>
	<path style="fill:#141F38;" d="M144.344,191.264c0,26.328,21.488,47.744,47.904,47.744c26.424,0,47.912-21.416,47.912-47.744
		s-21.488-47.752-47.912-47.752C165.832,143.512,144.344,164.936,144.344,191.264z M192.248,175.512
		c8.776,0,15.912,7.064,15.912,15.752c0,8.68-7.144,15.744-15.912,15.744c-8.768,0-15.904-7.064-15.904-15.744
		C176.344,182.576,183.48,175.512,192.248,175.512z"/>
	<path style="fill:#141F38;" d="M176.248,111.504c0,8.832,7.168,16,16,16c8.832,0,16-7.168,16-16V72c0-8.832-7.168-16-16-16
		s-16,7.168-16,16L176.248,111.504L176.248,111.504z"/>
	<path style="fill:#141F38;" d="M192.248,40.472c8.832,0,16-7.168,16-16V16c0-8.832-7.168-16-16-16s-16,7.168-16,16v8.472
		C176.248,33.312,183.416,40.472,192.248,40.472z"/>
	<path style="fill:#141F38;" d="M208.248,272.496c0-8.832-7.168-16-16-16s-16,7.168-16,16V312c0,8.832,7.168,16,16,16
		s16-7.168,16-16V272.496z"/>
	<path style="fill:#141F38;" d="M192.248,343.528c-8.832,0-16,7.168-16,16V368c0,8.832,7.168,16,16,16s16-7.168,16-16v-8.472
		C208.248,350.688,201.088,343.528,192.248,343.528z"/>
	<path style="fill:#141F38;" d="M112,208c8.832,0,16-7.168,16-16s-7.168-16-16-16H95.456c-8.832,0-16,7.168-16,16s7.168,16,16,16
		H112z"/>
	<path style="fill:#141F38;" d="M0,192c0,8.832,7.16,16,16,16h32c8.832,0,16-7.168,16-16s-7.168-16-16-16H16
		C7.16,176,0,183.168,0,192z"/>
	<path style="fill:#141F38;" d="M272,176c-8.84,0-16,7.168-16,16s7.16,16,16,16h16.536c8.832,0,16-7.168,16-16s-7.168-16-16-16H272z
		"/>
	<path style="fill:#141F38;" d="M368,176h-32c-8.84,0-16,7.168-16,16s7.16,16,16,16h32c8.832,0,16-7.168,16-16S376.832,176,368,176z
		"/>
	<path style="fill:#141F38;" d="M46.808,317.552c3.128,3.144,7.232,4.712,11.344,4.712c4.08,0,8.168-1.552,11.288-4.656
		l67.872-67.528c6.264-6.232,6.288-16.36,0.056-22.632c-6.24-6.264-16.368-6.288-22.632-0.056L46.864,294.92
		C40.6,301.16,40.576,311.288,46.808,317.552z"/>
	<path style="fill:#141F38;" d="M247.192,250.08l67.864,67.528c3.128,3.104,7.208,4.656,11.288,4.656
		c4.112,0,8.216-1.576,11.344-4.712c6.232-6.264,6.2-16.392-0.056-22.632l-67.864-67.528c-6.272-6.224-16.4-6.208-22.632,0.056
		C240.904,233.72,240.936,243.848,247.192,250.08z"/>
	<path style="fill:#141F38;" d="M137.312,132.448L69.44,64.92c-6.264-6.232-16.384-6.192-22.632,0.056
		c-6.232,6.264-6.208,16.392,0.056,22.632l67.872,67.528c3.12,3.104,7.2,4.656,11.288,4.656c4.112,0,8.216-1.576,11.344-4.712
		C143.6,148.808,143.576,138.68,137.312,132.448z"/>
	<path style="fill:#141F38;" d="M337.696,64.976c-6.224-6.264-16.36-6.296-22.632-0.056L247.2,132.448
		c-6.256,6.232-6.288,16.36-0.056,22.632c3.128,3.144,7.232,4.712,11.344,4.712c4.08,0,8.168-1.552,11.288-4.656l67.864-67.528
		C343.896,81.368,343.928,71.24,337.696,64.976z"/>
</g>
<g>
</g>
<g>
</g>
<g>
</g>
<g>
</g>
<g>
</g>
<g>
</g>
<g>
</g>
<g>
</g>
<g>
</g>
<g>
</g>
<g>
</g>
<g>
</g>
<g>
</g>
<g>
</g>
<g>
</g>
</svg>
