<?xml version="1.0" encoding="iso-8859-1"?>
<!-- Generator: Adobe Illustrator 19.0.0, SVG Export Plug-In . SVG Version: 6.00 Build 0)  -->
<svg version="1.1" id="Capa_1" xmlns="http://www.w3.org/2000/svg" xmlns:xlink="http://www.w3.org/1999/xlink" x="0px" y="0px"
	 viewBox="0 0 384.312 384.312" style="enable-background:new 0 0 384.312 384.312;" xml:space="preserve">
<polyline style="fill:#EDC45F;" points="114.664,163.804 16.168,194.156 114.648,224.484 66.096,309.7 159.688,271.54 
	159.688,271.508 192.152,370.14 224.616,271.548 224.6,271.524 318.192,309.7 269.64,224.516 269.64,224.484 368.136,194.156 
	269.64,163.828 269.632,163.812 318.184,78.612 224.6,116.764 224.608,116.756 192.152,18.172 159.688,116.772 159.672,116.764 
	66.104,78.612 114.688,163.884 "/>
<ellipse style="fill:#FFDC7B;" cx="192.144" cy="194.156" rx="69.408" ry="68.536"/>
<path style="fill:#141F38;" d="M11.408,207.604l79.216,24.392L52.048,299.7c-3.416,5.984-2.648,13.48,1.888,18.664
	c3.144,3.576,7.6,5.504,12.168,5.504c2.048,0,4.12-0.392,6.096-1.2l77.568-31.624l27.04,82.152
	c2.176,6.632,8.368,11.112,15.352,11.112c6.976,0,13.168-4.48,15.352-11.112l27.04-82.152l77.536,31.624
	c1.976,0.808,4.048,1.2,6.096,1.2c4.56,0,9.024-1.936,12.168-5.504c4.536-5.184,5.304-12.68,1.888-18.664l-38.576-67.696
	l79.24-24.392c6.784-2.088,11.408-8.352,11.408-15.448s-4.624-13.36-11.408-15.448l-79.24-24.4L332.24,84.62
	c3.416-5.992,2.648-13.48-1.888-18.664c-4.544-5.176-11.872-6.912-18.256-4.312L234.56,93.252l-27.056-82.136
	c-2.184-6.624-8.376-11.112-15.352-11.112s-13.176,4.48-15.352,11.112L149.752,93.26L72.2,61.636
	c-6.392-2.608-13.712-0.864-18.256,4.312c-4.536,5.176-5.304,12.672-1.888,18.664l38.56,67.688L11.4,176.708
	C4.632,178.796,0,185.06,0,192.156S4.632,205.516,11.408,207.604z M122.56,241.26c5.104,7.064,11.272,13.296,18.272,18.52
	l-37.552,15.304L122.56,241.26z M192.144,139.788c29.36,0,53.248,23.496,53.248,52.368s-23.888,52.368-53.248,52.368
	c-29.352,0-53.232-23.496-53.232-52.368S162.792,139.788,192.144,139.788z M192.152,316.444l-13.408-40.728
	c4.376,0.688,8.832,1.144,13.4,1.144c4.576,0,9.04-0.456,13.424-1.144L192.152,316.444z M243.472,259.764
	c6.992-5.216,13.16-11.44,18.256-18.488l19.256,33.792L243.472,259.764z M276.888,203.332c0.488-3.664,0.832-7.384,0.832-11.176
	s-0.344-7.512-0.832-11.176l36.312,11.176L276.888,203.332z M261.72,143.028c-5.104-7.056-11.272-13.28-18.272-18.504l37.536-15.304
	L261.72,143.028z M192.152,67.868l13.416,40.736c-4.384-0.688-8.84-1.144-13.424-1.144c-4.568,0-9.024,0.456-13.408,1.144
	L192.152,67.868z M140.832,124.54c-7,5.224-13.168,11.448-18.272,18.512l-19.272-33.816L140.832,124.54z M107.416,180.956
	c-0.496,3.672-0.84,7.392-0.84,11.2c0,3.8,0.344,7.512,0.832,11.184L71.08,192.156L107.416,180.956z"/>
<g>
</g>
<g>
</g>
<g>
</g>
<g>
</g>
<g>
</g>
<g>
</g>
<g>
</g>
<g>
</g>
<g>
</g>
<g>
</g>
<g>
</g>
<g>
</g>
<g>
</g>
<g>
</g>
<g>
</g>
</svg>
