<?xml version="1.0" encoding="iso-8859-1"?>
<!-- Generator: Adobe Illustrator 19.0.0, SVG Export Plug-In . SVG Version: 6.00 Build 0)  -->
<svg version="1.1" id="Capa_1" xmlns="http://www.w3.org/2000/svg" xmlns:xlink="http://www.w3.org/1999/xlink" x="0px" y="0px"
	 viewBox="0 0 384 384" style="enable-background:new 0 0 384 384;" xml:space="preserve">
<polygon style="fill:#FFDC7B;" points="172.584,174.864 125.536,194.664 172.584,214.472 192.4,275.4 212.216,214.472 
	259.256,194.664 212.216,174.864 192.4,113.936 "/>
<g>
	<path style="fill:#141F38;" d="M119.328,177.92c-5.928,2.496-9.792,8.312-9.792,14.744c0,6.44,3.856,12.248,9.792,14.744
		l40.304,16.968l17.552,53.968c2.152,6.592,8.288,11.048,15.216,11.048c6.928,0,13.072-4.464,15.216-11.048l17.56-53.968
		l40.296-16.968c5.928-2.496,9.792-8.312,9.792-14.744c0-6.44-3.856-12.248-9.792-14.744l-40.296-16.968l-17.56-53.968
		c-2.152-6.592-8.288-11.048-15.216-11.048c-6.928,0-13.072,4.464-15.216,11.048l-17.552,53.968L119.328,177.92z M197,177.816
		c0.04,0.128,0.136,0.224,0.184,0.352c0.496,1.4,1.168,2.72,2.024,3.936c0.168,0.24,0.36,0.448,0.544,0.68
		c0.848,1.072,1.816,2.048,2.936,2.88c0.112,0.08,0.2,0.184,0.312,0.264c0.928,0.656,1.92,1.232,3.008,1.688l12.016,5.056
		l-12.016,5.056c-0.184,0.072-0.328,0.192-0.504,0.272c-0.504,0.232-0.976,0.512-1.456,0.792c-0.44,0.264-0.872,0.52-1.28,0.816
		c-0.416,0.304-0.792,0.648-1.176,0.992c-0.392,0.344-0.776,0.688-1.128,1.072c-0.344,0.376-0.648,0.784-0.96,1.192
		c-0.32,0.416-0.632,0.832-0.904,1.28c-0.264,0.424-0.48,0.88-0.704,1.336c-0.24,0.496-0.472,0.984-0.664,1.504
		c-0.072,0.184-0.176,0.344-0.24,0.536l-4.6,14.144L187.8,207.52c-0.064-0.192-0.168-0.352-0.24-0.536
		c-0.184-0.512-0.416-0.992-0.656-1.48c-0.224-0.472-0.448-0.936-0.72-1.368c-0.264-0.424-0.568-0.824-0.864-1.224
		c-0.32-0.432-0.64-0.864-1-1.256c-0.328-0.352-0.688-0.672-1.048-1c-0.416-0.376-0.824-0.744-1.272-1.072
		c-0.368-0.272-0.768-0.504-1.16-0.736c-0.52-0.312-1.04-0.616-1.592-0.864c-0.16-0.072-0.296-0.176-0.456-0.248l-12.016-5.056
		l12.016-5.056c0.168-0.072,0.304-0.176,0.464-0.256c0.544-0.248,1.056-0.544,1.56-0.848c0.408-0.248,0.808-0.48,1.184-0.752
		c0.44-0.32,0.848-0.688,1.256-1.056c0.368-0.328,0.728-0.648,1.064-1.008c0.36-0.392,0.68-0.816,1-1.248
		c0.304-0.408,0.608-0.8,0.872-1.232c0.264-0.44,0.488-0.896,0.72-1.368c0.24-0.488,0.464-0.976,0.656-1.48
		c0.072-0.184,0.176-0.344,0.24-0.536l4.592-14.144L197,177.816z"/>
	<path style="fill:#141F38;" d="M107.896,59.272L90.12,51.784l-8.072-24.816C79.896,20.376,73.76,15.92,66.832,15.92
		c-6.928,0-13.072,4.464-15.216,11.056l-8.064,24.808l-17.784,7.488c-5.928,2.496-9.792,8.312-9.792,14.744
		c0,6.44,3.856,12.248,9.792,14.744l17.784,7.488l8.064,24.816c2.152,6.592,8.288,11.056,15.216,11.056s13.072-4.464,15.216-11.048
		l8.072-24.816l17.776-7.488c5.928-2.504,9.792-8.312,9.792-14.744C117.688,67.584,113.824,61.776,107.896,59.272z"/>
	<path style="fill:#141F38;" d="M359.368,296.216l-17.784-7.488l-8.072-24.816c-2.152-6.592-8.288-11.048-15.216-11.048
		s-13.072,4.464-15.216,11.056l-8.064,24.808l-17.784,7.488c-5.928,2.504-9.792,8.312-9.792,14.752s3.856,12.248,9.8,14.744
		l17.776,7.48l8.064,24.816c2.152,6.592,8.288,11.056,15.216,11.056s13.072-4.464,15.216-11.048l8.072-24.816l17.776-7.48
		c5.936-2.496,9.8-8.304,9.8-14.744C369.152,304.528,365.296,298.712,359.368,296.216z"/>
	<path style="fill:#141F38;" d="M80.016,232.664c-8.84,0-16,7.168-16,16v16.272H55.76c-8.84,0-16,7.168-16,16s7.16,16,16,16h8.256
		v16.272c0,8.832,7.16,16,16,16c8.832,0,16-7.168,16-16v-16.272h8.256c8.832,0,16-7.168,16-16s-7.168-16-16-16h-8.256v-16.272
		C96.016,239.832,88.848,232.664,80.016,232.664z"/>
	<path style="fill:#141F38;" d="M304.784,56.128c-8.832,0-16,7.168-16,16V88.4h-8.248c-8.84,0-16,7.168-16,16s7.16,16,16,16h8.248
		v16.272c0,8.832,7.168,16,16,16s16-7.168,16-16V120.4h8.256c8.832,0,16-7.168,16-16s-7.168-16-16-16h-8.256V72.128
		C320.784,63.288,313.616,56.128,304.784,56.128z"/>
	<path style="fill:#141F38;" d="M361.176,169.848c-12.584,0-22.824,10.24-22.824,22.816s10.232,22.816,22.824,22.816
		c12.584,0,22.824-10.232,22.824-22.816S373.768,169.848,361.176,169.848z"/>
	<path style="fill:#141F38;" d="M0,192.664c0,12.584,10.232,22.816,22.816,22.816s22.824-10.232,22.824-22.816
		s-10.232-22.816-22.824-22.816C10.232,169.848,0,180.088,0,192.664z"/>
	<path style="fill:#141F38;" d="M214.216,361.184c0-12.584-10.232-22.824-22.824-22.824c-12.584,0-22.816,10.24-22.816,22.824
		S178.808,384,191.392,384C203.984,384,214.216,373.768,214.216,361.184z"/>
	<path style="fill:#141F38;" d="M214.216,22.816C214.216,10.232,203.984,0,191.4,0c-12.584,0-22.816,10.232-22.816,22.816
		s10.232,22.816,22.816,22.816C203.984,45.64,214.216,35.4,214.216,22.816z"/>
</g>
<g>
</g>
<g>
</g>
<g>
</g>
<g>
</g>
<g>
</g>
<g>
</g>
<g>
</g>
<g>
</g>
<g>
</g>
<g>
</g>
<g>
</g>
<g>
</g>
<g>
</g>
<g>
</g>
<g>
</g>
</svg>
