<?xml version="1.0" encoding="iso-8859-1"?>
<!-- Generator: Adobe Illustrator 19.0.0, SVG Export Plug-In . SVG Version: 6.00 Build 0)  -->
<svg version="1.1" id="Capa_1" xmlns="http://www.w3.org/2000/svg" xmlns:xlink="http://www.w3.org/1999/xlink" x="0px" y="0px"
	 viewBox="0 0 384 384" style="enable-background:new 0 0 384 384;" xml:space="preserve">
<g>
	<path style="fill:#FFDC7B;" d="M144,117.678v28.32c-1.2,12.48-8.08,57.68-55.76,81.28v-109.6c0,0-3.44-24.4,28.48-48.4
		c21.12,15.84,26.24,31.84,27.28,40.88C144.56,114.878,144,117.678,144,117.678z"/>
	<path style="fill:#FFDC7B;" d="M296,117.678v110c-49.92-24.08-55.28-71.44-56-81.68v-28.32c0,0-0.56-2.8,0-7.52
		c1.04-9.04,6.16-25.04,27.28-40.88C299.2,93.278,296,117.678,296,117.678z"/>
	<path style="fill:#FFDC7B;" d="M226.96,312.238c0,9.6-4.8,18.24-12.32,24.08c0,0-0.56,6.32-3.6,13.68
		c-3.12,7.36-8.8,15.84-19.04,20c-20.48-8.4-22.64-33.68-22.64-33.68c-7.52-5.84-12.32-14.48-12.32-24.08
		c0-3.6,0.64-7.04,1.92-13.68h66.08C226.32,305.198,226.96,308.638,226.96,312.238z"/>
</g>
<path style="fill:#38B4C1;" d="M240,110.158c-0.56,4.72,0,7.52,0,7.52v11.52c0,0-3.92-38.16-48-55.2
	c-22.08,8.48-34.08,22.32-40.56,34s-7.44,21.2-7.44,21.2v-11.52c0,0,0.56-2.8,0-7.52v-44.96c0,0,0.96-7.52,7.44-17.2
	s18.48-21.52,40.56-30c44.08,17.04,48,47.2,48,47.2V110.158z"/>
<path style="fill:#EBF3FF;" d="M240,129.198v168.8h-96v-168.8c0,0,0.96-9.52,7.44-21.2s18.48-25.52,40.56-34
	C236.08,91.038,240,129.198,240,129.198z"/>
<g>
	<path style="fill:#B9D5EA;" d="M368,241.998v56.56H225.04c0-0.16-0.08-0.4-0.08-0.56H240v-152c0.72,10.24,6.08,57.6,56,81.68
		C313.76,236.318,337.2,241.998,368,241.998z"/>
	<path style="fill:#B9D5EA;" d="M159.04,297.998c0,0.16-0.08,0.4-0.08,0.56H16v-56.56c30.96,0,54.4-5.84,72.24-14.72
		c47.68-23.6,54.56-68.8,55.76-81.28v152H159.04z"/>
</g>
<path style="fill:#141F38;" d="M368,223.998c-21.592,0-40.248-3.176-56-9.104v-98.528c0.504-7.144,0.032-35.464-35.104-61.88
	c-5.704-4.28-13.528-4.28-19.216-0.008c-0.976,0.728-1.864,1.464-2.784,2.2c-3-10.936-14.656-39.184-57.128-55.6
	c-3.696-1.432-7.8-1.432-11.504-0.016c-26.688,10.256-40.896,25.256-48.12,36.032c-5.408,8.08-7.912,15.128-9.072,19.56
	c-0.912-0.728-1.792-1.456-2.752-2.176c-5.696-4.264-13.528-4.272-19.216,0.008c-35.064,26.368-35.432,54.64-34.864,61.936v98.168
	c-15.816,6.128-34.552,9.408-56.24,9.408c-8.84,0-16,7.168-16,16v56.56c0,8.832,7.16,16,16,16v31.392c0,8.832,7.16,16,16,16
	c8.832,0,16-7.168,16-16v-31.392h32v55.44c0,8.832,7.16,16,16,16c8.832,0,16-7.168,16-16v-55.44h29.272
	c0.584,11.144,5.152,21.68,13.192,29.872c2.928,13.48,11.76,32.288,31.472,40.368c1.936,0.8,4,1.2,6.064,1.2
	c2.048,0,4.088-0.392,6.016-1.176c12.368-5.016,21.96-14.904,27.808-28.72c1.784-4.32,2.912-8.384,3.624-11.592
	c8.096-8.208,12.808-18.776,13.392-29.96H272v55.448c0,8.832,7.16,16,16,16c8.832,0,16-7.168,16-16v-55.44h32v31.392
	c0,8.832,7.16,16,16,16c8.832,0,16-7.168,16-16v-31.392c8.832,0,16-7.168,16-16v-56.56C384,231.166,376.832,223.998,368,223.998z
	 M267.304,88.518c12.992,13.48,12.832,24.448,12.784,25.512c-0.056,0.544-0.088,1.096-0.088,1.648v79.528
	c-0.16-0.16-0.344-0.32-0.504-0.48c-2.104-2.112-4.032-4.264-5.776-6.456c-0.352-0.448-0.664-0.896-1.008-1.336
	c-1.448-1.904-2.784-3.816-4-5.736c-0.304-0.48-0.624-0.952-0.912-1.432c-1.336-2.216-2.536-4.424-3.592-6.608
	c-0.216-0.456-0.408-0.896-0.616-1.344c-0.856-1.864-1.632-3.696-2.312-5.488c-0.168-0.448-0.36-0.904-0.512-1.344
	c-0.736-2.048-1.368-4.032-1.904-5.928c-0.12-0.424-0.216-0.832-0.328-1.248c-0.416-1.568-0.776-3.08-1.072-4.504
	c-0.08-0.376-0.168-0.768-0.24-1.128c-0.312-1.608-0.56-3.112-0.752-4.464c-0.048-0.336-0.08-0.632-0.12-0.952
	c-0.136-1.08-0.248-2.08-0.32-2.936c-0.016-0.16-0.032-0.344-0.04-0.496v-16.128v-11.52c0-0.928-0.024-1.456-0.168-2.264
	c0.064-0.552,0.176-1.088,0.176-1.656v-2.432C256.648,104.774,259.056,97.222,267.304,88.518z M160.448,126.27
	c0-0.008,0.008-0.024,0.008-0.032c0.2-0.8,0.488-1.808,0.832-2.88c0.064-0.208,0.128-0.408,0.2-0.624
	c0.376-1.12,0.84-2.36,1.392-3.688c0.112-0.264,0.232-0.536,0.352-0.8c0.624-1.424,1.328-2.912,2.2-4.48
	c5.832-10.512,14.744-18.68,26.544-24.344c1.72,0.832,3.344,1.712,4.888,2.616c0.496,0.288,0.944,0.6,1.416,0.896
	c1.008,0.624,2.016,1.256,2.944,1.904c0.536,0.376,1.024,0.76,1.536,1.144c0.8,0.6,1.6,1.192,2.344,1.808
	c0.512,0.424,0.984,0.848,1.472,1.28c0.664,0.584,1.328,1.168,1.944,1.76c0.472,0.456,0.92,0.92,1.368,1.376
	c0.552,0.568,1.096,1.136,1.608,1.704c0.432,0.488,0.848,0.968,1.248,1.456c0.456,0.544,0.896,1.088,1.32,1.632
	c0.392,0.504,0.768,1,1.12,1.504c0.368,0.512,0.72,1.024,1.064,1.528c0.352,0.52,0.696,1.04,1.016,1.56
	c0.28,0.448,0.544,0.888,0.8,1.336c0.328,0.56,0.648,1.112,0.944,1.656c0.192,0.352,0.36,0.688,0.536,1.032
	c0.312,0.608,0.616,1.216,0.888,1.8c0.088,0.2,0.168,0.384,0.256,0.584c2.208,4.928,3.056,8.824,3.32,10.36v15.64v136h-64v-136
	v-15.624c0.008-0.032,0.016-0.072,0.024-0.112C160.104,127.798,160.24,127.134,160.448,126.27z M160,64.83
	c0.416-1.552,1.648-5.312,4.736-9.928c4.144-6.192,12.152-14.656,27.248-21.552C217.792,45.182,223.152,61.438,224,64.694v7.128
	c-0.24-0.192-0.52-0.368-0.768-0.56c-0.632-0.488-1.32-0.96-1.984-1.448c-1.496-1.088-3.04-2.152-4.656-3.2
	c-0.824-0.528-1.656-1.04-2.512-1.552c-1.68-1.008-3.448-1.976-5.264-2.928c-0.832-0.432-1.632-0.88-2.496-1.296
	c-2.712-1.32-5.536-2.592-8.552-3.76c-3.696-1.432-7.8-1.432-11.504-0.016c-3.104,1.192-5.992,2.504-8.768,3.864
	c-0.864,0.424-1.672,0.872-2.512,1.304c-1.896,1-3.728,2.024-5.48,3.088c-0.808,0.496-1.616,0.984-2.392,1.488
	c-1.832,1.192-3.568,2.408-5.232,3.656c-0.472,0.36-0.984,0.696-1.448,1.056c-0.136,0.104-0.296,0.208-0.424,0.312v-7H160z
	 M116.696,88.526c8.224,8.672,10.64,16.216,11.304,20.808v2.424c0,0.6,0.112,1.176,0.176,1.76c-0.096,0.712-0.176,1.432-0.176,2.16
	v11.52v15.92c-0.016,0.184-0.048,0.384-0.064,0.576c-0.112,1.048-0.272,2.2-0.456,3.424c-0.056,0.344-0.096,0.672-0.16,1.032
	c-0.248,1.496-0.552,3.096-0.92,4.792c-0.08,0.36-0.184,0.744-0.264,1.112c-0.336,1.424-0.728,2.92-1.16,4.448
	c-0.144,0.496-0.28,0.976-0.432,1.48c-0.576,1.888-1.232,3.824-1.992,5.816c-0.152,0.384-0.328,0.784-0.48,1.168
	c-0.664,1.672-1.416,3.376-2.24,5.104c-0.28,0.584-0.552,1.168-0.848,1.752c-1.04,2.072-2.176,4.152-3.464,6.24
	c-0.208,0.336-0.456,0.672-0.664,1c-1.144,1.8-2.4,3.584-3.752,5.368c-0.456,0.6-0.912,1.2-1.392,1.792
	c-1.656,2.064-3.408,4.112-5.368,6.096c-0.032,0.032-0.072,0.064-0.104,0.104v-78.744c0-0.744,0.008-1-0.096-1.736
	C104.104,113.39,103.488,102.278,116.696,88.526z M32,255.478c24.128-1.608,45.376-6.92,63.336-15.864
	c3.336-1.648,6.488-3.392,9.496-5.208c1.008-0.608,1.896-1.272,2.864-1.896c1.92-1.24,3.872-2.472,5.656-3.776
	c1.088-0.792,2.056-1.632,3.088-2.448c1.528-1.192,3.088-2.376,4.512-3.608c1.016-0.88,1.928-1.808,2.896-2.704
	c1.304-1.216,2.64-2.416,3.848-3.656c0.096-0.096,0.208-0.192,0.304-0.288v64.52H35.688c-1.192-0.28-2.416-0.472-3.688-0.472
	V255.478z M204.816,321.686c-3.432,2.664-5.64,6.76-6.104,11.088c0,0.04-0.472,4.296-2.408,8.984
	c-1.192,2.824-2.632,5.176-4.296,7.056c-5.648-6.344-6.704-15.84-6.712-15.864c-0.376-4.448-2.6-8.536-6.128-11.272
	c-3.184-2.472-5.256-5.704-5.912-9.128h37.48C210.088,315.974,208.008,319.206,204.816,321.686z M256,216.646
	c1.4,1.432,2.96,2.816,4.488,4.208c0.688,0.624,1.304,1.272,2.016,1.888c1.856,1.616,3.88,3.168,5.928,4.72
	c0.648,0.496,1.232,1.008,1.896,1.496c2.312,1.672,4.792,3.272,7.336,4.84c0.512,0.312,0.96,0.656,1.48,0.968
	c3.112,1.856,6.384,3.624,9.848,5.296c0.008,0,0.008,0,0.016,0.008s0.024,0.008,0.032,0.016c0.016,0.008,0.04,0.008,0.056,0.016
	c17.84,8.664,38.936,13.816,62.896,15.384v24.6c-1.272,0-2.496,0.184-3.688,0.472H256V216.646z"/>
<g>
</g>
<g>
</g>
<g>
</g>
<g>
</g>
<g>
</g>
<g>
</g>
<g>
</g>
<g>
</g>
<g>
</g>
<g>
</g>
<g>
</g>
<g>
</g>
<g>
</g>
<g>
</g>
<g>
</g>
</svg>
