<?xml version="1.0" encoding="iso-8859-1"?>
<!-- Generator: Adobe Illustrator 19.0.0, SVG Export Plug-In . SVG Version: 6.00 Build 0)  -->
<svg version="1.1" id="Capa_1" xmlns="http://www.w3.org/2000/svg" xmlns:xlink="http://www.w3.org/1999/xlink" x="0px" y="0px"
	 viewBox="0 0 384 384" style="enable-background:new 0 0 384 384;" xml:space="preserve">
<g>
	<path style="fill:#FFDC7B;" d="M226.16,307.68c0,10.4-4.64,19.68-12,26c0,0-2.16,27.28-22.16,36.32
		c-10.08-4.48-15.6-13.6-18.64-21.52c-2.96-8-3.52-14.8-3.52-14.8c-7.36-6.32-12-15.6-12-26c0-3.92,0.72-7.76,1.92-11.28l4.08-6.4
		h56.32l4.08,6.4C225.44,299.92,226.16,303.76,226.16,307.68z"/>
	<path style="fill:#FFDC7B;" d="M109.84,268.96c0,10.16-4.56,19.28-11.68,25.36c0,0-2.08,26.64-21.6,35.44
		c-19.6-8.8-21.6-35.44-21.6-35.44c-7.2-6.08-11.68-15.2-11.68-25.36c0-3.84,0.64-7.52,1.84-10.96H108
		C109.2,261.44,109.84,265.12,109.84,268.96z"/>
	<path style="fill:#FFDC7B;" d="M340.88,268.96c0,10.16-4.56,19.28-11.76,25.36c0,0-0.48,6.64-3.44,14.4
		c-2.96,7.76-8.4,16.64-18.16,21.04c-19.52-8.8-21.6-35.44-21.6-35.44c-7.12-6.08-11.68-15.2-11.68-25.36
		c0-3.84,0.64-7.52,1.84-10.96h62.88C340.16,261.44,340.88,265.12,340.88,268.96z"/>
</g>
<path style="fill:#EBF3FF;" d="M232,55.52v68.72c0-20.72-19.28-29.52-40-29.52s-40,8.8-40,29.52V55.52C152,34.8,171.28,18,192,18
	S232,34.8,232,55.52z"/>
<path style="fill:#38B4C1;" d="M232,124.24V170h-80v-45.76c0-20.72,19.28-29.52,40-29.52S232,103.52,232,124.24z"/>
<rect x="152" y="170" style="fill:#EBF3FF;" width="80" height="48"/>
<rect x="152" y="218" style="fill:#FFFFFF;" width="80" height="72"/>
<polygon style="fill:#EBF3FF;" points="368,202 368,258 296,258 296,151.84 "/>
<polygon style="fill:#B9D5EA;" points="296,151.84 296,258 232,258 232,107.28 "/>
<polygon style="fill:#EBF3FF;" points="88,151.84 88,258 16,258 16,202 "/>
<polygon style="fill:#B9D5EA;" points="152,107.28 152,258 88,258 88,151.84 "/>
<path style="fill:#141F38;" d="M384,200c0-5.232-2.56-10.136-6.856-13.128l-72-50.16c0,0,0,0-0.008-0.008L248,96.92v-43.4
	C248,24.512,222.352,0,192,0s-56,24.512-56,53.52v43.408l-57.144,39.784l0,0l-72,50.16C2.56,189.864,0,194.768,0,200v56
	c0,8.832,7.168,16,16,16h11.744c1.064,10.424,5.176,20.216,12.128,27.928c2.64,13.96,11,33.832,30.136,42.432
	c2.088,0.936,4.32,1.4,6.552,1.4c2.24,0,4.488-0.472,6.576-1.416c19.072-8.6,27.456-28.496,30.104-42.44
	c6.944-7.744,11.064-17.528,12.136-27.912H136v16c0,5.152,2.48,9.688,6.264,12.616c-0.176,1.688-0.424,3.376-0.424,5.064
	c0,12.504,4.672,24.472,12.992,33.664c0.664,3.432,1.776,7.952,3.592,12.864c5.56,14.488,14.928,25,27.08,30.408
	c2.064,0.928,4.28,1.392,6.496,1.392c2.248,0,4.496-0.472,6.592-1.416c19.448-8.792,27.968-29.128,30.656-43.32
	c8.272-9.192,12.912-21.12,12.912-33.584c0-1.688-0.256-3.376-0.424-5.064C245.52,297.688,248,293.152,248,288v-16h10.704
	c1.064,10.384,5.184,20.168,12.136,27.912c2.656,13.944,11.024,33.832,30.104,42.44c2.096,0.944,4.336,1.416,6.576,1.416
	s4.488-0.472,6.576-1.416c11.944-5.384,21.12-15.736,26.528-29.92c1.784-4.68,2.872-9.056,3.52-12.424
	c7.024-7.744,11.192-17.56,12.264-28H368c8.832,0,16-7.168,16-16V200z M352,240h-13.04H312v-59.512l40,27.864V240z M216,256v16h-48
	v-16v-24h48V256z M168,184h48v16h-48V184z M216,152h-48v-29.76c0-12.544,18.368-13.52,24-13.52c5.632,0,24,0.976,24,13.52V152z
	 M168,53.52C168,42.256,179.44,32,192,32s24,10.256,24,21.52v26.848c-0.184-0.064-0.392-0.104-0.576-0.16
	c-0.968-0.312-1.984-0.584-2.992-0.856c-0.792-0.216-1.568-0.448-2.384-0.64c-1.104-0.256-2.248-0.456-3.384-0.664
	c-0.776-0.144-1.528-0.312-2.328-0.424c-1.304-0.192-2.648-0.32-4-0.456c-0.68-0.064-1.336-0.168-2.024-0.216
	c-2.056-0.152-4.16-0.232-6.312-0.232s-4.256,0.08-6.32,0.232c-0.688,0.048-1.344,0.152-2.024,0.216
	c-1.344,0.128-2.696,0.256-4,0.456c-0.792,0.12-1.544,0.288-2.32,0.424c-1.136,0.208-2.288,0.408-3.384,0.664
	c-0.816,0.192-1.592,0.424-2.384,0.64c-1.008,0.272-2.024,0.536-2.992,0.856c-0.184,0.056-0.392,0.104-0.576,0.16L168,53.52
	L168,53.52z M32,208.352l40-27.864V240H45.12H32V208.352z M87.768,280.152c-3.176,2.712-5.168,6.664-5.552,10.816
	c-0.008,0.128-1.032,9.544-5.672,16.376c-4.64-6.816-5.624-16.176-5.624-16.224c-0.328-4.28-2.352-8.256-5.632-11.024
	c-2.52-2.136-4.336-4.952-5.272-8.096H88h5.096C92.152,275.144,90.32,277.976,87.768,280.152z M108,240h-4v-81.808l32-22.28V168v48
	v24H108z M203.736,319.544c-3.2,2.752-5.192,6.656-5.52,10.872c-0.016,0.136-1.176,10.248-6.256,17.36
	c-1.368-1.904-2.568-4.192-3.592-6.848c-2.088-5.64-2.576-10.552-2.576-10.552c-0.344-4.192-2.328-8.088-5.52-10.824
	c-4.144-3.56-6.424-8.48-6.424-13.864c0-0.552,0.024-1.112,0.088-1.68h36.152c0.056,0.568,0.088,1.128,0.088,1.68
	C210.16,311.064,207.88,315.984,203.736,319.544z M248,216v-48v-32.08l32,22.28V240h-3.92H248V216z M318.8,280.096
	c-3.232,2.728-5.256,6.744-5.624,10.96c0,0.048-0.424,4.68-2.44,9.96c-0.752,1.976-1.8,4.224-3.216,6.304
	c-4.624-6.824-5.632-16.192-5.64-16.24c-0.336-4.232-2.336-8.16-5.56-10.92c-2.544-2.176-4.376-5.008-5.336-8.152H296h28.128
	C323.176,275.128,321.344,277.944,318.8,280.096z"/>
<g>
</g>
<g>
</g>
<g>
</g>
<g>
</g>
<g>
</g>
<g>
</g>
<g>
</g>
<g>
</g>
<g>
</g>
<g>
</g>
<g>
</g>
<g>
</g>
<g>
</g>
<g>
</g>
<g>
</g>
</svg>
