<?xml version="1.0" encoding="iso-8859-1"?>
<!-- Generator: Adobe Illustrator 19.0.0, SVG Export Plug-In . SVG Version: 6.00 Build 0)  -->
<svg version="1.1" id="Capa_1" xmlns="http://www.w3.org/2000/svg" xmlns:xlink="http://www.w3.org/1999/xlink" x="0px" y="0px"
	 viewBox="0 0 384 384" style="enable-background:new 0 0 384 384;" xml:space="preserve">
<ellipse style="fill:#FFDC7B;" cx="192.48" cy="194.56" rx="48.48" ry="48.56"/>
<g>
	<path style="fill:#141F38;" d="M341.056,192.536c46.688-71.232,56.672-135.672,21.824-170.576
		C349.216,8.288,330.008,1.064,307.312,1.064c-0.016,0-0.024,0-0.032,0c-33.448,0.008-73.104,15.008-114.776,42.52
		C150.824,16.072,111.168,1.072,77.72,1.064c-0.008,0-0.016,0-0.016,0c-9.296,0-17.96,1.28-25.944,3.648
		C46.696,1.792,40.912,0,34.664,0C15.544,0,0,15.56,0,34.68c0,6.28,1.808,12.088,4.736,17.176
		C-5.8,88.16,8.432,138.368,43.944,192.528c-46.696,71.224-56.664,135.656-21.8,170.56C35.792,376.768,55,384,77.688,384
		c0.008,0,0.008,0,0.016,0c33.448,0,73.12-15,114.8-42.512C234.192,369,273.848,384,307.304,384c0,0,0.008,0,0.016,0
		c9.52,0,18.384-1.352,26.528-3.84c4.688,2.376,9.904,3.84,15.512,3.84c19.104,0,34.64-15.56,34.64-34.68
		c0-5.656-1.488-10.912-3.896-15.632C390.912,297.336,376.72,246.936,341.056,192.536z M307.288,33.056c0.008,0,0.016,0,0.024,0
		c14.208,0,25.296,3.872,32.928,11.512c19.392,19.424,14.144,64.328-19.344,119.768c-13.632-17.624-29.328-35.472-47.056-53.224
		c-17.768-17.8-35.64-33.648-53.328-47.416C252.76,43.968,282.784,33.064,307.288,33.056z M251.2,251.368
		c-19.392,19.416-39.216,36.536-58.696,50.888c-19.472-14.352-39.304-31.472-58.688-50.888
		c-20.12-20.144-36.88-39.888-50.784-58.832C96.928,173.6,113.68,153.864,133.8,133.72c19.592-19.624,39.368-36.784,58.704-51.112
		c19.328,14.336,39.112,31.488,58.696,51.112c20.112,20.144,36.864,39.88,50.76,58.824
		C288.064,211.48,271.312,231.224,251.2,251.368z M34.088,69.296c0.192,0,0.376,0.056,0.576,0.056
		c19.096,0,34.624-15.552,34.624-34.672c0-0.344-0.088-0.664-0.104-1.008c2.72-0.344,5.504-0.616,8.504-0.616
		c0.008,0,0.016,0,0.016,0c24.512,0.008,54.536,10.904,86.784,30.64c-17.688,13.768-35.56,29.608-53.328,47.408
		c-17.728,17.752-33.424,35.6-47.064,53.224C40.88,125.896,31.312,92.608,34.088,69.296z M77.704,352h-0.008
		c-14.208,0-25.28-3.872-32.904-11.512c-19.4-19.424-14.168-64.328,19.32-119.752c13.64,17.632,29.336,35.488,47.072,53.248
		c17.696,17.72,35.488,33.512,53.104,47.232C131.944,340.912,101.752,352,77.704,352z M307.304,352
		c-24.056,0-54.24-11.088-86.568-30.792c17.616-13.728,35.416-29.512,53.104-47.232c17.728-17.76,33.424-35.608,47.056-53.24
		c22.904,37.92,32.496,70.808,30.072,94.072c-0.544-0.024-1.056-0.16-1.616-0.16c-19.104,0-34.648,15.552-34.648,34.672
		c0,0.728,0.168,1.416,0.216,2.128c-2.456,0.28-4.912,0.552-7.6,0.552C307.312,352,307.304,352,307.304,352z"/>
	<path style="fill:#141F38;" d="M192.496,127.976c-35.552,0-64.48,28.96-64.48,64.552c0,35.6,28.92,64.56,64.48,64.56
		s64.496-28.96,64.496-64.56C256.992,156.936,228.064,127.976,192.496,127.976z M192.496,225.088
		c-17.904,0-32.48-14.608-32.48-32.56s14.568-32.552,32.48-32.552s32.496,14.608,32.496,32.552
		C224.992,210.48,210.416,225.088,192.496,225.088z"/>
</g>
<g>
</g>
<g>
</g>
<g>
</g>
<g>
</g>
<g>
</g>
<g>
</g>
<g>
</g>
<g>
</g>
<g>
</g>
<g>
</g>
<g>
</g>
<g>
</g>
<g>
</g>
<g>
</g>
<g>
</g>
</svg>
