<?xml version="1.0" encoding="iso-8859-1"?>
<!-- Generator: Adobe Illustrator 19.0.0, SVG Export Plug-In . SVG Version: 6.00 Build 0)  -->
<svg version="1.1" id="Capa_1" xmlns="http://www.w3.org/2000/svg" xmlns:xlink="http://www.w3.org/1999/xlink" x="0px" y="0px"
	 viewBox="0 0 384.013 384.013" style="enable-background:new 0 0 384.013 384.013;" xml:space="preserve">
<path style="fill:#EBF3FF;" d="M320.887,104.646c0,0-17.12-19.12-67.52-28.56c-16.64-3.12-36.88-5.2-61.36-5.2
	s-44.72,2.08-61.28,5.2c-50.4,9.44-67.52,28.56-67.52,28.56l-36.96,186.48c0,0,27.2,26.4,165.76,26.4s165.76-26.4,165.76-26.4
	L320.887,104.646z"/>
<path style="fill:#FFDC7B;" d="M368.007,345.286c0,0-32.72,24.72-176,24.72s-176-24.72-176-24.72l10.24-54.16
	c0,0,27.2,26.4,165.76,26.4s165.76-26.4,165.76-26.4L368.007,345.286z"/>
<g>
	<path style="fill:#38B4C1;" d="M264.807,194.806c0,38.4-32.56,69.52-72.8,69.52s-72.8-31.12-72.8-69.52
		c0-38.48,32.56-69.6,72.8-69.6S264.807,156.326,264.807,194.806z"/>
	<path style="fill:#38B4C1;" d="M253.367,44.966v31.12c-16.64-3.12-36.88-5.2-61.36-5.2s-44.72,2.08-61.28,5.2v-31.12
		c0,0,6.32-26.96,61.28-26.96S253.367,44.966,253.367,44.966z"/>
</g>
<g>
	<path style="fill:#141F38;" d="M103.167,192.782c0,47.192,39.848,85.584,88.84,85.584c48.984,0,88.84-38.392,88.84-85.584
		s-39.856-85.592-88.84-85.592C143.015,107.19,103.167,145.59,103.167,192.782z M248.847,192.782
		c0,29.544-25.504,53.584-56.84,53.584c-31.344,0-56.84-24.032-56.84-53.584c0-29.544,25.496-53.584,56.84-53.584
		C223.343,139.19,248.847,163.23,248.847,192.782z"/>
	<path style="fill:#141F38;" d="M268.935,39.27c-0.952-4.016-11.216-39.264-76.928-39.264c-65.744,0-75.912,35.288-76.856,39.312
		c-0.28,1.2-0.424,2.424-0.424,3.656v18.232c-44.352,10.792-61.496,28.6-63.44,30.776c-1.912,2.136-3.216,4.744-3.776,7.56
		l-36.96,186.48c-0.008,0.024,0,0.048-0.008,0.08c-0.008,0.024-0.016,0.04-0.024,0.064l-10.24,54.16
		c-1.128,5.976,1.224,12.072,6.08,15.736c3.792,2.856,41.168,27.944,185.648,27.944s181.856-25.088,185.648-27.952
		c4.848-3.664,7.208-9.76,6.08-15.736l-10.24-54.16c0-0.024-0.016-0.04-0.016-0.064c-0.008-0.024,0-0.048-0.008-0.072l-36.88-186.48
		c-0.552-2.816-1.856-5.432-3.776-7.568c-1.944-2.168-19.088-19.984-63.44-30.776V42.966
		C269.367,41.726,269.223,40.486,268.935,39.27z M146.727,46.302c2.384-3.632,12.208-14.296,45.28-14.296s42.952,10.664,45.36,14.32
		v9.136c-14.216-1.712-29.4-2.576-45.36-2.576s-31.12,0.864-45.28,2.568L146.727,46.302L146.727,46.302z M192.007,352.006
		c-97.12,0-141.392-11.656-158-17.8l4-21.176c23.544,8.712,68.928,18.496,154,18.496s130.448-9.776,153.992-18.496l3.992,21.12
		C333.079,340.438,288.767,352.006,192.007,352.006z M339.879,281.142c-14.352,6.184-54.576,18.384-147.872,18.384
		c-92.68,0-132.984-12.128-147.832-18.552l33.672-169.872c6.248-4.72,23.048-15.144,55.832-21.288c0.008,0,0.008,0,0.008,0h0.008
		c17.352-3.264,36.976-4.92,58.32-4.92c21.312,0,40.968,1.656,58.416,4.928c32.928,6.168,49.736,16.664,55.824,21.248
		L339.879,281.142z"/>
</g>
<g>
</g>
<g>
</g>
<g>
</g>
<g>
</g>
<g>
</g>
<g>
</g>
<g>
</g>
<g>
</g>
<g>
</g>
<g>
</g>
<g>
</g>
<g>
</g>
<g>
</g>
<g>
</g>
<g>
</g>
</svg>
