<?xml version="1.0" encoding="iso-8859-1"?>
<!-- Generator: Adobe Illustrator 19.0.0, SVG Export Plug-In . SVG Version: 6.00 Build 0)  -->
<svg version="1.1" id="Capa_1" xmlns="http://www.w3.org/2000/svg" xmlns:xlink="http://www.w3.org/1999/xlink" x="0px" y="0px"
	 viewBox="0 0 384 384" style="enable-background:new 0 0 384 384;" xml:space="preserve">
<circle style="fill:#38B4C1;" cx="307.2" cy="327.888" r="27.456"/>
<circle style="fill:#FFDC7B;" cx="192" cy="194" r="39.992"/>
<circle style="fill:#38B4C1;" cx="87.992" cy="194" r="24"/>
<g>
	<path style="fill:#141F38;" d="M192,136.008c-30.88,0-56,25.12-56,55.992c0,30.864,25.12,55.984,56,55.984s56-25.112,56-55.984
		S222.88,136.008,192,136.008z M192,215.984c-13.232,0-24-10.76-24-23.984s10.768-23.992,24-23.992s24,10.76,24,23.992
		C216,205.224,205.232,215.984,192,215.984z"/>
	<path style="fill:#141F38;" d="M345.16,76.208c-5.336-7.048-15.368-8.44-22.416-3.104c-7.048,5.336-8.432,15.368-3.104,22.416
		C340.816,123.48,352,156.84,352,192c0,33.496-10.56,66.072-29.92,93.112c-4.648-1.704-9.648-2.68-14.88-2.68
		c-23.96,0-43.448,19.496-43.448,43.456c0,2.96,0.304,5.848,0.864,8.64C242.224,345.952,217.392,352,192,352
		c-88.224,0-160-71.776-160-160S103.776,32,192,32c21.736,0,42.8,4.28,62.608,12.712c8.136,3.464,17.52-0.328,20.992-8.456
		c3.464-8.128-0.328-17.528-8.456-20.992C243.344,5.136,218.064,0,192,0C86.128,0,0,86.128,0,192s86.128,192,192,192
		c31.64,0,62.6-7.784,90.288-22.56c7.056,4.96,15.64,7.904,24.904,7.904c23.976,0,43.48-19.496,43.48-43.456
		c0-7.008-1.704-13.608-4.664-19.472C370.512,273.44,384,233.328,384,192C384,149.816,370.568,109.776,345.16,76.208z
		 M307.192,337.344c-6.312,0-11.448-5.136-11.448-11.456s5.136-11.456,11.448-11.456c6.328,0,11.48,5.144,11.48,11.456
		C318.672,332.208,313.52,337.344,307.192,337.344z"/>
	<path style="fill:#141F38;" d="M192,72c-52.056,0-97.216,32.904-113.6,81.296C60.992,157.616,48,173.264,48,192
		s12.992,34.384,30.4,38.704C94.784,279.096,139.944,312,192,312c66.168,0,120-53.832,120-120S258.168,72,192,72z M87.984,200
		c-4.4,0-7.984-3.592-7.984-8s3.584-8,7.984-8C92.4,184,96,187.592,96,192C96,196.408,92.4,200,87.984,200z M192,280
		c-36.472,0-68.304-22.024-81.56-54.92C121.024,217.88,128,205.744,128,192c0-13.744-6.976-25.88-17.56-33.08
		C123.696,126.024,155.528,104,192,104c48.52,0,88,39.48,88,88S240.52,280,192,280z"/>
</g>
<g>
</g>
<g>
</g>
<g>
</g>
<g>
</g>
<g>
</g>
<g>
</g>
<g>
</g>
<g>
</g>
<g>
</g>
<g>
</g>
<g>
</g>
<g>
</g>
<g>
</g>
<g>
</g>
<g>
</g>
</svg>
