<?xml version="1.0" encoding="iso-8859-1"?>
<!-- Generator: Adobe Illustrator 19.0.0, SVG Export Plug-In . SVG Version: 6.00 Build 0)  -->
<svg version="1.1" id="Capa_1" xmlns="http://www.w3.org/2000/svg" xmlns:xlink="http://www.w3.org/1999/xlink" x="0px" y="0px"
	 viewBox="0 0 383.992 383.992" style="enable-background:new 0 0 383.992 383.992;" xml:space="preserve">
<g>
	<ellipse style="fill:#FFDC7B;" cx="330.48" cy="334.824" rx="37.52" ry="35.176"/>
	<ellipse style="fill:#FFDC7B;" cx="53.52" cy="53.176" rx="37.52" ry="35.176"/>
	<ellipse style="fill:#FFDC7B;" cx="315.12" cy="75.592" rx="37.52" ry="35.176"/>
</g>
<path style="fill:#141F38;" d="M344.312,283.44l-9.056-162.456c19.56-7.624,33.4-25.976,33.4-47.384
	c0-28.216-24.008-51.176-53.52-51.176c-21.792,0-40.552,12.544-48.888,30.456L104.976,37.264C98.608,15.792,77.976,0,53.512,0
	C24.008,0,0,22.96,0,51.176s24.008,51.176,53.512,51.176c6.96,0,13.592-1.312,19.696-3.64l206.176,218.856
	c-1.576,4.816-2.432,9.944-2.432,15.248c0,28.216,24.008,51.176,53.52,51.176s53.52-22.96,53.52-51.176
	C384,309.184,367.128,289.288,344.312,283.44z M103.52,69.264l159.4,15.432c4.48,19.248,20.312,34.424,40.416,38.776l8.984,161.264
	c-4.84,1.68-9.352,3.992-13.44,6.864L98.472,78.848C100.496,75.856,102.176,72.64,103.52,69.264z M315.136,54.416
	c11.864,0,21.52,8.608,21.52,19.176S327,92.76,315.136,92.76c-11.864,0-21.52-8.6-21.52-19.168
	C293.616,63.016,303.264,54.416,315.136,54.416z M32,51.176C32,40.6,41.648,32,53.512,32s21.52,8.6,21.52,19.176
	s-9.656,19.176-21.52,19.176S32,61.752,32,51.176z M330.48,352c-11.864,0-21.52-8.6-21.52-19.176s9.656-19.176,21.52-19.176
	c11.864,0,21.52,8.608,21.52,19.176C352,343.4,342.352,352,330.48,352z"/>
<g>
</g>
<g>
</g>
<g>
</g>
<g>
</g>
<g>
</g>
<g>
</g>
<g>
</g>
<g>
</g>
<g>
</g>
<g>
</g>
<g>
</g>
<g>
</g>
<g>
</g>
<g>
</g>
<g>
</g>
</svg>
