<?xml version="1.0" encoding="iso-8859-1"?>
<!-- Generator: Adobe Illustrator 19.0.0, SVG Export Plug-In . SVG Version: 6.00 Build 0)  -->
<svg version="1.1" id="Capa_1" xmlns="http://www.w3.org/2000/svg" xmlns:xlink="http://www.w3.org/1999/xlink" x="0px" y="0px"
	 viewBox="0 0 383.994 383.994" style="enable-background:new 0 0 383.994 383.994;" xml:space="preserve">
<path style="fill:#B9D5EA;" d="M284.395,164.634v0.08c-3.44,9.28-7.84,19.12-13.36,29.44c-12,22.32-24.96,38.72-38.08,50.72
	c-61.12,55.68-126.88,15.04-126.88,15.04s47.2,10.56,105.92-98.4c56.72-105.36,26.64-141.12,24.48-143.44
	C238.635,19.114,322.075,61.754,284.395,164.634z"/>
<path style="fill:#EBF3FF;" d="M211.995,161.514c-58.72,108.96-105.92,98.4-105.92,98.4s-0.16-0.16-0.4-0.56
	c-2.24-4.48-14.56-36.32,38.8-135.2c57.92-107.52,91.92-106.16,91.92-106.16s0,0,0.08,0.08
	C238.635,20.394,268.715,56.154,211.995,161.514z"/>
<path style="fill:#38B4C1;" d="M284.395,164.714v155.92c-7.68-1.68-16.24-2.72-25.92-2.72c-9.52,0-18,0.96-25.52,2.64v-75.68
	c13.12-12,26.08-28.4,38.08-50.72C276.555,183.834,280.955,173.994,284.395,164.714z"/>
<path style="fill:#FFDC7B;" d="M335.995,352.554c0,0-1.44,17.44-77.52,17.44s-77.44-17.44-77.44-17.44s14.8-23.84,51.92-32
	c7.52-1.68,16-2.64,25.52-2.64c9.68,0,18.24,1.04,25.92,2.72C321.275,328.794,335.995,352.554,335.995,352.554z"/>
<path style="fill:#141F38;" d="M300.395,306.578V165.274C340.667,50.162,244.403,2.138,243.419,1.658
	c-0.032-0.016-0.056-0.016-0.088-0.032c-0.776-0.376-1.584-0.672-2.408-0.912c-0.072-0.024-0.144-0.056-0.224-0.072
	c-0.8-0.224-1.616-0.368-2.448-0.464c-0.12-0.016-0.232-0.04-0.352-0.048c-0.288-0.024-0.576-0.104-0.864-0.12
	c-10.296-0.32-48.504,6.624-106.64,114.552c-19.36,35.864-30.528,63.752-36.72,85.416l-19.888-38.016
	c5.808-2.408,9.88-8.12,9.88-14.792c0-8.832-7.168-16-16-16H47.995c-5.592,0-10.792,2.928-13.688,7.712
	c-2.896,4.784-3.088,10.744-0.496,15.704L91.243,264.37c0.792,1.608,1.84,3.088,3.104,4.4c0.088,0.096,0.184,0.232,0.264,0.32
	c0.032,0.032,0.08,0.056,0.112,0.088c0.896,0.872,1.848,1.68,2.928,2.352c0.168,0.104,0.376,0.208,0.544,0.312
	c0.048,0.024,0.096,0.056,0.144,0.08c13.288,8.04,35.736,16.216,61.76,16.216c17.896,0,37.456-4.032,56.848-14.48v32.816
	c-34.152,11.6-48.84,34.56-49.512,35.64c-1.8,2.896-2.624,6.288-2.36,9.688c1.672,21.36,33.088,32.192,93.4,32.192
	c60.264,0,91.712-10.808,93.472-32.12c0.28-3.416-0.536-6.832-2.344-9.744C348.931,341.05,334.339,318.186,300.395,306.578z
	 M248.955,249.698c1.152-1.152,2.248-2.48,3.384-3.688c1.496-1.592,2.992-3.184,4.456-4.856c2.056-2.352,4.056-4.832,6.048-7.352
	c1.376-1.744,2.768-3.456,4.112-5.28c0.472-0.64,0.976-1.2,1.44-1.856v73.592c-3.272-0.224-6.584-0.336-9.92-0.336
	c-3.224,0-6.4,0.104-9.512,0.304v-50.528H248.955z M158.555,129.746c33.592-62.352,57.808-85.104,69.976-93.304
	c0.032,0.128,0.072,0.224,0.104,0.36c0.048,0.192,0.088,0.424,0.136,0.624c0.248,1.096,0.48,2.312,0.688,3.6
	c0.056,0.376,0.12,0.752,0.176,1.144c0.224,1.584,0.408,3.28,0.528,5.136c0.008,0.176,0.008,0.384,0.024,0.568
	c0.096,1.68,0.128,3.504,0.112,5.416c-0.008,0.584-0.016,1.184-0.032,1.792c-0.056,1.984-0.168,4.08-0.368,6.304
	c-0.024,0.288-0.032,0.544-0.056,0.832c-0.24,2.472-0.608,5.128-1.048,7.896c-0.12,0.752-0.264,1.544-0.408,2.32
	c-0.416,2.352-0.92,4.824-1.504,7.384c-0.152,0.68-0.288,1.336-0.456,2.032c-0.768,3.184-1.68,6.536-2.728,10.048
	c-0.248,0.824-0.536,1.704-0.8,2.552c-0.912,2.928-1.936,5.976-3.064,9.136c-0.352,1-0.696,1.976-1.072,3
	c-1.48,3.984-3.104,8.112-4.944,12.448c-0.296,0.704-0.648,1.456-0.952,2.168c-1.632,3.768-3.416,7.688-5.344,11.72
	c-0.608,1.28-1.224,2.568-1.864,3.88c-2.384,4.872-4.904,9.864-7.736,15.12c-1.976,3.664-3.92,7.12-5.848,10.488
	c-0.496,0.872-1,1.728-1.496,2.584c-1.76,3.016-3.504,5.944-5.232,8.728c-0.16,0.264-0.328,0.544-0.488,0.808
	c-1.856,2.984-3.68,5.792-5.496,8.52c-0.488,0.736-0.976,1.456-1.456,2.168c-1.584,2.336-3.144,4.592-4.688,6.736
	c-0.24,0.336-0.488,0.696-0.728,1.032c-1.744,2.4-3.456,4.664-5.144,6.832c-0.448,0.576-0.888,1.136-1.336,1.696
	c-1.432,1.808-2.848,3.544-4.24,5.2c-0.28,0.336-0.576,0.696-0.856,1.024c-1.616,1.888-3.192,3.664-4.752,5.352
	c-0.408,0.44-0.8,0.856-1.208,1.28c-1.288,1.376-2.56,2.688-3.808,3.928c-0.304,0.296-0.608,0.624-0.912,0.912
	c-1.48,1.448-2.92,2.792-4.336,4.064c-0.344,0.304-0.672,0.592-1.008,0.888c-1.176,1.04-2.328,2.016-3.456,2.936
	c-0.288,0.232-0.576,0.48-0.856,0.704c-1.328,1.064-2.624,2.048-3.88,2.96c-0.272,0.2-0.536,0.376-0.808,0.576
	c-1.056,0.752-2.088,1.456-3.096,2.104c-0.256,0.168-0.512,0.336-0.76,0.496c-1.168,0.744-2.304,1.424-3.392,2.04
	c-0.2,0.112-0.384,0.208-0.584,0.32c-0.928,0.512-1.824,0.984-2.688,1.408c-0.224,0.112-0.456,0.232-0.68,0.336
	c-0.984,0.472-1.928,0.896-2.824,1.272c-0.144,0.056-0.272,0.104-0.416,0.168c-0.776,0.32-1.52,0.6-2.232,0.848
	c-0.104,0.04-0.208,0.072-0.312,0.112C118.995,225.714,124.603,192.658,158.555,129.746z M155.995,256.146
	c0.52-0.384,1.048-0.808,1.576-1.2c0.576-0.432,1.144-0.864,1.72-1.312c0.712-0.552,1.424-1.144,2.144-1.728
	c0.608-0.496,1.208-0.976,1.824-1.496c0.712-0.6,1.432-1.232,2.152-1.856c0.624-0.544,1.256-1.088,1.888-1.656
	c0.72-0.64,1.44-1.328,2.168-2c0.656-0.616,1.312-1.216,1.976-1.856c0.712-0.68,1.424-1.4,2.144-2.112
	c0.688-0.68,1.368-1.352,2.064-2.056c0.728-0.744,1.472-1.536,2.208-2.312c0.688-0.728,1.376-1.44,2.072-2.192
	c0.744-0.808,1.504-1.672,2.256-2.512c0.704-0.784,1.4-1.56,2.112-2.376c0.736-0.848,1.488-1.752,2.232-2.632
	c0.736-0.872,1.464-1.72,2.2-2.624c0.744-0.904,1.488-1.864,2.232-2.8c0.752-0.944,1.496-1.864,2.256-2.848
	c0.736-0.952,1.488-1.96,2.224-2.952c0.776-1.032,1.552-2.04,2.328-3.104c0.752-1.024,1.512-2.112,2.272-3.176
	c0.776-1.088,1.544-2.152,2.328-3.272c0.776-1.12,1.56-2.304,2.344-3.456c0.776-1.144,1.544-2.256,2.32-3.432
	c0.784-1.192,1.568-2.44,2.36-3.664c0.784-1.224,1.56-2.408,2.352-3.664c0.728-1.16,1.456-2.384,2.184-3.576
	c0.864-1.408,1.72-2.792,2.584-4.248c0.552-0.936,1.112-1.928,1.672-2.88c1.04-1.776,2.072-3.528,3.12-5.376
	c0.136-0.24,0.28-0.504,0.416-0.752c1.456-2.584,2.912-5.208,4.376-7.92l0,0c2.872-5.328,5.472-10.456,7.936-15.472
	c0.432-0.88,0.88-1.776,1.304-2.648c2.288-4.744,4.408-9.344,6.352-13.808c0.4-0.904,0.768-1.792,1.152-2.688
	c1.92-4.488,3.72-8.88,5.312-13.096c0.128-0.328,0.224-0.64,0.352-0.976c1.472-3.944,2.784-7.752,3.992-11.456
	c0.28-0.848,0.568-1.704,0.832-2.536c1.144-3.632,2.152-7.136,3.048-10.536c0.272-1.016,0.52-2.008,0.768-3.008
	c0.792-3.184,1.52-6.296,2.12-9.28c0.192-0.96,0.336-1.864,0.512-2.8c0.416-2.28,0.784-4.488,1.096-6.648
	c0.16-1.128,0.344-2.272,0.472-3.368c0.288-2.368,0.504-4.656,0.672-6.88c0.048-0.584,0.144-1.232,0.176-1.8
	c14,20.336,23.728,51.872,7.184,97.024c-0.04,0.104-0.072,0.208-0.104,0.312c-1.184,3.192-2.592,6.44-3.992,9.688
	c-0.552,1.28-1.008,2.544-1.6,3.832c-2.056,4.52-4.304,9.072-6.736,13.616c-3.264,6.072-6.72,11.656-10.248,17
	c-4.832,7.312-9.856,14.072-15.152,19.984c-1.616,1.808-3.312,3.368-4.968,5.04c-1.464,1.48-2.896,3.08-4.392,4.448
	C199.067,252.106,175.227,257.034,155.995,256.146z M258.475,351.994c-26.808,0-42.792-2.28-52.064-4.56
	c6.728-4.976,16.544-10.304,30.048-13.264c6.672-1.496,14.08-2.256,22.016-2.256c7.912,0,15.272,0.768,22.496,2.344
	c13.296,2.952,23,8.224,29.672,13.16C301.347,349.698,285.339,351.994,258.475,351.994z"/>
<g>
</g>
<g>
</g>
<g>
</g>
<g>
</g>
<g>
</g>
<g>
</g>
<g>
</g>
<g>
</g>
<g>
</g>
<g>
</g>
<g>
</g>
<g>
</g>
<g>
</g>
<g>
</g>
<g>
</g>
</svg>
