<?xml version="1.0" encoding="iso-8859-1"?>
<!-- Generator: Adobe Illustrator 19.0.0, SVG Export Plug-In . SVG Version: 6.00 Build 0)  -->
<svg version="1.1" id="Capa_1" xmlns="http://www.w3.org/2000/svg" xmlns:xlink="http://www.w3.org/1999/xlink" x="0px" y="0px"
	 viewBox="0 0 384 384" style="enable-background:new 0 0 384 384;" xml:space="preserve">
<path style="fill:#EBF3FF;" d="M323.026,153.76c0,63.12-43.28,116.08-101.6,130.24c-10,2.48-20.48,3.76-31.28,3.76
	c-10.24,0-20.24-1.2-29.84-3.44c-59.04-13.6-103.04-66.88-103.04-130.56c0,0,9.76,20.56,50.32,33.84
	c19.6,6.48,46.32,11.28,82.56,11.28c36.32,0,63.04-4.8,82.64-11.28C313.266,174.24,323.026,153.76,323.026,153.76z"/>
<path style="fill:#38B4C1;" d="M323.026,153.76c0,0-9.76,20.48-50.24,33.84c-19.6,6.48-46.32,11.28-82.64,11.28
	c-36.24,0-62.96-4.8-82.56-11.28c-40.56-13.28-50.32-33.84-50.32-33.84s15.2-37.92,132.88-37.92S323.026,153.76,323.026,153.76z"/>
<path style="fill:#FFDC7B;" d="M190.146,369.36c-60.16,0-54.64-27.92-54.64-27.92c0-4.08,0.48-8.08,1.28-12.08
	c3.6-16.96,13.92-33.2,23.52-45.04c9.6,2.24,19.6,3.44,29.84,3.44c10.8,0,21.28-1.28,31.28-3.76c9.44,11.2,19.52,26.72,22.8,45.04
	c0.72,4,1.12,8.16,1.12,12.4C245.346,341.44,249.506,369.36,190.146,369.36z"/>
<path style="fill:#141F38;" d="M256.986,312.4c-2.376-7.424-5.696-14.784-9.992-22.04c54.936-22.704,91.736-76.48,92-137.936
	c0-0.096,0.008-0.192,0.008-0.28c0-0.128,0.016-0.248,0.016-0.384c0-2.072-0.424-4.064-1.144-5.928c0-0.008,0-0.016-0.008-0.024
	c-0.144-0.352-0.336-0.784-0.552-1.248c-0.144-0.296-0.272-0.592-0.432-0.88c-4.776-9.256-24.008-34.248-93.888-42.864
	l-36.848-64.912V16c0-8.832-7.16-16-16-16c-8.832,0-16,7.168-16,16v19.936l-36.832,64.88c-76.264,9.392-92.232,38.312-94.912,44.992
	c-0.032,0.08-0.04,0.168-0.072,0.256c-0.36,0.936-0.648,1.896-0.824,2.896c0,0.016-0.008,0.024-0.008,0.04
	c-0.16,0.904-0.24,1.824-0.24,2.768c0,0.128,0.016,0.248,0.016,0.376c0,0.088,0.008,0.176,0.008,0.264
	c0.256,62.264,37.68,116.304,93.48,138.568c-3.944,6.592-7.568,13.912-10.336,21.744C37.282,323.704,7.37,353.696,4.154,357.216
	c-5.888,6.448-5.424,16.312,0.928,22.312c3.064,2.896,7,4.328,10.928,4.328c4.216,0,8.432-1.64,11.592-4.864
	c0.248-0.256,23.48-23.088,92.072-33.344c0.672,4.928,2.656,11.168,7.728,17.336c11.112,13.52,32.216,20.384,62.736,20.384
	c29.976,0,50.992-6.744,62.448-20.04c5.616-6.52,7.72-13.128,8.448-18.152c70.256,9.888,94.48,32.992,95.296,33.792
	c3.144,3.336,7.4,5.032,11.664,5.032c3.84,0,7.712-1.384,10.776-4.176c6.528-5.96,6.992-16.072,1.04-22.608
	C376.538,353.632,346.082,323.104,256.986,312.4z M301.858,152.184c-0.216,0.192-0.448,0.392-0.672,0.584
	c-0.424,0.368-0.864,0.736-1.336,1.112c-0.36,0.296-0.752,0.6-1.144,0.904c-0.52,0.4-1.056,0.808-1.616,1.216
	c-0.416,0.304-0.856,0.616-1.304,0.92c-0.608,0.424-1.256,0.856-1.92,1.288c-0.48,0.312-0.968,0.624-1.472,0.944
	c-0.712,0.448-1.464,0.896-2.232,1.344c-0.536,0.312-1.064,0.624-1.632,0.936c-0.824,0.464-1.712,0.92-2.6,1.384
	c-0.584,0.304-1.16,0.608-1.776,0.912c-0.968,0.48-2.008,0.96-3.056,1.432c-0.416,0.192-0.824,0.384-1.248,0.576l-16.464-29.008
	C283.866,141.432,295.554,147.584,301.858,152.184z M248.578,175.472c-17.072,3.576-36.608,5.408-58.432,5.408
	c-21.792,0-41.312-1.84-58.4-5.424l25.224-44.424c9.936-0.744,20.904-1.192,33.184-1.192c12.296,0,23.28,0.44,33.208,1.184
	L248.578,175.472z M190.162,72.552l14.48,25.504c-4.688-0.128-9.48-0.216-14.496-0.216c-5.008,0-9.784,0.088-14.464,0.216
	L190.162,72.552z M100.458,165.76c-0.504-0.224-0.984-0.448-1.472-0.664c-0.968-0.44-1.928-0.888-2.832-1.328
	c-0.68-0.336-1.328-0.672-1.976-1.008c-0.824-0.424-1.632-0.856-2.4-1.28c-0.616-0.344-1.216-0.688-1.8-1.024
	c-0.72-0.416-1.416-0.84-2.088-1.256c-0.536-0.336-1.072-0.672-1.584-1.008c-0.632-0.416-1.24-0.824-1.824-1.232
	c-0.464-0.32-0.936-0.64-1.368-0.96c-0.552-0.408-1.064-0.8-1.576-1.192c-0.392-0.296-0.792-0.6-1.152-0.896
	c-0.496-0.4-0.944-0.784-1.392-1.168c-0.256-0.216-0.528-0.448-0.768-0.656c6.176-4.432,17.92-10.624,38.696-15.352L100.458,165.76z
	 M79.962,191.464c0.024,0.016,0.064,0.024,0.088,0.04c2.84,1.456,5.944,2.872,9.2,4.256c0.808,0.344,1.624,0.68,2.456,1.016
	c3.424,1.392,6.984,2.744,10.864,4.016c0.192,0.064,0.4,0.112,0.592,0.176c0.208,0.056,0.408,0.136,0.616,0.184
	c24.04,7.768,53.072,11.72,86.376,11.72c33.384,0,62.464-3.96,86.504-11.736c0.112-0.024,0.224-0.072,0.336-0.096
	c0.264-0.088,0.552-0.16,0.816-0.248c3.872-1.28,7.432-2.64,10.84-4.04c0.808-0.328,1.6-0.656,2.384-0.992
	c3.264-1.4,6.384-2.824,9.232-4.288c0.008-0.008,0.024-0.008,0.032-0.016c-12.904,36.728-43.368,65.448-82.72,75
	c-12.256,3.04-25.424,3.912-38.456,2.664c-5.104-0.488-10.2-1.232-15.216-2.4C123.906,257.512,92.962,228.664,79.962,191.464z
	 M190.146,351.36c-30.608,0-38.296-7.792-38.752-10.016c0.072-0.632,0.112-1.264,0.112-1.904c0-2.752,0.32-5.672,0.936-8.76
	c1.992-9.368,7.088-20.056,14.6-30.744c0.56,0.088,1.136,0.112,1.696,0.2c2.912,0.432,5.824,0.768,8.752,1.024
	c0.832,0.072,1.656,0.16,2.488,0.216c3.392,0.24,6.784,0.392,10.176,0.392c0.216,0,0.424-0.016,0.64-0.016
	c0.552,0,1.104-0.04,1.656-0.048c3.064-0.048,6.12-0.192,9.152-0.424c1.088-0.088,2.176-0.184,3.256-0.296
	c2.76-0.272,5.488-0.624,8.2-1.048c0.624-0.096,1.256-0.136,1.872-0.24c7.216,10.112,11.768,20.224,13.544,30.176
	c0.576,3.192,0.864,6.416,0.864,9.568c0,0.4,0.016,0.8,0.048,1.192C228.89,343.128,221.266,351.36,190.146,351.36z"/>
<g>
</g>
<g>
</g>
<g>
</g>
<g>
</g>
<g>
</g>
<g>
</g>
<g>
</g>
<g>
</g>
<g>
</g>
<g>
</g>
<g>
</g>
<g>
</g>
<g>
</g>
<g>
</g>
<g>
</g>
</svg>
