<?xml version="1.0" encoding="iso-8859-1"?>
<!-- Generator: Adobe Illustrator 19.0.0, SVG Export Plug-In . SVG Version: 6.00 Build 0)  -->
<svg version="1.1" id="Capa_1" xmlns="http://www.w3.org/2000/svg" xmlns:xlink="http://www.w3.org/1999/xlink" x="0px" y="0px"
	 viewBox="0 0 383.996 383.996" style="enable-background:new 0 0 383.996 383.996;" xml:space="preserve">
<ellipse style="fill:#38B4C1;" cx="191.991" cy="193.967" rx="35.64" ry="35.64"/>
<polygon style="fill:#FFDC7B;" points="167.118,118.713 141.918,143.913 116.718,169.113 66.398,118.793 116.798,68.393 "/>
<g>
	
		<rect x="30.788" y="32.78" transform="matrix(-0.7071 0.7071 -0.7071 -0.7071 161.7798 69.8276)" style="fill:#EDC45F;" width="71.279" height="71.279"/>
	
		<rect x="282.483" y="285.332" transform="matrix(-0.7071 0.7071 -0.7071 -0.7071 769.4702 321.6339)" style="fill:#EDC45F;" width="71.279" height="69.695"/>
</g>
<polygon style="fill:#FFDC7B;" points="318.718,270.313 268.318,320.713 216.878,269.273 242.078,244.073 267.278,218.873 "/>
<g>
	<path style="fill:#141F38;" d="M276.478,107.497L276.478,107.497L276.478,107.497C276.47,107.489,276.47,107.489,276.478,107.497
		c-11.384-11.384-27.088-17.384-43.2-16.456c-8.824,0.504-15.56,8.072-15.048,16.896c0.504,8.816,7.96,15.512,16.896,15.048
		c6.952-0.352,13.792,2.2,18.72,7.136l0,0l0,0c5,5,7.536,11.656,7.136,18.744c-0.496,8.824,6.256,16.376,15.08,16.872
		c0.312,0.016,0.608,0.024,0.912,0.024c8.424,0,15.48-6.584,15.96-15.104C293.838,134.593,287.838,118.857,276.478,107.497
		L276.478,107.497z"/>
	<path style="fill:#141F38;" d="M328.142,173.321c0.768,0.112,1.52,0.168,2.272,0.168c7.832,0,14.68-5.768,15.824-13.752
		c0.264-1.832,5.904-45.296-35.376-86.592c-0.024-0.032-0.064-0.048-0.088-0.072c-41.272-41.248-84.696-35.592-86.52-35.32
		c-8.744,1.256-14.824,9.36-13.576,18.104c1.256,8.752,9.368,14.84,18.104,13.576c0.304-0.04,29.792-3.312,59.424,26.328
		c0.008,0.008,0.016,0.008,0.024,0.016c29.296,29.304,26.488,58.048,26.304,59.608C313.382,164.073,319.438,172.081,328.142,173.321
		z"/>
	<path style="fill:#141F38;" d="M330.03,257.001l-51.44-51.44c-6.24-6.248-16.376-6.248-22.624,0l-13.888,13.888l-4.056-4.056
		c3.648-7.168,5.616-15.12,5.616-23.392c0-13.792-5.368-26.76-15.128-36.512c-9.752-9.76-22.72-15.128-36.512-15.128
		c-8.272,0-16.232,1.968-23.392,5.616l-4.056-4.056l13.888-13.888c6.248-6.248,6.248-16.376-0.008-22.624l-49.944-49.944
		c-0.272-0.288-0.544-0.568-0.832-0.832L77.71,4.689c-6.248-6.248-16.384-6.248-22.624,0l-50.4,50.4
		c-6.248,6.248-6.248,16.376,0,22.624l50.4,50.4l50.32,50.32c3.128,3.128,7.216,4.688,11.312,4.688s8.192-1.56,11.312-4.68
		l13.888-13.888l4.056,4.056c-3.648,7.16-5.616,15.12-5.616,23.392c0,13.792,5.368,26.76,15.128,36.512
		c9.752,9.76,22.72,15.128,36.52,15.128c8.272,0,16.232-1.968,23.392-5.616l4.056,4.056l-13.888,13.888
		c-6.248,6.248-6.248,16.376,0,22.624l51.44,51.44l49.28,49.28c3.12,3.12,7.216,4.68,11.312,4.68s8.192-1.56,11.312-4.688l50.4-50.4
		c6.248-6.248,6.248-16.376,0-22.624L330.03,257.001z M66.398,38.625l27.776,27.768L66.398,94.161L38.63,66.393L66.398,38.625z
		 M89.022,116.793l27.776-27.776l27.696,27.688l-27.776,27.776L89.022,116.793z M178.11,205.881
		c-3.712-3.712-5.752-8.648-5.752-13.888c0-5.248,2.04-10.176,5.76-13.888c3.704-3.712,8.64-5.752,13.88-5.752
		c5.24,0,10.176,2.04,13.888,5.76c3.712,3.704,5.752,8.64,5.752,13.88c0,5.24-2.04,10.176-5.752,13.888l0,0
		C198.47,213.305,185.534,213.305,178.11,205.881z M267.278,239.497l28.808,28.816l-27.768,27.768l-28.816-28.816L267.278,239.497z
		 M317.598,345.361l-26.656-26.656l27.768-27.768l26.656,26.656L317.598,345.361z"/>
</g>
<g>
</g>
<g>
</g>
<g>
</g>
<g>
</g>
<g>
</g>
<g>
</g>
<g>
</g>
<g>
</g>
<g>
</g>
<g>
</g>
<g>
</g>
<g>
</g>
<g>
</g>
<g>
</g>
<g>
</g>
</svg>
