<?xml version="1.0" encoding="iso-8859-1"?>
<!-- Generator: Adobe Illustrator 19.0.0, SVG Export Plug-In . SVG Version: 6.00 Build 0)  -->
<svg version="1.1" id="Capa_1" xmlns="http://www.w3.org/2000/svg" xmlns:xlink="http://www.w3.org/1999/xlink" x="0px" y="0px"
	 viewBox="0 0 384.013 384.013" style="enable-background:new 0 0 384.013 384.013;" xml:space="preserve">
<circle style="fill:#EBF3FF;" cx="192.007" cy="74.006" r="56"/>
<path style="fill:#141F38;" d="M8.023,382.798c1.824,0.824,3.736,1.208,5.616,1.208c5.192,0,10.152-2.984,12.44-8.024
	l114.664-253.504c5.296,5.376,11.44,9.896,18.192,13.408L91.255,314.03c-2.68,7.04,0.856,14.92,7.904,17.6
	c1.592,0.608,3.232,0.888,4.848,0.888c5.496,0,10.68-3.352,12.752-8.8l68.408-180.064c2.256,0.216,4.528,0.352,6.84,0.352
	c2.312,0,4.584-0.136,6.84-0.344l68.408,180.064c2.072,5.448,7.248,8.8,12.752,8.8c1.608,0,3.248-0.288,4.84-0.888
	c7.048-2.68,10.584-10.552,7.904-17.6l-67.68-178.144c6.768-3.512,12.912-8.048,18.216-13.432L357.935,375.99
	c2.28,5.04,7.24,8.016,12.44,8.016c1.88,0,3.792-0.392,5.616-1.216c6.856-3.104,9.912-11.184,6.808-18.048L260.463,94.214
	c0.536-1.64,0.968-3.328,1.384-5.016h2.16c8.832,0,16-7.16,16-16c0-8.832-7.168-16-16-16h-1.544
	c-6.848-32.616-35.832-57.192-70.456-57.192s-63.608,24.576-70.456,57.192h-1.544c-8.84,0-16,7.16-16,16s7.16,16,16,16h2.16
	c0.424,1.704,0.856,3.4,1.4,5.064L1.215,364.742C-1.889,371.606,1.159,379.686,8.023,382.798z M156.047,89.198h71.92
	c-6.456,13.44-20.08,22.808-35.96,22.808S162.503,102.638,156.047,89.198z M192.007,32.006c16.816,0,31.176,10.464,37.08,25.192
	h-74.168C160.831,42.47,175.191,32.006,192.007,32.006z"/>
<g>
</g>
<g>
</g>
<g>
</g>
<g>
</g>
<g>
</g>
<g>
</g>
<g>
</g>
<g>
</g>
<g>
</g>
<g>
</g>
<g>
</g>
<g>
</g>
<g>
</g>
<g>
</g>
<g>
</g>
</svg>
