<?xml version="1.0" encoding="iso-8859-1"?>
<!-- Generator: Adobe Illustrator 19.0.0, SVG Export Plug-In . SVG Version: 6.00 Build 0)  -->
<svg version="1.1" id="Capa_1" xmlns="http://www.w3.org/2000/svg" xmlns:xlink="http://www.w3.org/1999/xlink" x="0px" y="0px"
	 viewBox="0 0 384 384" style="enable-background:new 0 0 384 384;" xml:space="preserve">
<polygon style="fill:#FFDC7B;" points="288.48,303.52 288.48,303.6 95.2,303.6 95.2,303.52 192.72,244 192.8,244 "/>
<g>
	<polygon style="fill:#38B4C1;" points="288.48,303.52 192.8,244 250.88,208.48 	"/>
	<polygon style="fill:#38B4C1;" points="192.72,244 95.2,303.52 132.96,206.72 	"/>
</g>
<polygon style="fill:#FFDC7B;" points="250.88,208.48 192.8,244 192.72,244 132.96,206.72 133.2,206.24 143.28,183.6 240.72,183.6 
	"/>
<path style="fill:#141F38;" d="M368,352h-42.328l-22.184-56.112v-0.008L209.672,58.64C218.296,52.896,224,43.112,224,32
	c0-17.648-14.352-32-32-32s-32,14.352-32,32c0,10.584,5.232,19.92,13.176,25.752L58.312,352H16c-8.84,0-16,7.168-16,16
	s7.16,16,16,16h352c8.832,0,16-7.168,16-16S376.832,352,368,352z M230.216,197.6l0.872,2.216l-38.24,23.368l-40.136-24.992
	l0.232-0.592H230.216z M165.432,165.6l25.896-66.336L217.56,165.6H165.432z M140.872,228.512l21.424,13.344l-34.968,21.368
	L140.872,228.512z M192.688,260.784l39.904,24.848h-80.576L192.688,260.784z M223.24,242.112l19.792-12.096l12.808,32.392
	L223.24,242.112z M106.08,317.632h171.592L291.264,352h-198.6L106.08,317.632z"/>
<g>
</g>
<g>
</g>
<g>
</g>
<g>
</g>
<g>
</g>
<g>
</g>
<g>
</g>
<g>
</g>
<g>
</g>
<g>
</g>
<g>
</g>
<g>
</g>
<g>
</g>
<g>
</g>
<g>
</g>
</svg>
