<?xml version="1.0" encoding="iso-8859-1"?>
<!-- Generator: Adobe Illustrator 19.0.0, SVG Export Plug-In . SVG Version: 6.00 Build 0)  -->
<svg version="1.1" id="Capa_1" xmlns="http://www.w3.org/2000/svg" xmlns:xlink="http://www.w3.org/1999/xlink" x="0px" y="0px"
	 viewBox="0 0 384 384" style="enable-background:new 0 0 384 384;" xml:space="preserve">
<path style="fill:#38B4C1;" d="M259.12,76.96c0,24.16-12.64,45.36-31.68,57.2c-10.32,6.48-22.48,10.16-35.44,10.16
	c-13.04,0-25.2-3.68-35.52-10.16c-19.04-11.92-31.68-33.04-31.68-57.2c0,0,17.2-17.76,67.2-17.76S259.12,76.96,259.12,76.96z"/>
<path style="fill:#EBF3FF;" d="M227.44,224.08V334.4c0,19.68-15.92,35.6-35.52,35.6s-35.44-15.92-35.44-35.6V224.08
	c0,19.68,15.84,26.8,35.44,26.8S227.44,243.76,227.44,224.08z"/>
<path style="fill:#B9D5EA;" d="M227.44,134.16v89.92c0,19.68-15.92,26.8-35.52,26.8s-35.44-7.12-35.44-26.8v-89.92
	c10.32,6.48,22.48,10.16,35.52,10.16C204.96,144.32,217.12,140.64,227.44,134.16z"/>
<rect x="280" y="180.88" style="fill:#FFDC7B;" width="88" height="60.96"/>
<rect x="280" y="241.84" style="fill:#EDC45F;" width="88" height="61.04"/>
<rect x="16" y="180.88" style="fill:#FFDC7B;" width="88" height="60.96"/>
<rect x="16" y="241.84" style="fill:#EDC45F;" width="88" height="61.04"/>
<path style="fill:#141F38;" d="M368,162.88h-88c-8.84,0-16,7.168-16,16v44.96h-20.56v-1.76v-81.72
	c19.952-15.688,31.68-39.488,31.68-65.4c0-4.144-1.608-8.12-4.48-11.104c-2-2.08-19.336-18.592-62.648-22l-0.016-25.864
	C207.968,7.152,200.808,0,191.976,0h-0.008c-8.832,0.008-16,7.176-15.992,16.016l0.016,25.848
	c-43.296,3.408-60.672,19.896-62.688,21.976c-2.888,2.984-4.504,6.976-4.504,11.128c0,25.832,11.728,49.624,31.68,65.376v81.736
	v1.76H120v-44.96c0-8.832-7.168-16-16-16H16c-8.84,0-16,7.168-16,16v60.96v61.04c0,8.832,7.16,16,16,16h88c8.832,0,16-7.168,16-16
	v-45.04h20.48v76.56c0,28.456,23.08,51.6,51.44,51.6c28.408,0,51.52-23.152,51.52-51.6v-76.56H264v45.04c0,8.832,7.16,16,16,16h88
	c8.832,0,16-7.168,16-16v-61.04v-60.96C384,170.04,376.832,162.88,368,162.88z M32,194.88h56v28.96H32V194.88z M88,284.88H32v-29.04
	h56V284.88z M172.48,156.016c1.68,0.4,3.416,0.616,5.128,0.912c1.208,0.208,2.4,0.488,3.624,0.648
	c3.168,0.408,6.352,0.616,9.552,0.664c0.408,0,0.808,0.08,1.216,0.08c0.528,0,1.048-0.104,1.576-0.112
	c3.056-0.056,6.096-0.248,9.12-0.64c1.272-0.168,2.512-0.448,3.768-0.672c1.664-0.288,3.344-0.488,4.984-0.888v66.056
	c0,3.504,0,10.8-19.52,10.8c-19.44,0-19.44-7.296-19.44-10.8v-66.048H172.48z M192,73.2c27.368,0,43.064,5.824,50.512,9.736
	c-2.256,14.696-10.704,27.664-23.584,35.672c-12.088,7.584-27.376,9.448-41.024,5.664c-4.552-1.264-8.92-3.152-12.936-5.672
	c-12.84-8.04-21.296-21-23.56-35.648C148.896,79.024,164.616,73.2,192,73.2z M211.44,332.4c0,10.808-8.76,19.6-19.52,19.6
	c-10.72,0-19.44-8.792-19.44-19.6v-69.856c0.072,0.016,0.168,0.024,0.24,0.048c2.464,0.648,5.128,1.136,7.92,1.512
	c0.656,0.088,1.328,0.16,2,0.232c2.936,0.32,5.976,0.544,9.272,0.544c3.304,0,6.36-0.224,9.304-0.544
	c0.68-0.072,1.352-0.144,2.016-0.232c2.792-0.384,5.456-0.864,7.928-1.512c0.088-0.024,0.192-0.032,0.272-0.056V332.4H211.44z
	 M296,194.88h56v28.96h-56V194.88z M352,284.88h-56v-29.04h56V284.88z"/>
<g>
</g>
<g>
</g>
<g>
</g>
<g>
</g>
<g>
</g>
<g>
</g>
<g>
</g>
<g>
</g>
<g>
</g>
<g>
</g>
<g>
</g>
<g>
</g>
<g>
</g>
<g>
</g>
<g>
</g>
</svg>
