<?xml version="1.0" encoding="iso-8859-1"?>
<!-- Generator: Adobe Illustrator 19.0.0, SVG Export Plug-In . SVG Version: 6.00 Build 0)  -->
<svg version="1.1" id="Capa_1" xmlns="http://www.w3.org/2000/svg" xmlns:xlink="http://www.w3.org/1999/xlink" x="0px" y="0px"
	 viewBox="0 0 384.059 384.059" style="enable-background:new 0 0 384.059 384.059;" xml:space="preserve">
<path style="fill:#FFDC7B;" d="M248.759,62.828c0,0-9.92,21.84-56.72,21.84c-46.88,0-56.72-21.84-56.72-21.84
	c14.24-15.44,32.72-30.72,56.72-44.8C216.039,32.108,234.519,47.388,248.759,62.828z"/>
<path style="fill:#EBF3FF;" d="M295.319,170.588c-0.72-23.52-8.24-66.24-46.56-107.76c0,0-9.92,21.84-56.72,21.84
	c-46.88,0-56.72-21.84-56.72-21.84c-38.32,41.52-45.84,84.24-46.56,107.76c-0.48,11.44,0.72,18.32,0.72,18.32s3.68,40.88,15.04,66
	c4.88,11.04,11.36,19.04,19.52,19.2h136c8.56-0.24,15.2-8.96,20.24-20.72c10.72-25.28,14.32-64.48,14.32-64.48
	S295.799,182.028,295.319,170.588z M192.039,218.028c-22.08,0-40-17.92-40-40s17.92-40,40-40s40,17.92,40,40
	S214.119,218.028,192.039,218.028z"/>
<g>
	<path style="fill:#B9D5EA;" d="M104.519,254.908l-71.44,58.32c-36.72-30.72-2.72-93.68-2.72-93.68s21.6-48.64,58.4-48.96
		c-0.48,11.44,0.72,18.32,0.72,18.32S93.159,229.788,104.519,254.908z"/>
	<path style="fill:#B9D5EA;" d="M350.999,313.228l-70.72-59.84c10.72-25.28,14.32-64.48,14.32-64.48s1.2-6.88,0.72-18.32
		c36.8,0.32,58.4,48.96,58.4,48.96S387.719,282.508,350.999,313.228z"/>
</g>
<path style="fill:#FFDC7B;" d="M240.679,295.868c0,12.4-6.64,23.44-17.04,30.88c0,0-3.04,32.48-31.6,43.28
	c-28.56-10.8-31.6-43.28-31.6-43.28c-10.4-7.44-17.04-18.48-17.04-30.88c0-4.72,0.96-9.2,2.64-13.44l5.92-8.32h80.16l5.92,8.32
	C239.719,286.668,240.679,291.148,240.679,295.868z"/>
<circle style="fill:#38B4C1;" cx="192.039" cy="178.028" r="40"/>
<g>
	<path style="fill:#141F38;" d="M310.287,154.708c-3.056-26.208-14.08-66.056-49.776-104.728c-0.008-0.016-0.024-0.016-0.032-0.032
		c-16.44-17.816-36.736-33.872-60.352-47.72c-5-2.928-11.184-2.928-16.184,0c-23.608,13.848-43.912,29.904-60.352,47.72
		c-0.008,0.008-0.024,0.016-0.032,0.032C87.863,88.652,76.847,128.5,73.783,154.708c-35.304,9.672-55.176,50.12-57.792,55.768
		c-3.808,7.272-37.848,75.656,6.816,113.024c2.968,2.48,6.616,3.728,10.264,3.728c3.584,0,7.168-1.2,10.12-3.608l57.56-46.992
		c7.992,8.792,16.488,11.352,23.28,11.48h3.72c-0.216,1.92-0.368,3.84-0.368,5.76c0,14.96,6.616,29.072,18.36,39.592
		c2.92,12.752,12.232,38.8,40.624,49.528c1.832,0.696,3.76,1.04,5.672,1.04c1.912,0,3.832-0.344,5.656-1.032
		c28.392-10.736,37.704-36.776,40.624-49.528c11.744-10.52,18.36-24.632,18.36-39.592c0-1.928-0.144-3.848-0.368-5.768h4.168
		c9.072-0.248,17.024-4.408,23.792-12.368l56.384,47.712c2.984,2.52,6.656,3.784,10.336,3.784c3.648,0,7.296-1.24,10.264-3.728
		c44.664-37.368,10.616-105.752,6.816-113.024C365.463,204.828,345.591,164.38,310.287,154.708z M192.039,34.764
		c12.464,7.896,23.72,16.48,33.664,25.64c-6.36,3.128-16.92,6.264-33.664,6.264c-16.72,0-27.224-3.112-33.608-6.312
		C168.359,51.212,179.599,42.652,192.039,34.764z M35.495,288.596c-11.136-24.432,8.72-63.024,8.944-63.448
		c0.184-0.336,0.368-0.72,0.528-1.072c3.688-8.184,14.44-26.2,28.664-34.776c0.568,5.728,3.712,34.48,11.784,58.544L35.495,288.596z
		 M214.335,311.732c-3.704,2.648-6.12,6.88-6.616,11.4c-0.088,0.824-2.168,18.248-15.68,27.064
		c-13.52-8.816-15.592-26.224-15.672-26.944c-0.432-4.616-2.848-8.824-6.624-11.52c-3.856-2.76-10.344-8.76-10.344-17.864
		c0-1.92,0.288-3.816,0.888-5.76h63.496c0.6,1.944,0.888,3.84,0.888,5.76C224.679,302.972,218.191,308.972,214.335,311.732z
		 M258.815,256.108h-26.696h-80.16h-26.752c-1.056-0.888-3.4-3.648-6.064-9.672c-0.008-0.024-0.032-0.048-0.04-0.072
		c-0.008-0.016-0.008-0.04-0.016-0.056c-10.088-22.304-13.648-60.464-13.68-60.848c-0.04-0.368-0.104-0.84-0.16-1.2
		c-0.008-0.056-0.896-5.712-0.512-15.016c0-0.024-0.008-0.056-0.008-0.08c0-0.032,0.008-0.064,0.016-0.096
		c0.544-17.696,5.64-50.592,31.648-84.632c10.72,7.336,28.096,14.232,55.648,14.232c27.528,0,44.912-6.896,55.632-14.24
		c26.008,34.048,31.112,66.944,31.656,84.648c0,0.032,0.008,0.064,0.016,0.096c0,0.024-0.008,0.056-0.008,0.08
		c0.384,9.264-0.504,14.92-0.504,14.92c-0.072,0.424-0.128,0.848-0.168,1.272c-0.944,10.208-5.12,40.816-13.112,59.672
		C262.295,252.732,259.719,255.364,258.815,256.108z M348.703,288.332l-49.544-41.928c7.664-23.776,10.736-51.56,11.288-57.096
		c14.224,8.576,24.976,26.576,28.648,34.736c0.168,0.36,0.344,0.736,0.528,1.08C339.855,225.564,359.567,263.876,348.703,288.332z"
		/>
	<path style="fill:#141F38;" d="M192.039,120.028c-30.872,0-56,25.12-56,56s25.128,56,56,56s56-25.12,56-56
		S222.911,120.028,192.039,120.028z M192.039,200.028c-13.232,0-24-10.768-24-24s10.768-24,24-24s24,10.768,24,24
		S205.271,200.028,192.039,200.028z"/>
</g>
<g>
</g>
<g>
</g>
<g>
</g>
<g>
</g>
<g>
</g>
<g>
</g>
<g>
</g>
<g>
</g>
<g>
</g>
<g>
</g>
<g>
</g>
<g>
</g>
<g>
</g>
<g>
</g>
<g>
</g>
</svg>
