<?xml version="1.0" encoding="iso-8859-1"?>
<!-- Generator: Adobe Illustrator 19.0.0, SVG Export Plug-In . SVG Version: 6.00 Build 0)  -->
<svg version="1.1" id="Capa_1" xmlns="http://www.w3.org/2000/svg" xmlns:xlink="http://www.w3.org/1999/xlink" x="0px" y="0px"
	 viewBox="0 0 384.118 384.118" style="enable-background:new 0 0 384.118 384.118;" xml:space="preserve">
<ellipse style="fill:#FFDC7B;" cx="192.059" cy="227.427" rx="144.64" ry="142.64"/>
<g>
	<path style="fill:#141F38;" d="M352.699,225.435c0-14.024-2.032-27.552-5.504-40.512c20.552-24.128,33.36-45.976,36.2-63.136
		c2.248-13.576-1.784-22.632-5.56-27.832c-14.264-19.648-46.784-19.784-96.696-0.456c-25.512-16.856-56.144-26.728-89.072-26.728
		c-32.936,0-63.568,9.872-89.08,26.728c-49.904-19.328-82.44-19.2-96.696,0.448c-3.784,5.2-7.816,14.256-5.56,27.832
		c2.84,17.152,15.648,39.008,36.2,63.136c-3.472,12.96-5.512,26.488-5.512,40.512c0,14.048,2.04,27.608,5.528,40.592
		C2.251,306.523-8.101,337.075,6.283,356.875c7.488,10.304,19.808,14.632,35.144,14.624c17.408,0,38.72-5.632,61.24-14.36
		c25.576,16.984,56.336,26.92,89.4,26.92s63.808-9.928,89.384-26.904c22.52,8.736,43.832,14.368,61.24,14.368
		c15.336,0,27.656-4.328,35.144-14.632c14.384-19.8,4.032-50.36-30.664-90.872C350.659,253.043,352.699,239.483,352.699,225.435z
		 M276.491,320.739c-16.04-7.032-34.272-16.224-54.608-28.144c4.352-2.928,8.56-5.808,12.464-8.56
		c33.12-23.384,62.176-47.424,85.744-70.392c0.368,3.888,0.608,7.816,0.608,11.8C320.699,263.443,303.515,297.507,276.491,320.739z
		 M351.875,112.659c1.928,4.424-3.416,18-18.288,37.848c-6.576-12.072-14.784-23.104-24.176-33.056
		C338.355,108.387,350.203,111.123,351.875,112.659z M310.939,177.163c-21.64,23.072-52.536,50.712-95.04,80.728
		c-8.2,5.792-16.088,11.088-23.832,16.152c-7.744-5.064-15.64-10.368-23.84-16.152c-42.504-30.016-73.4-57.648-95.048-80.712
		c19.32-45.96,65.312-78.392,118.888-78.392C245.635,98.779,291.619,131.211,310.939,177.163z M63.419,225.435
		c0-3.984,0.24-7.912,0.608-11.8c23.568,22.968,52.624,47.008,85.744,70.392c3.896,2.752,8.112,5.632,12.464,8.56
		c-20.336,11.92-38.56,21.112-54.6,28.152C80.603,297.515,63.419,263.451,63.419,225.435z M32.123,112.827
		c1.776-1.672,13.648-4.432,42.584,4.632c-9.4,9.952-17.616,21.008-24.192,33.088C35.619,130.715,30.243,117.171,32.123,112.827z
		 M32.227,338.171c-0.96-2.192,0.392-14.12,18.24-37.936c6.576,12.096,14.792,23.16,24.2,33.12
		C50.539,340.939,35.731,341.467,32.227,338.171z M192.067,352.059c-18.768,0-36.552-4.064-52.64-11.208
		c18.096-8.96,36.056-19.064,52.64-29.16c16.584,10.096,34.536,20.2,52.64,29.16C228.611,347.995,210.827,352.059,192.067,352.059z
		 M351.995,338.011c-3.528,3.368-18.368,2.888-42.52-4.68c9.392-9.96,17.6-21.016,24.176-33.104
		C351.507,324.051,352.867,335.947,351.995,338.011z"/>
	<path style="fill:#141F38;" d="M261.643,15.675c-21.816-10.36-45.232-15.616-69.584-15.616c-0.056,0-0.112,0.016-0.176,0.016
		c-0.056,0-0.112-0.016-0.168-0.016c-24.36,0-47.776,5.256-69.592,15.616c-7.976,3.792-11.376,13.336-7.584,21.32
		c2.744,5.768,8.48,9.144,14.464,9.144c2.304,0,4.64-0.504,6.856-1.552c17.488-8.32,36.28-12.528,55.856-12.528
		c0.056,0,0.112-0.016,0.168-0.016c0.064,0,0.12,0.016,0.176,0.016c19.568,0,38.36,4.208,55.864,12.52
		c2.208,1.048,4.544,1.552,6.848,1.552c5.984,0,11.728-3.376,14.464-9.144C273.027,29.003,269.627,19.459,261.643,15.675z"/>
</g>
<g>
</g>
<g>
</g>
<g>
</g>
<g>
</g>
<g>
</g>
<g>
</g>
<g>
</g>
<g>
</g>
<g>
</g>
<g>
</g>
<g>
</g>
<g>
</g>
<g>
</g>
<g>
</g>
<g>
</g>
</svg>
