<?xml version="1.0" encoding="iso-8859-1"?>
<!-- Generator: Adobe Illustrator 19.0.0, SVG Export Plug-In . SVG Version: 6.00 Build 0)  -->
<svg version="1.1" id="Capa_1" xmlns="http://www.w3.org/2000/svg" xmlns:xlink="http://www.w3.org/1999/xlink" x="0px" y="0px"
	 viewBox="0 0 384 384" style="enable-background:new 0 0 384 384;" xml:space="preserve">
<polygon style="fill:#B9D5EA;" points="295.92,277.84 295.92,370 48,370 48,277.84 104.32,277.84 104.32,322.32 238.88,322.32 
	238.88,277.84 "/>
<polygon style="fill:#EBF3FF;" points="295.92,185.2 295.92,277.84 238.88,277.84 238.88,233.36 104.32,233.36 104.32,277.84 
	48,277.84 48,185.2 "/>
<g>
	<rect x="295.92" y="305.6" style="fill:#FFDC7B;" width="55.44" height="64.4"/>
	<rect x="104.32" y="233.36" style="fill:#FFDC7B;" width="134.56" height="88.96"/>
</g>
<path style="fill:#EBF3FF;" d="M171.84,18.08C34.64,19.92,48,138.32,48,138.32h247.6C295.6,138.32,308.96,20,171.84,18.08z
	 M172,127.92c-27.44,0-49.68-22.24-49.68-49.76c0-27.44,22.24-49.76,49.68-49.76s49.68,22.32,49.68,49.76
	C221.68,105.68,199.44,127.92,172,127.92z"/>
<path style="fill:#38B4C1;" d="M221.68,78.16c0,27.52-22.24,49.76-49.68,49.76s-49.68-22.24-49.68-49.76
	c0-27.44,22.24-49.76,49.68-49.76S221.68,50.72,221.68,78.16z"/>
<g>
	<path style="fill:#141F38;" d="M368,352h-0.64v-48.4c0-8.832-7.168-16-16-16h-39.44v-11.368c0-0.136,0.04-0.256,0.04-0.392
		c0-0.128-0.032-0.256-0.04-0.384V183.2c0-8.832-7.168-16-16-16H48c-8.84,0-16,7.168-16,16v92.64V352H16c-8.84,0-16,7.168-16,16
		s7.16,16,16,16h32h247.92h55.44H368c8.832,0,16-7.168,16-16S376.832,352,368,352z M64,199.2h215.92v60.64h-25.04v-28.48
		c0-8.832-7.168-16-16-16H104.32c-8.84,0-16,7.168-16,16v28.48H64V199.2z M120.32,275.84v-28.48h102.56v28.48v28.48H120.32V275.84z
		 M64,291.84h24.32v28.48c0,8.832,7.16,16,16,16h134.56c8.832,0,16-7.168,16-16v-28.48h25.04v11.76V352H64V291.84z M311.92,319.6
		h23.44V352h-23.44V319.6z"/>
	<path style="fill:#141F38;" d="M281.36,42.16C258.112,16.136,223.472,2.208,178.568,0.368C177.48,0.136,176.36,0,175.2,0
		s-2.232,0.112-3.384,0.12C170.664,0.112,169.592,0,168.432,0c-1.16,0-2.28,0.136-3.368,0.368
		C120.16,2.208,85.528,16.136,62.272,42.16c-35.976,40.264-30.4,93.72-30.144,95.976c0.032,0.256,0.112,0.488,0.152,0.736
		c0.08,0.488,0.176,0.96,0.296,1.432c0.136,0.536,0.296,1.056,0.488,1.56c0.16,0.432,0.336,0.856,0.528,1.28
		c0.24,0.504,0.504,0.992,0.792,1.464c0.232,0.376,0.456,0.744,0.712,1.096c0.328,0.456,0.696,0.88,1.064,1.296
		c0.288,0.328,0.576,0.648,0.896,0.944c0.4,0.384,0.84,0.72,1.28,1.056c0.352,0.264,0.688,0.544,1.056,0.784
		c0.472,0.304,0.984,0.552,1.488,0.808c0.384,0.192,0.752,0.408,1.152,0.568c0.6,0.24,1.224,0.408,1.856,0.576
		c0.344,0.096,0.672,0.224,1.032,0.296c1,0.2,2.032,0.312,3.08,0.312c0.008,0,0.008,0,0.008,0h0.008h247.92c8.832,0,16-7.168,16-16
		c0-0.584-0.112-1.144-0.176-1.72C312.504,121.856,312.552,77.072,281.36,42.16z M279.648,120.336h-59.16
		c10.624-11.688,17.16-27.16,17.16-44.168c0-12.096-3.336-23.408-9.048-33.152c11.384,5.048,21.04,11.736,28.696,20.248
		C274.136,81.96,278.616,105.528,279.648,120.336z M171.984,42.408c18.56,0,33.664,15.144,33.664,33.76
		s-15.104,33.768-33.664,33.768S138.32,94.784,138.32,76.168S153.424,42.408,171.984,42.408z M115.488,42.832
		c-5.784,9.792-9.16,21.16-9.16,33.336c0,17.008,6.536,32.48,17.16,44.168H63.904c0.976-14.672,5.4-38.016,22.232-56.856
		C93.928,54.76,103.808,47.936,115.488,42.832z"/>
</g>
<g>
</g>
<g>
</g>
<g>
</g>
<g>
</g>
<g>
</g>
<g>
</g>
<g>
</g>
<g>
</g>
<g>
</g>
<g>
</g>
<g>
</g>
<g>
</g>
<g>
</g>
<g>
</g>
<g>
</g>
</svg>
