<?xml version="1.0" encoding="iso-8859-1"?>
<!-- Generator: Adobe Illustrator 19.0.0, SVG Export Plug-In . SVG Version: 6.00 Build 0)  -->
<svg version="1.1" id="Capa_1" xmlns="http://www.w3.org/2000/svg" xmlns:xlink="http://www.w3.org/1999/xlink" x="0px" y="0px"
	 viewBox="0 0 384 384" style="enable-background:new 0 0 384 384;" xml:space="preserve">
<ellipse transform="matrix(-0.7071 -0.7071 0.7071 -0.7071 190.5927 466.8945)" style="fill:#EBF3FF;" cx="191.993" cy="193.974" rx="175.998" ry="175.99"/>
<path style="fill:#FFDC7B;" d="M72.008,168.44c0,0,1.376-24.408,33.064-33.752c31.696-9.32,46.8,10.288,46.8,10.288
	s23.376,28.24-33.208,44.088C65.512,203.92,72.008,168.44,72.008,168.44z"/>
<g>
	<path style="fill:#141F38;" d="M192,0L192,0C140.712,0,92.496,19.976,56.24,56.232C19.976,92.496,0,140.712,0,192
		c0,36.376,10.096,71.184,28.88,101.296c0.024,0.048,0.056,0.088,0.088,0.136c7.68,12.296,16.776,23.832,27.28,34.336
		C92.504,364.032,140.72,384,192,384c51.288,0,99.504-19.968,135.76-56.232c10.52-10.52,19.624-22.072,27.32-34.392
		c0.008-0.016,0.024-0.04,0.04-0.056c15.008-24.056,24.44-51.112,27.632-79.576c0.016-0.128,0.032-0.248,0.048-0.376
		C383.568,206.32,384,199.2,384,192c0-51.288-19.976-99.504-56.24-135.76C291.496,19.976,243.288,0,192,0z M78.864,78.856
		C109.08,48.64,149.264,32,192,32s82.92,16.648,113.136,46.864c27.2,27.2,43.28,62.504,46.248,100.448
		c-25.888-16.584-71.936-38.128-140.48-41.976c-8.648-0.36-16.368,6.256-16.872,15.08c-0.496,8.824,6.256,16.376,15.08,16.872
		c82.512,4.632,127.704,37.376,140.672,48.36c-2.392,14.92-6.872,29.28-13.288,42.8C310.792,241.8,263.36,217.112,192,217.112
		S73.208,241.8,47.504,260.464C37.472,239.312,32,216.104,32,192C32,149.256,48.648,109.08,78.864,78.856z M126.12,337.712
		c13.696-8.048,35.52-16.784,65.88-16.784s52.192,8.744,65.888,16.792C237.432,346.976,215.128,352,192,352
		C168.88,352,146.568,346.976,126.12,337.712z M288.144,319.696c-15.496-12-47.488-30.776-96.144-30.776
		s-80.64,18.768-96.144,30.768c-5.912-4.472-11.656-9.224-16.992-14.552c-5.408-5.408-10.216-11.224-14.728-17.224
		c21.176-16,62.752-38.808,127.856-38.808c65.096,0,106.688,22.808,127.872,38.808c-4.52,6-9.328,11.824-14.728,17.224
		C299.8,310.472,294.056,315.224,288.144,319.696z"/>
	<path style="fill:#141F38;" d="M67,196.824c7.176,6.552,16.912,9.832,29.096,9.832c7.936,0,16.904-1.392,26.888-4.184
		c26.888-7.528,43.072-19.504,48.104-35.568c5.696-18.216-5.576-32.56-6.528-33.688c-8.096-10.504-30.672-25.664-64-15.872
		c-32.864,9.696-43.336,33.944-44.456,47.376C55.472,169.408,54.456,185.376,67,196.824z M87.8,169.064
		c0.088-0.48,0.128-0.736,0.16-1.312c0.16-1.416,2.144-13.968,21.64-19.72c19.816-5.848,28.88,3.88,29.712,4.832
		c0.016,0.024,1.864,2.664,1.208,4.568c-0.272,0.784-3.288,7.816-26.16,14.216c-20.608,5.768-25.712,1.592-25.768,1.552
		C87.888,172.592,87.648,170.352,87.8,169.064z"/>
</g>
<g>
</g>
<g>
</g>
<g>
</g>
<g>
</g>
<g>
</g>
<g>
</g>
<g>
</g>
<g>
</g>
<g>
</g>
<g>
</g>
<g>
</g>
<g>
</g>
<g>
</g>
<g>
</g>
<g>
</g>
</svg>
