<?xml version="1.0" encoding="iso-8859-1"?>
<!-- Generator: Adobe Illustrator 19.0.0, SVG Export Plug-In . SVG Version: 6.00 Build 0)  -->
<svg version="1.1" id="Capa_1" xmlns="http://www.w3.org/2000/svg" xmlns:xlink="http://www.w3.org/1999/xlink" x="0px" y="0px"
	 viewBox="0 0 384 384" style="enable-background:new 0 0 384 384;" xml:space="preserve">
<path style="fill:#EBF3FF;" d="M368,194c0,97.2-78.8,176-176,176c-22.88,0-44.72-4.32-64.8-12.32
	c17.84-12.96,29.44-33.92,29.44-57.68c0-39.28-31.84-71.12-71.12-71.12c-23.6,0-44.56,11.52-57.44,29.28
	C20.24,238.32,16,216.64,16,194c0-14.16,1.68-27.92,4.88-41.04c7.92,4.64,17.12,7.36,26.96,7.36c29.44,0,53.28-23.92,53.28-53.28
	c0-19.12-10.08-35.92-25.2-45.36C106.88,34.48,147.52,18,192,18C289.2,18,368,96.8,368,194z"/>
<g>
	<path style="fill:#B9D5EA;" d="M156.64,300c0,23.76-11.6,44.72-29.44,57.68h-0.08c-45.28-18-81.28-54.16-99.04-99.52
		c12.88-17.76,33.84-29.28,57.44-29.28C124.8,228.88,156.64,260.72,156.64,300z"/>
	<path style="fill:#B9D5EA;" d="M101.12,107.04c0,29.36-23.84,53.28-53.28,53.28c-9.84,0-19.04-2.72-26.96-7.36
		c8.56-36,28.16-67.68,55.04-91.28C91.04,71.12,101.12,87.92,101.12,107.04z"/>
	<circle style="fill:#B9D5EA;" cx="244.272" cy="159.296" r="53.168"/>
</g>
<g>
	<path style="fill:#141F38;" d="M192,0c-46.68,0-91.664,16.928-126.64,47.664c-0.008,0.008-0.016,0.016-0.024,0.024
		C35.6,73.808,15,107.808,5.648,146.064c-0.264,0.808-0.472,1.632-0.6,2.488C1.72,162.64,0,177.24,0,192
		c0,24.28,4.432,47.816,13.168,69.952c0.008,0.016,0.008,0.024,0.008,0.04c0.008,0.016,0.016,0.032,0.016,0.048l0,0l0,0
		C32.536,311.4,71.904,350.944,121.2,370.544c0.152,0.064,0.328,0.08,0.48,0.136C143.984,379.504,167.632,384,192,384
		c105.872,0,192-86.128,192-192S297.872,0,192,0z M76.496,81.248c0.176,0.208,0.36,0.416,0.528,0.632c1,1.264,1.92,2.584,2.744,3.96
		c0.16,0.272,0.36,0.528,0.512,0.8c0.936,1.656,1.72,3.392,2.392,5.176c0.176,0.472,0.312,0.952,0.472,1.432
		c0.464,1.4,0.848,2.824,1.144,4.28c0.112,0.544,0.232,1.088,0.32,1.64c0.304,1.928,0.512,3.88,0.512,5.872
		c0,20.56-16.72,37.28-37.28,37.28c-2.304,0-4.584-0.296-6.84-0.728c-0.264-0.048-0.536-0.104-0.8-0.16
		C47.648,118.888,59.984,98.432,76.496,81.248z M46.696,259.048c0.688-0.688,1.384-1.368,2.104-2.016
		c0.48-0.432,0.944-0.88,1.432-1.296c1.528-1.28,3.104-2.488,4.752-3.584c0.04-0.024,0.08-0.048,0.12-0.072
		c1.616-1.072,3.296-2.04,5.016-2.936c0.568-0.296,1.16-0.544,1.736-0.824c1.224-0.584,2.456-1.136,3.72-1.632
		c0.688-0.272,1.384-0.512,2.08-0.752c1.216-0.416,2.448-0.792,3.696-1.128c0.712-0.192,1.416-0.376,2.136-0.544
		c1.344-0.304,2.704-0.536,4.072-0.736c0.632-0.096,1.256-0.216,1.888-0.288c2-0.224,4.024-0.36,6.056-0.36
		c30.392,0,55.12,24.728,55.12,55.12c0,2.072-0.136,4.12-0.36,6.144c-0.072,0.656-0.192,1.296-0.288,1.944
		c-0.2,1.368-0.424,2.72-0.72,4.064c-0.16,0.728-0.352,1.448-0.544,2.176c-0.328,1.248-0.704,2.472-1.12,3.688
		c-0.24,0.704-0.488,1.408-0.752,2.104c-0.488,1.248-1.032,2.464-1.608,3.672c-0.28,0.592-0.544,1.2-0.848,1.784
		c-0.848,1.624-1.776,3.216-2.792,4.752c-0.08,0.12-0.144,0.256-0.232,0.384c-1.112,1.656-2.336,3.248-3.64,4.784
		c-0.376,0.448-0.8,0.864-1.192,1.304c-0.704,0.776-1.44,1.528-2.192,2.272C90.176,321.048,62.528,293.28,46.696,259.048z M192,352
		c-12.008,0-23.792-1.296-35.248-3.872c0.256-0.368,0.48-0.768,0.736-1.136c0.36-0.528,0.696-1.08,1.048-1.616
		c1.448-2.24,2.808-4.544,4.048-6.904c0.216-0.408,0.448-0.8,0.656-1.216c1.344-2.656,2.528-5.392,3.592-8.176
		c0.248-0.656,0.48-1.312,0.712-1.976c0.928-2.616,1.76-5.264,2.44-7.968c0.072-0.288,0.168-0.568,0.24-0.864
		c0.704-2.92,1.216-5.896,1.616-8.896c0.096-0.72,0.176-1.44,0.256-2.16c0.328-3.048,0.552-6.12,0.552-9.216
		c0-48.04-39.08-87.12-87.12-87.12c-3.096,0-6.16,0.224-9.2,0.552c-0.712,0.072-1.424,0.152-2.136,0.248
		c-2.992,0.4-5.96,0.904-8.872,1.608c-0.304,0.072-0.608,0.176-0.912,0.256c-2.68,0.672-5.32,1.496-7.92,2.416
		c-0.64,0.224-1.28,0.448-1.92,0.688c-2.776,1.056-5.496,2.24-8.144,3.576c-0.448,0.224-0.872,0.48-1.312,0.712
		c-2.336,1.224-4.616,2.568-6.832,4c-0.52,0.336-1.048,0.656-1.56,1c-0.328,0.224-0.664,0.408-0.992,0.64
		C33.248,215.344,32,203.784,32,192c0-6.48,0.384-12.92,1.16-19.272c1.216,0.264,2.456,0.4,3.688,0.6
		c0.872,0.144,1.736,0.32,2.608,0.424c2.776,0.344,5.576,0.56,8.384,0.56c38.2,0,69.28-31.08,69.28-69.28
		c0-2.688-0.208-5.336-0.504-7.96c-0.08-0.696-0.176-1.384-0.272-2.072c-0.328-2.272-0.752-4.52-1.296-6.728
		c-0.088-0.352-0.144-0.704-0.232-1.056c-0.656-2.504-1.48-4.936-2.408-7.336c-0.232-0.6-0.488-1.184-0.744-1.784
		c-0.824-1.968-1.736-3.888-2.736-5.76c-0.256-0.472-0.48-0.96-0.744-1.424c-1.256-2.216-2.632-4.368-4.128-6.432
		c-0.344-0.472-0.712-0.92-1.064-1.384c-0.688-0.904-1.344-1.824-2.072-2.688C127.52,41.984,159.256,32,192,32
		c88.224,0,160,71.776,160,160S280.224,352,192,352z"/>
	<path style="fill:#141F38;" d="M244.272,88.136c-38.136,0-69.152,31.024-69.152,69.16c0,38.144,31.024,69.176,69.152,69.176
		c38.144,0,69.168-31.032,69.168-69.176C313.44,119.16,282.408,88.136,244.272,88.136z M244.272,194.472
		c-20.488,0-37.16-16.68-37.16-37.176c0-20.488,16.664-37.16,37.16-37.16s37.168,16.672,37.168,37.16
		C281.44,177.792,264.768,194.472,244.272,194.472z"/>
	<path style="fill:#141F38;" d="M292.936,249.264c-7.008-5.392-17.048-4.08-22.44,2.928c-8.8,11.448-20.184,20.992-32.92,27.608
		c-7.84,4.072-10.896,13.736-6.824,21.576c2.848,5.48,8.432,8.632,14.208,8.632c2.488,0,5.008-0.584,7.36-1.808
		c16.848-8.752,31.904-21.376,43.536-36.496C301.248,264.696,299.936,254.656,292.936,249.264z"/>
</g>
<g>
</g>
<g>
</g>
<g>
</g>
<g>
</g>
<g>
</g>
<g>
</g>
<g>
</g>
<g>
</g>
<g>
</g>
<g>
</g>
<g>
</g>
<g>
</g>
<g>
</g>
<g>
</g>
<g>
</g>
</svg>
