<?xml version="1.0" encoding="iso-8859-1"?>
<!-- Generator: Adobe Illustrator 19.0.0, SVG Export Plug-In . SVG Version: 6.00 Build 0)  -->
<svg version="1.1" id="Capa_1" xmlns="http://www.w3.org/2000/svg" xmlns:xlink="http://www.w3.org/1999/xlink" x="0px" y="0px"
	 viewBox="0 0 384 384" style="enable-background:new 0 0 384 384;" xml:space="preserve">
<g>
	<ellipse style="fill:#FFDC7B;" cx="95.976" cy="316.64" rx="45.24" ry="45.36"/>
	<ellipse style="fill:#FFDC7B;" cx="288" cy="316.64" rx="45.2" ry="45.36"/>
</g>
<path style="fill:#EBF3FF;" d="M191.04,259.52v57.12H141.2c0-25.04-20.24-45.36-45.2-45.36s-45.28,20.32-45.28,45.36H16V198.72
	c0-12.48,10.16-22.64,22.64-22.64h66.32L191.04,259.52z"/>
<path style="fill:#B9D5EA;" d="M368,198.72v117.92h-34.8c0-25.04-20.24-45.36-45.2-45.36s-45.2,20.32-45.2,45.36h-51.76v-57.12
	l87.2-83.44h67.12C357.84,176.08,368,186.24,368,198.72z"/>
<polygon style="fill:#279AAD;" points="278.24,176.08 191.04,259.52 191.04,176.08 "/>
<polygon style="fill:#38B4C1;" points="191.04,176.08 191.04,259.52 104.96,176.08 "/>
<g>
	<ellipse style="fill:#141F38;" cx="95.968" cy="314.64" rx="12.728" ry="12.776"/>
	<ellipse style="fill:#141F38;" cx="288" cy="314.64" rx="12.728" ry="12.776"/>
	<path style="fill:#141F38;" d="M104.96,158.08H38.64C17.336,158.08,0,175.416,0,196.72v117.92c0,8.832,7.16,16,16,16h20.904
		C43.96,356.728,67.744,376,96,376c28.224,0,51.976-19.272,59.016-45.36h36.024h37.944C236.024,356.728,259.776,376,288,376
		s51.976-19.272,59.016-45.36H368c8.832,0,16-7.168,16-16V196.72c0-21.304-17.336-38.64-38.64-38.64h-67.12h-71.2v-57.4
		c3.816-1.816,7.392-4.176,10.464-7.256c14.528-14.568,14.52-38.28-0.008-52.864c-7.056-7.08-16.44-10.976-26.424-10.976h-0.008
		c-9.984,0-19.368,3.896-26.424,10.968c-3.096,3.112-5.392,6.688-7.168,10.448h-31.36l-22.336-35.512
		C100.84,10.824,95.728,8,90.224,8L54.376,8.008c-8.84,0-16,7.168-16,16s7.168,16,16,16L81.392,40l16.976,27L81.4,93.984H54.376
		c-8.832,0-16,7.168-16,16c0,8.84,7.168,16,16,16H90.24c5.504,0,10.616-2.824,13.544-7.48L126.112,83h31.36
		c1.776,3.752,4.064,7.32,7.16,10.424c3.056,3.072,6.616,5.416,10.408,7.232v57.432h-70.08V158.08z M175.04,190.08v29.648
		l-30.584-29.648H175.04z M32,196.72c0-3.664,2.976-6.64,6.64-6.64h59.84l76.56,74.216v34.352h-19.944
		c-0.064-0.248-0.192-0.472-0.256-0.72c-0.8-2.808-1.776-5.536-2.944-8.168c-0.216-0.48-0.456-0.944-0.688-1.424
		c-1.24-2.608-2.616-5.136-4.2-7.528c-0.072-0.104-0.128-0.224-0.2-0.328c-1.64-2.448-3.496-4.72-5.464-6.896
		c-0.376-0.408-0.728-0.824-1.112-1.224c-1.968-2.064-4.056-3.992-6.288-5.768c-0.408-0.328-0.832-0.624-1.248-0.936
		c-2.328-1.76-4.752-3.4-7.328-4.816c-0.056-0.032-0.096-0.064-0.152-0.096c-2.6-1.424-5.344-2.592-8.152-3.632
		c-0.52-0.192-1.032-0.392-1.56-0.576c-2.752-0.928-5.584-1.664-8.488-2.2c-0.552-0.104-1.104-0.168-1.656-0.256
		c-3.064-0.48-6.176-0.8-9.36-0.8c-3.192,0-6.296,0.32-9.36,0.792c-0.56,0.088-1.112,0.152-1.664,0.256
		c-2.904,0.536-5.736,1.264-8.488,2.2c-0.536,0.184-1.056,0.384-1.592,0.584c-2.8,1.032-5.536,2.2-8.128,3.616
		c-0.08,0.04-0.144,0.096-0.224,0.136c-2.536,1.4-4.936,3.016-7.24,4.752c-0.44,0.328-0.888,0.64-1.312,0.984
		c-2.216,1.76-4.296,3.672-6.248,5.72c-0.4,0.424-0.784,0.864-1.176,1.296c-1.944,2.16-3.792,4.416-5.424,6.84
		c-0.096,0.136-0.168,0.28-0.256,0.424c-1.552,2.352-2.912,4.84-4.136,7.4c-0.24,0.504-0.496,0.992-0.72,1.504
		c-1.16,2.616-2.136,5.32-2.928,8.112c-0.072,0.256-0.2,0.488-0.272,0.752H32V196.72z M96,344c-16.152,0-29.28-13.168-29.28-29.36
		S79.856,285.28,96,285.28c16.104,0,29.2,13.168,29.2,29.36S112.104,344,96,344z M288,344c-16.104,0-29.2-13.168-29.2-29.36
		s13.104-29.36,29.2-29.36c16.104,0,29.2,13.168,29.2,29.36S304.104,344,288,344z M352,196.72v101.92h-4.904
		c-0.064-0.248-0.192-0.472-0.256-0.72c-0.8-2.808-1.776-5.536-2.944-8.168c-0.216-0.48-0.456-0.944-0.68-1.424
		c-1.24-2.608-2.616-5.136-4.2-7.528c-0.072-0.104-0.128-0.224-0.2-0.328c-1.64-2.448-3.496-4.72-5.464-6.896
		c-0.376-0.408-0.728-0.824-1.112-1.224c-1.96-2.064-4.056-3.992-6.288-5.768c-0.408-0.328-0.832-0.624-1.248-0.936
		c-2.328-1.76-4.752-3.4-7.328-4.816c-0.056-0.032-0.096-0.064-0.152-0.096c-2.6-1.424-5.344-2.592-8.152-3.632
		c-0.52-0.192-1.032-0.392-1.56-0.576c-2.752-0.928-5.584-1.664-8.488-2.2c-0.552-0.104-1.104-0.168-1.656-0.256
		c-3.072-0.472-6.184-0.792-9.368-0.792s-6.296,0.32-9.352,0.792c-0.552,0.088-1.112,0.152-1.656,0.256
		c-2.912,0.536-5.744,1.272-8.496,2.2c-0.528,0.176-1.04,0.384-1.56,0.576c-2.808,1.04-5.552,2.208-8.152,3.632
		c-0.048,0.032-0.096,0.064-0.152,0.096c-2.568,1.416-4.992,3.056-7.328,4.816c-0.416,0.312-0.84,0.616-1.256,0.936
		c-2.232,1.776-4.328,3.704-6.288,5.768c-0.384,0.4-0.744,0.816-1.112,1.224c-1.968,2.176-3.824,4.456-5.464,6.904
		c-0.072,0.104-0.12,0.208-0.192,0.312c-1.584,2.392-2.968,4.928-4.208,7.544c-0.224,0.472-0.472,0.936-0.68,1.416
		c-1.168,2.632-2.144,5.36-2.944,8.168c-0.072,0.248-0.192,0.472-0.264,0.72H207.04v-34.288l77.624-74.28h60.696
		C349.024,190.08,352,193.056,352,196.72z M211.336,215.952l-4.296,4.112V190.08h31.336L211.336,215.952z"/>
</g>
<g>
</g>
<g>
</g>
<g>
</g>
<g>
</g>
<g>
</g>
<g>
</g>
<g>
</g>
<g>
</g>
<g>
</g>
<g>
</g>
<g>
</g>
<g>
</g>
<g>
</g>
<g>
</g>
<g>
</g>
</svg>
