<?xml version="1.0" encoding="iso-8859-1"?>
<!-- Generator: Adobe Illustrator 19.0.0, SVG Export Plug-In . SVG Version: 6.00 Build 0)  -->
<svg version="1.1" id="Capa_1" xmlns="http://www.w3.org/2000/svg" xmlns:xlink="http://www.w3.org/1999/xlink" x="0px" y="0px"
	 viewBox="0 0 384.004 384.004" style="enable-background:new 0 0 384.004 384.004;" xml:space="preserve">
<g>
	<path style="fill:#FFDC7B;" d="M142.802,327.124c0,23.68-19.52,42.88-43.68,42.88c-24.24,0-43.76-19.2-43.76-42.88
		s19.52-42.88,43.76-42.88C123.282,284.244,142.802,303.444,142.802,327.124z"/>
	<path style="fill:#FFDC7B;" d="M328.642,327.124c0,23.68-19.52,42.88-43.68,42.88c-24.24,0-43.76-19.2-43.76-42.88
		s19.52-42.88,43.76-42.88C309.122,284.244,328.642,303.444,328.642,327.124z"/>
</g>
<path style="fill:#EBF3FF;" d="M368.002,215.604v111.52h-39.36c0-23.68-19.52-42.88-43.68-42.88c-24.24,0-43.76,19.2-43.76,42.88
	h-98.4c0-23.68-19.52-42.88-43.68-42.88c-24.24,0-43.76,19.2-43.76,42.88h-39.36v-111.52c0-11.84,10.08-21.44,22.64-21.44h306.72
	C357.922,194.164,368.002,203.764,368.002,215.604z"/>
<path style="fill:#38B4C1;" d="M110.642,79.524c0,60.08-60.24,61.52-60.24,61.52V18.004
	C50.402,18.004,110.642,19.524,110.642,79.524z"/>
<g>
	<ellipse style="fill:#141F38;" cx="99.082" cy="325.108" rx="12.32" ry="12.08"/>
	<ellipse style="fill:#141F38;" cx="284.922" cy="325.108" rx="12.32" ry="12.08"/>
	<path style="fill:#141F38;" d="M345.362,176.164h-6.192c1.824-2.6,2.904-5.744,2.904-9.16c0-8.36-6.432-15.136-14.6-15.856v-67.36
		c0-8.832-7.168-16-16-16s-16,7.168-16,16v67.36c-8.176,0.712-14.616,7.496-14.616,15.864c0,3.408,1.088,6.56,2.904,9.16h-76.72
		v-61.224c3.552-1.696,6.936-3.832,9.872-6.72c6.984-6.848,10.832-15.992,10.832-25.72c0-9.744-3.848-18.888-10.848-25.752v-0.008
		c-14.232-13.944-37.376-13.944-51.608-0.008c-1.512,1.48-2.8,3.112-4.016,4.792h-36.072C117.178,14.708,74.506,0.604,50.81,0.004
		c-4.512-0.096-8.488,1.528-11.576,4.536c-3.088,3.016-4.832,7.152-4.832,11.464v45.544H23.554c-8.832,0.008-15.992,7.168-15.992,16
		s7.168,16,16,16c0,0,0,0,0.008,0h10.84v45.496c0,4.312,1.744,8.44,4.816,11.448c2.992,2.92,7.008,4.552,11.184,4.552
		c0.128,0,0.256,0,0.384,0c23.712-0.568,66.4-14.632,74.424-61.52h31.136c1.768,5.472,4.696,10.536,8.944,14.696
		c2.912,2.856,6.256,4.976,9.76,6.664v61.28H38.642c-21.304,0-38.64,16.8-38.64,37.44v111.52c0,8.832,7.16,16,16,16h25.664
		c7.096,24.704,30.136,42.88,57.456,42.88c27.28,0,50.288-18.176,57.384-42.88h71.008c7.088,24.704,30.128,42.88,57.448,42.88
		c27.28,0,50.288-18.176,57.384-42.88h25.656c8.832,0,16-7.168,16-16v-111.52C384.002,192.964,366.666,176.164,345.362,176.164z
		 M66.402,119.9V35.172c12.808,4.536,28.24,15.568,28.24,42.352C94.642,104.324,79.33,115.356,66.402,119.9z M99.122,352.004
		c-15.304,0-27.76-12.056-27.76-26.88s12.456-26.88,27.76-26.88c15.264,0,27.68,12.056,27.68,26.88
		C126.802,339.948,114.386,352.004,99.122,352.004z M284.962,352.004c-15.304,0-27.76-12.056-27.76-26.88s12.456-26.88,27.76-26.88
		c15.264,0,27.68,12.056,27.68,26.88C312.642,339.948,300.226,352.004,284.962,352.004z M352.002,309.124h-9.6
		c-0.048-0.168-0.128-0.312-0.184-0.48c-0.8-2.688-1.792-5.288-2.952-7.808c-0.224-0.496-0.472-0.968-0.712-1.456
		c-1.256-2.528-2.632-4.992-4.224-7.296c-0.08-0.12-0.176-0.232-0.264-0.344c-1.56-2.232-3.304-4.32-5.152-6.312
		c-0.344-0.368-0.672-0.752-1.024-1.112c-1.904-1.952-3.944-3.76-6.112-5.44c-0.432-0.336-0.88-0.648-1.32-0.976
		c-2.28-1.672-4.64-3.232-7.152-4.576c-0.072-0.04-0.152-0.072-0.232-0.112c-2.464-1.304-5.056-2.392-7.72-3.352
		c-0.504-0.184-1-0.376-1.512-0.552c-2.656-0.88-5.4-1.568-8.208-2.072c-0.552-0.096-1.104-0.168-1.664-0.248
		c-2.952-0.448-5.944-0.744-9.016-0.744c-3.08,0-6.08,0.304-9.032,0.744c-0.552,0.08-1.112,0.152-1.664,0.248
		c-2.816,0.504-5.56,1.192-8.216,2.072c-0.512,0.168-1.008,0.368-1.512,0.544c-2.664,0.96-5.264,2.048-7.736,3.36
		c-0.072,0.04-0.144,0.064-0.216,0.104c-2.52,1.344-4.888,2.912-7.168,4.584c-0.44,0.32-0.88,0.632-1.304,0.96
		c-2.168,1.68-4.216,3.496-6.128,5.456c-0.352,0.352-0.672,0.728-1.008,1.096c-1.864,2-3.616,4.104-5.184,6.344
		c-0.08,0.112-0.168,0.208-0.24,0.32c-1.6,2.312-2.976,4.768-4.232,7.304c-0.24,0.488-0.488,0.968-0.72,1.472
		c-1.16,2.504-2.152,5.096-2.944,7.776c-0.048,0.176-0.136,0.328-0.192,0.504H156.57c-0.048-0.168-0.136-0.312-0.184-0.48
		c-0.8-2.688-1.792-5.288-2.952-7.808c-0.224-0.496-0.472-0.968-0.712-1.456c-1.256-2.528-2.632-4.992-4.224-7.296
		c-0.08-0.12-0.184-0.232-0.264-0.344c-1.56-2.232-3.304-4.32-5.152-6.312c-0.344-0.368-0.672-0.752-1.024-1.112
		c-1.904-1.952-3.944-3.76-6.112-5.44c-0.432-0.336-0.88-0.648-1.32-0.976c-2.28-1.672-4.64-3.232-7.152-4.576
		c-0.072-0.04-0.152-0.072-0.232-0.112c-2.464-1.304-5.056-2.392-7.72-3.352c-0.504-0.184-1-0.376-1.512-0.552
		c-2.656-0.88-5.4-1.568-8.208-2.072c-0.552-0.096-1.104-0.168-1.656-0.248c-2.952-0.448-5.944-0.744-9.016-0.744
		c-3.08,0-6.08,0.304-9.032,0.744c-0.552,0.08-1.112,0.152-1.664,0.248c-2.816,0.504-5.56,1.192-8.216,2.072
		c-0.512,0.168-1.008,0.368-1.512,0.544c-2.664,0.96-5.264,2.048-7.736,3.36c-0.072,0.04-0.144,0.064-0.216,0.104
		c-2.52,1.344-4.888,2.912-7.168,4.584c-0.44,0.32-0.88,0.632-1.304,0.96c-2.168,1.68-4.216,3.496-6.128,5.456
		c-0.344,0.352-0.672,0.728-1.008,1.096c-1.864,2-3.616,4.104-5.184,6.344c-0.08,0.112-0.168,0.208-0.24,0.32
		c-1.6,2.312-2.976,4.768-4.232,7.304c-0.24,0.488-0.488,0.968-0.72,1.472c-1.16,2.504-2.152,5.096-2.944,7.776
		c-0.048,0.176-0.136,0.328-0.192,0.504h-9.632v-95.536c0-3,2.976-5.44,6.64-5.44h306.72c3.664,0,6.64,2.44,6.64,5.44V309.124z"/>
	<path style="fill:#141F38;" d="M192.002,223.244c-19.712,0-35.752,15.864-35.752,35.368s16.04,35.368,35.752,35.368
		s35.752-15.864,35.752-35.368S211.714,223.244,192.002,223.244z"/>
</g>
<g>
</g>
<g>
</g>
<g>
</g>
<g>
</g>
<g>
</g>
<g>
</g>
<g>
</g>
<g>
</g>
<g>
</g>
<g>
</g>
<g>
</g>
<g>
</g>
<g>
</g>
<g>
</g>
<g>
</g>
</svg>
