<?xml version="1.0" encoding="iso-8859-1"?>
<!-- Generator: Adobe Illustrator 19.0.0, SVG Export Plug-In . SVG Version: 6.00 Build 0)  -->
<svg version="1.1" id="Capa_1" xmlns="http://www.w3.org/2000/svg" xmlns:xlink="http://www.w3.org/1999/xlink" x="0px" y="0px"
	 viewBox="0 0 383.936 383.936" style="enable-background:new 0 0 383.936 383.936;" xml:space="preserve">
<path style="fill:#FFDC7B;" d="M367.703,202.447c-6.72-2.08-41.44-10.96-67.44,14.48c-28.56,28-7.68,68.4-5.12,73.04
	c-4.32,1.84-8.88,3.52-13.68,5.2c0,0-16,6.4-46.4,9.36c-5.36-12.56-26.4-52.32-66.08-54.8c-47.2-3.04-70.56,42.56-70.56,42.56
	c-10.56-2.56-21.44-5.6-32.8-9.12c0,0-78.72-21.6-37.92-72.16c0,0,17.36-24.24,52.72-41.6c0,0,20,43.04,66.4,31.44
	c45.12-11.2,45.12-67.6,45.12-67.6c16.64-8.48,24.24-15.68,24.24-15.68s39.84-44.56,80.64-34s64.72,76.32,64.72,76.32
	S369.383,178.287,367.703,202.447z"/>
<g>
	<path style="fill:#38B4C1;" d="M367.703,202.447c-2,28.16-16.96,64.08-72.56,87.52c-2.56-4.64-23.44-45.04,5.12-73.04
		C326.263,191.487,360.983,200.367,367.703,202.447z"/>
	<path style="fill:#38B4C1;" d="M191.943,133.247c0,0,0,56.4-45.12,67.6c-46.4,11.6-66.4-31.44-66.4-31.44
		c12.32-6.08,26.88-11.2,43.6-14.24C154.663,149.647,176.983,140.927,191.943,133.247z"/>
	<path style="fill:#38B4C1;" d="M235.063,304.527c-31.12,2.96-77.28,2.4-136.64-12.24c0,0,23.36-45.6,70.56-42.56
		C208.663,252.207,229.703,291.967,235.063,304.527z"/>
</g>
<g>
	<path style="fill:#141F38;" d="M300.831,66.079c-46.896-12.16-89.768,31.496-95.888,38.072c-1.512,1.288-8.072,6.624-20.264,12.832
		c-0.008,0-0.008,0.008-0.024,0.016c-0.008,0-0.016,0.008-0.024,0.008c-12.288,6.304-33.264,14.976-63.472,20.416
		c-16.92,3.08-32.984,8.328-47.744,15.6c-0.016,0.008-0.032,0.008-0.04,0.016c-36.288,17.816-55.552,42.448-58.344,46.2
		c-17.288,21.592-16.568,39.632-12.912,50.992c10.352,32.104,54.296,45,58.776,46.224c11.984,3.712,23.008,6.776,33.696,9.368l0,0
		c0.008,0,0.008,0,0.016,0c0.016,0,0.032,0.008,0.048,0.008c0.008,0,0.024,0,0.032,0.008c38.184,9.408,74.688,14.144,108.928,14.144
		c11.232,0,22.224-0.504,32.96-1.528c0.008,0,0.008,0,0.016,0s0.008,0,0.016,0c32.312-3.152,50.064-10.136,50.152-10.184
		c5.112-1.792,9.976-3.592,14.584-5.552c0.008,0,0.016,0,0.024-0.008c0.008,0,0.016-0.008,0.016-0.008
		c0.016-0.008,0.024-0.008,0.032-0.016l0.016-0.008c63.944-26.984,80.016-69.872,82.232-101.096c0-0.008,0-0.016,0-0.024l0,0
		c1.792-25.688-5.792-45.936-7.184-49.432C373.231,143.303,347.839,78.247,300.831,66.079z M126.855,168.911
		c15.512-2.792,30.064-6.544,43.528-11.2c-0.088,0.208-0.16,0.424-0.248,0.632c-0.24,0.56-0.504,1.112-0.76,1.672
		c-0.408,0.88-0.824,1.752-1.28,2.624c-0.304,0.584-0.64,1.16-0.968,1.728c-0.48,0.832-0.984,1.656-1.512,2.464
		c-0.384,0.576-0.776,1.136-1.176,1.696c-0.568,0.784-1.168,1.544-1.792,2.296c-0.448,0.536-0.896,1.072-1.376,1.584
		c-0.672,0.728-1.4,1.424-2.136,2.112c-0.512,0.48-1.016,0.96-1.56,1.408c-0.808,0.672-1.688,1.288-2.568,1.896
		c-0.56,0.392-1.096,0.8-1.688,1.16c-1.016,0.624-2.128,1.16-3.24,1.696c-0.552,0.264-1.056,0.568-1.624,0.808
		c-1.728,0.72-3.552,1.352-5.512,1.832c-2.112,0.528-4.136,0.888-6.088,1.12c-0.648,0.08-1.248,0.072-1.88,0.128
		c-1.28,0.104-2.56,0.2-3.768,0.184c-0.696-0.008-1.344-0.08-2.016-0.12c-1.088-0.072-2.176-0.136-3.216-0.288
		c-0.656-0.096-1.272-0.232-1.904-0.36c-0.992-0.2-1.968-0.408-2.904-0.672c-0.592-0.168-1.152-0.36-1.72-0.552
		c-0.912-0.312-1.808-0.64-2.672-1c-0.52-0.224-1.024-0.456-1.52-0.696c-0.848-0.408-1.672-0.84-2.472-1.296
		c-0.44-0.248-0.872-0.504-1.296-0.768c-0.792-0.496-1.552-1.016-2.288-1.552c-0.36-0.264-0.728-0.52-1.072-0.784
		c-0.744-0.576-1.44-1.16-2.112-1.76c-0.192-0.168-0.392-0.344-0.584-0.512C112.319,172.087,119.487,170.247,126.855,168.911z
		 M126.327,280.063c0.048-0.048,0.088-0.096,0.136-0.136c0.744-0.704,1.552-1.408,2.36-2.104c0.456-0.4,0.88-0.8,1.352-1.184
		c0.752-0.624,1.576-1.224,2.376-1.824c0.592-0.448,1.16-0.912,1.784-1.344c0.712-0.504,1.488-0.96,2.24-1.432
		c0.776-0.496,1.528-1.008,2.344-1.48c0.648-0.368,1.344-0.688,2.016-1.032c0.984-0.512,1.952-1.048,2.992-1.504
		c0.56-0.248,1.168-0.44,1.744-0.672c1.2-0.488,2.4-0.984,3.664-1.384c0.496-0.16,1.032-0.256,1.544-0.4
		c1.4-0.392,2.792-0.792,4.272-1.072c0.488-0.096,1.016-0.112,1.512-0.192c1.536-0.24,3.08-0.488,4.704-0.584
		c2.136-0.136,4.344-0.136,6.624,0.008c2.16,0.136,4.248,0.44,6.272,0.864c0.664,0.144,1.28,0.36,1.928,0.528
		c1.336,0.344,2.672,0.696,3.944,1.152c0.736,0.264,1.432,0.6,2.152,0.896c1.128,0.472,2.256,0.936,3.336,1.488
		c0.72,0.368,1.408,0.776,2.104,1.176c1.008,0.576,2.016,1.152,2.976,1.784c0.68,0.448,1.344,0.928,2,1.4
		c0.912,0.656,1.816,1.32,2.688,2.024c0.632,0.512,1.248,1.032,1.856,1.56c0.832,0.728,1.648,1.456,2.44,2.208
		c0.576,0.544,1.136,1.104,1.68,1.656c0.76,0.776,1.504,1.56,2.216,2.352c0.504,0.56,1.008,1.12,1.496,1.688
		c0.696,0.816,1.368,1.632,2.024,2.456c0.264,0.328,0.52,0.656,0.776,0.984C186.135,288.111,158.783,286.359,126.327,280.063z
		 M244.375,285.319c-0.304-0.552-0.664-1.16-1-1.736c-0.312-0.536-0.592-1.056-0.928-1.608c-0.824-1.392-1.704-2.832-2.664-4.32
		c-0.256-0.392-0.536-0.8-0.8-1.2c-0.76-1.16-1.552-2.336-2.4-3.528c-0.408-0.576-0.832-1.152-1.256-1.736
		c-0.784-1.08-1.608-2.168-2.464-3.256c-0.464-0.6-0.92-1.184-1.408-1.784c-1.008-1.248-2.072-2.496-3.168-3.736
		c-0.368-0.416-0.704-0.832-1.08-1.248c-1.472-1.632-3.024-3.24-4.648-4.832c-0.424-0.416-0.888-0.816-1.32-1.232
		c-1.248-1.184-2.536-2.344-3.864-3.48c-0.616-0.528-1.256-1.04-1.896-1.56c-1.28-1.032-2.592-2.032-3.944-3.016
		c-0.656-0.472-1.296-0.952-1.968-1.408c-1.72-1.176-3.504-2.304-5.344-3.368c-0.328-0.192-0.624-0.4-0.952-0.584
		c-2.168-1.224-4.424-2.344-6.76-3.384c-0.664-0.296-1.36-0.544-2.032-0.824c-1.728-0.712-3.496-1.376-5.312-1.976
		c-0.856-0.28-1.728-0.544-2.608-0.8c-1.808-0.528-3.664-0.976-5.56-1.368c-0.84-0.176-1.664-0.376-2.52-0.528
		c-2.744-0.48-5.552-0.856-8.48-1.04c-1.928-0.12-3.808-0.184-5.664-0.184c-1.344,0-2.624,0.104-3.928,0.16
		c-0.392,0.016-0.784,0.024-1.168,0.048c-35.096,2.128-57.528,25.696-68.048,40.144c-6.704-1.8-13.712-3.832-21.304-6.184
		c-10.472-2.92-33.36-12.968-37.328-25.368c-1.808-5.664,0.744-12.832,7.592-21.328c0.192-0.24,0.376-0.48,0.552-0.728
		c0.128-0.176,11.672-15.72,34.36-29.704c0.416,0.52,0.888,1.04,1.328,1.568c0.376,0.448,0.744,0.896,1.136,1.344
		c0.704,0.8,1.456,1.592,2.216,2.384c0.32,0.336,0.616,0.664,0.936,1c1.104,1.12,2.264,2.232,3.472,3.32
		c0.176,0.16,0.376,0.312,0.56,0.472c1.04,0.912,2.104,1.816,3.208,2.696c0.432,0.344,0.896,0.664,1.336,1
		c0.896,0.68,1.792,1.352,2.736,2c0.536,0.368,1.096,0.72,1.64,1.08c0.896,0.584,1.792,1.16,2.728,1.712
		c0.608,0.36,1.232,0.704,1.864,1.048c0.92,0.512,1.856,1,2.808,1.48c0.672,0.336,1.352,0.648,2.04,0.96
		c0.96,0.44,1.944,0.856,2.944,1.256c0.72,0.288,1.44,0.568,2.176,0.832c1.016,0.368,2.064,0.704,3.112,1.024
		c0.76,0.232,1.512,0.472,2.288,0.68c1.096,0.296,2.224,0.544,3.352,0.784c0.776,0.168,1.536,0.352,2.328,0.488
		c1.248,0.224,2.528,0.376,3.808,0.536c0.72,0.088,1.416,0.208,2.144,0.272c1.832,0.16,3.704,0.24,5.616,0.256
		c0.2,0,0.384,0.024,0.584,0.024c0.016,0,0.04,0,0.056,0c2.648,0,5.392-0.208,8.176-0.52c0.728-0.08,1.464-0.176,2.2-0.28
		c2.872-0.4,5.784-0.904,8.808-1.656c3.224-0.8,6.224-1.816,9.096-2.936c0.88-0.344,1.704-0.728,2.552-1.104
		c1.976-0.856,3.872-1.776,5.672-2.776c0.832-0.456,1.656-0.92,2.456-1.4c1.856-1.128,3.616-2.336,5.296-3.592
		c0.52-0.392,1.08-0.752,1.584-1.152c2.112-1.688,4.08-3.464,5.904-5.32c0.432-0.432,0.8-0.896,1.216-1.336
		c1.376-1.472,2.688-2.984,3.912-4.536c0.52-0.664,1.016-1.328,1.504-2c1.064-1.448,2.056-2.912,3-4.4
		c0.4-0.64,0.816-1.264,1.2-1.912c1.192-2.016,2.312-4.048,3.312-6.088c0.04-0.08,0.08-0.152,0.12-0.224
		c1.04-2.152,1.96-4.304,2.8-6.448c0.248-0.64,0.472-1.256,0.704-1.896c0.568-1.536,1.104-3.056,1.584-4.568
		c0.208-0.656,0.416-1.312,0.608-1.96c0.48-1.608,0.904-3.168,1.296-4.712c0.104-0.424,0.232-0.856,0.328-1.272
		c0.472-1.96,0.872-3.848,1.208-5.648c0.056-0.296,0.096-0.56,0.144-0.856c0.272-1.504,0.504-2.936,0.696-4.288
		c0.064-0.44,0.12-0.848,0.168-1.272c0.064-0.504,0.152-1.056,0.208-1.536c12.768-7.336,19.136-13.208,19.928-13.96
		c0.304-0.288,0.624-0.616,0.904-0.928c9.344-10.36,39.216-35.824,64.728-29.2c26.64,6.896,47.8,50.208,53.688,66.304
		c0.104,0.272,0.2,0.536,0.32,0.8c0.04,0.096,2.808,6.904,4.256,17.272c-1.984-0.12-4.072-0.168-6.216-0.16
		c-0.608,0-1.232,0.032-1.848,0.048c-1.592,0.04-3.208,0.112-4.864,0.24c-0.76,0.056-1.52,0.128-2.296,0.216
		c-1.672,0.176-3.376,0.416-5.096,0.696c-0.712,0.12-1.408,0.216-2.12,0.352c-4.864,0.936-9.864,2.36-14.896,4.408
		c-0.68,0.28-1.36,0.608-2.04,0.912c-1.84,0.816-3.664,1.704-5.496,2.704c-0.816,0.448-1.632,0.912-2.448,1.4
		c-1.776,1.056-3.528,2.224-5.28,3.472c-0.744,0.528-1.488,1.024-2.224,1.592c-2.44,1.872-4.848,3.888-7.2,6.192
		c-2.072,2.032-3.872,4.112-5.568,6.216c-0.448,0.56-0.88,1.112-1.304,1.68c-1.416,1.888-2.728,3.792-3.872,5.72
		c-0.144,0.24-0.32,0.48-0.464,0.72c-1.24,2.152-2.288,4.32-3.224,6.496c-0.248,0.584-0.48,1.16-0.704,1.744
		c-0.728,1.832-1.36,3.672-1.896,5.512c-0.12,0.4-0.264,0.8-0.368,1.208c-0.584,2.168-1.032,4.328-1.376,6.48
		c-0.096,0.568-0.16,1.128-0.232,1.688c-0.24,1.76-0.416,3.512-0.52,5.248c-0.032,0.48-0.08,0.96-0.096,1.44
		c-0.088,2.088-0.08,4.152,0,6.184c0.024,0.512,0.064,1,0.088,1.504c0.096,1.64,0.24,3.256,0.424,4.848
		c0.056,0.512,0.112,1.024,0.176,1.528c0.256,1.912,0.56,3.776,0.92,5.584c0.08,0.416,0.176,0.816,0.264,1.224
		c0.312,1.472,0.648,2.904,1,4.296c0.128,0.488,0.248,0.976,0.376,1.456c0.432,1.576,0.872,3.104,1.336,4.552
		C270.359,280.063,260.279,283.079,244.375,285.319z M303.543,266.231c-0.096-0.328-0.176-0.672-0.264-1.008
		c-0.232-0.888-0.456-1.792-0.664-2.72c-0.12-0.56-0.232-1.136-0.336-1.72c-0.168-0.904-0.312-1.832-0.44-2.776
		c-0.08-0.6-0.16-1.192-0.224-1.8c-0.104-1.056-0.16-2.128-0.2-3.208c-0.016-0.504-0.056-1-0.064-1.512
		c0-1.56,0.08-3.136,0.256-4.72c0.048-0.408,0.144-0.816,0.208-1.224c0.176-1.2,0.392-2.4,0.696-3.6
		c0.144-0.576,0.336-1.152,0.512-1.72c0.32-1.048,0.696-2.08,1.136-3.112c0.248-0.592,0.512-1.176,0.8-1.76
		c0.528-1.056,1.144-2.096,1.808-3.128c0.32-0.496,0.608-1,0.968-1.496c1.08-1.496,2.288-2.96,3.712-4.36
		c1.288-1.264,2.616-2.4,3.96-3.448c0.464-0.36,0.944-0.656,1.416-1c0.888-0.632,1.768-1.272,2.672-1.824
		c0.568-0.344,1.136-0.64,1.704-0.952c0.824-0.456,1.648-0.912,2.48-1.304c0.6-0.28,1.2-0.528,1.8-0.784
		c0.808-0.344,1.616-0.672,2.424-0.96c0.608-0.216,1.216-0.408,1.824-0.6c0.8-0.248,1.608-0.488,2.4-0.688
		c0.6-0.152,1.192-0.288,1.784-0.416c0.8-0.168,1.6-0.328,2.392-0.456c0.568-0.096,1.144-0.184,1.704-0.264
		c0.808-0.104,1.6-0.192,2.392-0.256c0.52-0.048,1.048-0.096,1.56-0.128c0.824-0.048,1.632-0.072,2.432-0.08
		c0.44-0.008,0.888-0.024,1.32-0.024c1.16,0.008,2.28,0.048,3.368,0.112c0.12,0.008,0.256,0.008,0.384,0.016
		C343.767,235.015,328.391,252.735,303.543,266.231z"/>
	<path style="fill:#141F38;" d="M293.391,147.367c-3.504-8.12-12.952-11.864-21.032-8.344
		c-47.232,20.408-52.424,62.664-52.624,64.456c-0.96,8.704,5.272,16.464,13.96,17.536c0.656,0.08,1.304,0.12,1.952,0.12
		c7.904,0,14.784-5.928,15.872-13.952c0.144-1.056,3.84-25.96,33.52-38.784C293.159,164.895,296.895,155.479,293.391,147.367z"/>
</g>
<g>
</g>
<g>
</g>
<g>
</g>
<g>
</g>
<g>
</g>
<g>
</g>
<g>
</g>
<g>
</g>
<g>
</g>
<g>
</g>
<g>
</g>
<g>
</g>
<g>
</g>
<g>
</g>
<g>
</g>
</svg>
