<?xml version="1.0" encoding="iso-8859-1"?>
<!-- Generator: Adobe Illustrator 19.0.0, SVG Export Plug-In . SVG Version: 6.00 Build 0)  -->
<svg version="1.1" id="Capa_1" xmlns="http://www.w3.org/2000/svg" xmlns:xlink="http://www.w3.org/1999/xlink" x="0px" y="0px"
	 viewBox="0 0 383.93 383.93" style="enable-background:new 0 0 383.93 383.93;" xml:space="preserve">
<path style="fill:#FFDC7B;" d="M185.466,305.466c22.288-22.2,22.288-58.184,0-80.368c-22.288-22.2-58.424-22.2-80.712,0
	c-22.272,22.184-22.272,58.168,0,80.368C127.05,327.666,163.178,327.666,185.466,305.466z"/>
<g>
	<path style="fill:#141F38;" d="M93.466,211.754c-13.808,13.752-21.416,32.04-21.416,51.504
		c-0.008,19.472,7.592,37.776,21.416,51.544c14.232,14.184,32.936,21.28,51.64,21.28c18.712,0,37.416-7.096,51.648-21.28
		c13.824-13.768,21.432-32.072,21.432-51.544c-0.008-19.464-7.616-37.752-21.432-51.504
		C168.29,183.402,121.954,183.378,93.466,211.754z M186.186,263.258c0,10.896-4.264,21.152-12.008,28.864
		c-16.032,15.96-42.112,15.968-58.128,0c-7.744-7.712-12.008-17.968-12-28.872c0-10.888,4.256-21.128,11.992-28.832
		c8.016-7.984,18.536-11.968,29.064-11.968s21.056,3.992,29.072,11.976C181.922,242.138,186.178,252.37,186.186,263.258z"/>
	<path style="fill:#141F38;" d="M233.426,4.658L59.482,177.89c-22.896,22.8-35.504,53.12-35.512,85.368
		c0,32.264,12.608,62.592,35.512,85.4c23.608,23.512,54.616,35.272,85.632,35.272c31.008,0,62.024-11.76,85.632-35.272l124.504-124
		c6.264-6.232,6.28-16.368,0.048-22.624c-6.224-6.264-16.368-6.28-22.624-0.048l-124.504,124
		c-34.784,34.624-91.344,34.616-126.112,0c-16.824-16.76-26.088-39.032-26.088-62.72c0.008-23.68,9.272-45.952,26.096-62.696
		L256.002,27.338c6.264-6.232,6.28-16.368,0.048-22.624C249.818-1.55,239.682-1.574,233.426,4.658z"/>
	<path style="fill:#141F38;" d="M296.93,89.49l-87.696,87.336c-6.264,6.232-6.28,16.368-0.048,22.624
		c3.128,3.144,7.224,4.712,11.336,4.712c4.088,0,8.168-1.552,11.288-4.664l87.696-87.344c6.264-6.232,6.28-16.368,0.048-22.624
		C313.33,83.274,303.186,83.25,296.93,89.49z"/>
	<path style="fill:#141F38;" d="M270.058,213.57c3.128,3.144,7.224,4.712,11.336,4.712c4.088,0,8.168-1.552,11.288-4.664
		l51.376-51.168c6.264-6.232,6.28-16.368,0.048-22.624c-6.224-6.256-16.368-6.28-22.624-0.048l-51.376,51.168
		C263.834,197.178,263.818,207.314,270.058,213.57z"/>
	<path style="fill:#141F38;" d="M206.786,150.834l43.416-43.24c6.264-6.232,6.28-16.368,0.048-22.624
		c-6.224-6.256-16.368-6.28-22.624-0.048l-43.416,43.24c-6.264,6.232-6.28,16.368-0.048,22.624
		c3.128,3.144,7.224,4.712,11.336,4.712C199.586,155.498,203.674,153.946,206.786,150.834z"/>
</g>
<g>
</g>
<g>
</g>
<g>
</g>
<g>
</g>
<g>
</g>
<g>
</g>
<g>
</g>
<g>
</g>
<g>
</g>
<g>
</g>
<g>
</g>
<g>
</g>
<g>
</g>
<g>
</g>
<g>
</g>
</svg>
