<?xml version="1.0" encoding="iso-8859-1"?>
<!-- Generator: Adobe Illustrator 19.0.0, SVG Export Plug-In . SVG Version: 6.00 Build 0)  -->
<svg version="1.1" id="Capa_1" xmlns="http://www.w3.org/2000/svg" xmlns:xlink="http://www.w3.org/1999/xlink" x="0px" y="0px"
	 viewBox="0 0 384 384" style="enable-background:new 0 0 384 384;" xml:space="preserve">
<path style="fill:#EDC45F;" d="M192.072,115.968l-68.712,88.048c-34.424,43.864-37.912,99.504,0,137.496
	c37.952,37.984,99.464,37.984,137.4,0c37.952-37.992,34.168-92.632,0-137.496L192.072,115.968z"/>
<ellipse style="fill:#FFE5AB;" cx="191.973" cy="275.389" rx="41.488" ry="41.488"/>
<g>
	<path style="fill:#141F38;" d="M192.008,330.88c15.352,0,29.784-5.984,40.632-16.84v-0.008c22.4-22.432,22.392-58.904,0-81.304
		c-10.848-10.872-25.28-16.856-40.632-16.856s-29.792,5.976-40.664,16.848c-22.376,22.4-22.376,58.872,0.016,81.32
		C162.216,324.904,176.656,330.88,192.008,330.88z M173.976,255.352c4.824-4.824,11.224-7.472,18.032-7.472
		c6.8,0,13.176,2.648,18,7.472c9.928,9.936,9.928,26.112-0.008,36.072c-9.616,9.632-26.408,9.6-36.008,0.008
		C164.064,281.472,164.056,265.288,173.976,255.352z"/>
	<path style="fill:#141F38;" d="M112.04,350.824C133.424,372.216,161.832,384,192.064,384s58.64-11.784,80.016-33.176
		c42.096-42.128,42.64-104.344,1.296-158.648l-68.688-88.048c-3.032-3.888-7.688-6.16-12.616-6.16c-4.928,0-9.576,2.272-12.616,6.16
		l-68.68,88.016C69.408,244.848,69.912,308.616,112.04,350.824z M135.976,211.856l56.096-71.88l55.96,71.728
		c24.624,32.344,37.928,79.936,1.408,116.496c-15.328,15.344-35.704,23.8-57.376,23.8s-42.056-8.448-57.376-23.784
		C104.072,297.536,104.568,251.88,135.976,211.856z"/>
	<path style="fill:#141F38;" d="M16,225.752c8.832,0,16-7.168,16-16V121.68c0-8.832-7.168-16-16-16c-8.84,0-16,7.168-16,16v88.072
		C0,218.592,7.16,225.752,16,225.752z"/>
	<path style="fill:#141F38;" d="M368,105.68c-8.84,0-16,7.168-16,16v88.072c0,8.832,7.16,16,16,16c8.832,0,16-7.168,16-16V121.68
		C384,112.848,376.832,105.68,368,105.68z"/>
	<path style="fill:#141F38;" d="M192,84.84c8.832,0,16-7.168,16-16V16c0-8.832-7.168-16-16-16c-8.84,0-16,7.168-16,16v52.84
		C176,77.672,183.16,84.84,192,84.84z"/>
	<path style="fill:#141F38;" d="M90.8,44.032c-8.832,0-16,7.168-16,16v70.456c0,8.832,7.168,16,16,16s16-7.168,16-16V60.032
		C106.8,51.2,99.632,44.032,90.8,44.032z"/>
	<path style="fill:#141F38;" d="M309.2,130.496V60.04c0-8.832-7.168-16-16-16s-16,7.168-16,16v70.456c0,8.832,7.168,16,16,16
		S309.2,139.328,309.2,130.496z"/>
</g>
<g>
</g>
<g>
</g>
<g>
</g>
<g>
</g>
<g>
</g>
<g>
</g>
<g>
</g>
<g>
</g>
<g>
</g>
<g>
</g>
<g>
</g>
<g>
</g>
<g>
</g>
<g>
</g>
<g>
</g>
</svg>
