<?xml version="1.0" encoding="iso-8859-1"?>
<!-- Generator: Adobe Illustrator 19.0.0, SVG Export Plug-In . SVG Version: 6.00 Build 0)  -->
<svg version="1.1" id="Capa_1" xmlns="http://www.w3.org/2000/svg" xmlns:xlink="http://www.w3.org/1999/xlink" x="0px" y="0px"
	 viewBox="0 0 384 384" style="enable-background:new 0 0 384 384;" xml:space="preserve">
<g>
	<ellipse style="fill:#FFDC7B;" cx="49.544" cy="53.328" rx="33.544" ry="35.328"/>
	<ellipse style="fill:#FFDC7B;" cx="74.696" cy="193.68" rx="33.536" ry="35.328"/>
	<ellipse style="fill:#FFDC7B;" cx="334.456" cy="334.672" rx="33.544" ry="35.328"/>
</g>
<path style="fill:#141F38;" d="M338.52,281.56l-9.16-31.832c0.032-0.032,0.08-0.056,0.112-0.088c7-7.016,10.848-16.416,10.832-26.48
	c-0.016-17.88-12.48-32.8-28.96-36.112l-17.52-60.944c7.992-6.904,13.12-17.184,12.944-28.736
	c-0.16-10.056-4.168-19.392-11.288-26.28c-6.832-6.608-15.696-10.048-25.12-9.992c-9.776,0.168-18.568,4.392-24.936,11.064
	L98.352,42.888C94.448,18.6,74.08,0,49.544,0C22.224,0,0,23.024,0,51.328C0,76.8,18.024,97.936,41.536,101.92l9.2,44.864
	c-15.232,8.768-25.576,25.592-25.576,44.896c0,28.304,22.224,51.328,49.536,51.328c20.896,0,38.776-13.496,46.04-32.504
	l152.592,30.552c1.688,3.112,3.672,6.064,6.232,8.624c5.36,5.352,12.096,8.672,19.328,9.84l8.664,30.12
	c-13.6,9.16-22.632,25.016-22.632,43.032c0,28.304,22.224,51.328,49.536,51.328c27.32,0,49.544-23.024,49.544-51.328
	C384,305.792,363.936,283.712,338.52,281.56z M82.224,141.008l-9.128-44.536c8.816-4.96,15.992-12.624,20.56-21.896l141.968,28.256
	c1.08,8.384,4.712,16.104,10.808,22c4.624,4.48,10.248,7.448,16.296,8.912l17.88,62.192c-3.664,3.4-6.672,7.512-8.72,12.2
	l-149.44-29.92C117.352,158.88,101.64,144.096,82.224,141.008z M32,51.328C32,40.672,39.872,32,49.544,32S67.08,40.672,67.08,51.328
	s-7.864,19.328-17.536,19.328S32,61.984,32,51.328z M74.696,211.008c-9.672,0-17.536-8.664-17.536-19.328
	s7.864-19.336,17.536-19.336c9.664,0,17.536,8.672,17.536,19.336C92.232,202.336,84.36,211.008,74.696,211.008z M334.456,352
	c-9.672,0-17.536-8.672-17.536-19.328s7.864-19.328,17.536-19.328S352,322.016,352,332.672S344.128,352,334.456,352z"/>
<g>
</g>
<g>
</g>
<g>
</g>
<g>
</g>
<g>
</g>
<g>
</g>
<g>
</g>
<g>
</g>
<g>
</g>
<g>
</g>
<g>
</g>
<g>
</g>
<g>
</g>
<g>
</g>
<g>
</g>
</svg>
