<?xml version="1.0" encoding="iso-8859-1"?>
<!-- Generator: Adobe Illustrator 19.0.0, SVG Export Plug-In . SVG Version: 6.00 Build 0)  -->
<svg version="1.1" id="Capa_1" xmlns="http://www.w3.org/2000/svg" xmlns:xlink="http://www.w3.org/1999/xlink" x="0px" y="0px"
	 viewBox="0 0 390.672 390.672" style="enable-background:new 0 0 390.672 390.672;" xml:space="preserve">
<ellipse transform="matrix(-0.4898 -0.8718 0.8718 -0.4898 118.6221 462.8079)" style="fill:#38B4C1;" cx="194.727" cy="196.696" rx="107.045" ry="190.058"/>
<ellipse transform="matrix(-0.4898 -0.8719 0.8719 -0.4898 118.6575 462.8361)" style="fill:#EBF3FF;" cx="194.76" cy="196.697" rx="58.347" ry="129.287"/>
<g>
	<path style="fill:#141F38;" d="M361,381.4l4.84-14.888l10.752-4.528c3.184-1.344,5.256-4.464,5.256-7.92
		c0-3.456-2.072-6.576-5.256-7.912l-10.752-4.536L361,326.728c-1.152-3.536-4.448-5.936-8.168-5.936s-7.016,2.392-8.168,5.936
		l-4.84,14.888l-10.752,4.536c-3.184,1.336-5.256,4.464-5.256,7.912c0,3.456,2.072,6.576,5.256,7.92l10.752,4.528l4.84,14.888
		c1.144,3.544,4.448,5.936,8.168,5.936S359.848,384.944,361,381.4z"/>
	<path style="fill:#141F38;" d="M46.016,63.944l4.84-14.888l10.752-4.536c3.184-1.336,5.256-4.464,5.256-7.912
		s-2.072-6.576-5.256-7.912L50.856,24.16l-4.84-14.888c-1.16-3.544-4.456-5.936-8.168-5.936c-3.72,0-7.024,2.392-8.168,5.936
		L24.84,24.16l-10.752,4.536c-3.184,1.336-5.256,4.464-5.256,7.912s2.072,6.576,5.256,7.912l10.752,4.536l4.84,14.888
		c1.152,3.536,4.448,5.936,8.168,5.936C41.56,69.872,44.864,67.48,46.016,63.944z"/>
	<path style="fill:#141F38;" d="M374.368,93.736c-16.96-30.192-52.312-46.848-99.536-46.88c-0.048,0-0.104,0-0.152,0
		c-43.864,0-93.648,14.408-140.2,40.592C33.752,144.072-18.672,235.552,15.128,295.696c16.96,30.192,52.304,46.848,99.536,46.88
		c0.056,0,0.104,0,0.152,0c43.856,0,93.648-14.416,140.2-40.592C355.752,245.36,408.176,153.888,374.368,93.736z M239.344,274.096
		c-41.856,23.528-86.064,36.488-124.528,36.488c-0.04,0-0.088,0-0.136,0c-35.16-0.024-60.608-10.88-71.656-30.56
		C18.848,237,67.904,161.584,150.16,115.336c41.848-23.528,86.064-36.48,124.52-36.48c0.04,0,0.088,0,0.136,0
		c35.168,0.024,60.616,10.872,71.664,30.552C370.656,152.44,321.592,227.856,239.344,274.096z"/>
	<path style="fill:#141F38;" d="M252.816,98.016c-28.896,2.552-62.448,13.88-94.48,31.888
		c-72.176,40.584-110.968,99.04-90.224,135.992c9.552,17.008,29.432,26.072,56.632,26.072c3.832,0,7.824-0.184,11.944-0.544
		c28.888-2.552,62.448-13.88,94.472-31.888c72.184-40.576,110.968-99.04,90.216-135.992
		C310.488,104.144,286.144,95.088,252.816,98.016z M215.488,231.64L215.488,231.64c-28.16,15.832-57.144,25.744-81.616,27.912
		c-19.152,1.672-33.68-1.88-37.856-9.32c-8.456-15.056,17.728-58.544,78-92.432c28.16-15.832,57.144-25.744,81.616-27.904
		c3.152-0.28,6.184-0.416,9.056-0.416c14.608,0,25.304,3.512,28.792,9.736C301.936,154.272,275.76,197.76,215.488,231.64z"/>
	<path style="fill:#141F38;" d="M376.728,280.96c-7.688,0-13.952,6.256-13.952,13.936c0,7.696,6.256,13.952,13.952,13.952
		c7.688,0,13.944-6.256,13.944-13.952C390.672,287.216,384.416,280.96,376.728,280.96z"/>
	<path style="fill:#141F38;" d="M13.944,109.712c7.688,0,13.952-6.256,13.952-13.936c0-7.696-6.256-13.96-13.952-13.96
		C6.256,81.816,0,88.08,0,95.776C0,103.456,6.256,109.712,13.944,109.712z"/>
	<path style="fill:#141F38;" d="M88.792,25.672c0,7.688,6.256,13.944,13.944,13.944s13.952-6.256,13.952-13.944
		c0-7.696-6.256-13.96-13.952-13.96C95.048,11.712,88.792,17.976,88.792,25.672z"/>
	<path style="fill:#141F38;" d="M301.88,365c0-7.68-6.256-13.936-13.944-13.936S273.984,357.32,273.984,365
		c0,7.696,6.256,13.96,13.952,13.96C295.624,378.96,301.88,372.696,301.88,365z"/>
</g>
<g>
</g>
<g>
</g>
<g>
</g>
<g>
</g>
<g>
</g>
<g>
</g>
<g>
</g>
<g>
</g>
<g>
</g>
<g>
</g>
<g>
</g>
<g>
</g>
<g>
</g>
<g>
</g>
<g>
</g>
</svg>
