<?xml version="1.0" encoding="iso-8859-1"?>
<!-- Generator: Adobe Illustrator 19.0.0, SVG Export Plug-In . SVG Version: 6.00 Build 0)  -->
<svg version="1.1" id="Capa_1" xmlns="http://www.w3.org/2000/svg" xmlns:xlink="http://www.w3.org/1999/xlink" x="0px" y="0px"
	 viewBox="0 0 384.002 384.002" style="enable-background:new 0 0 384.002 384.002;" xml:space="preserve">
<rect x="80.161" y="55.281" style="fill:#38B4C1;" width="101.52" height="109.76"/>
<polygon style="fill:#FFDC7B;" points="251.841,160.081 284.161,211.201 181.681,211.201 181.681,108.401 284.161,108.401 "/>
<g>
	<path style="fill:#141F38;" d="M272.161,304.913c13.072,4.608,16.376,24.672,16.392,24.776c0.616,4.576,3.168,8.664,7.016,11.208
		c24.744,16.408,34.072,34.136,34.104,34.192c2.784,5.648,8.456,8.912,14.352,8.912c2.384,0,4.8-0.536,7.08-1.664
		c7.92-3.912,11.168-13.512,7.256-21.432c-1.184-2.4-11.848-22.856-39.552-42.848c-3.888-15.024-14.432-35.728-36.008-43.336
		c-20.808-7.312-39.592,0.488-51.008,8.952c-14.992-2.368-32.624-3.688-49.624-3.688c-0.704,0-1.368,0.12-2.048,0.208
		c-0.976-0.184-1.984-0.304-3.016-0.304c-16.64,0-33.696,1.328-48.896,3.776c-7.8-5.776-19.08-11.136-32.04-11.688v-92.936h69.52
		v30.16c0,8.832,7.168,16,16,16h102.48c5.832,0,11.2-3.168,14.016-8.28c2.816-5.104,2.624-11.336-0.496-16.272l-26.944-42.616
		l26.992-43.152c3.08-4.936,3.248-11.152,0.432-16.24c-2.824-5.088-8.176-8.248-14-8.248h-86.488v-37.12c0-8.832-7.16-16-16-16
		h-85.52v-2.8c0-8.832-7.168-16-16-16s-16,7.168-16,16v18.8v109.76v118.8c-12.928,9.728-19.952,24.632-22.952,36.224
		c-27.728,19.992-38.376,40.456-39.56,42.856c-3.888,7.88-0.664,17.352,7.176,21.312c2.296,1.16,4.736,1.704,7.152,1.704
		c5.832,0,11.472-3.2,14.312-8.728c0.088-0.176,9.4-17.896,34.152-34.304c3.848-2.552,6.408-6.64,7.016-11.216
		c0.024-0.2,3.256-20.152,16.384-24.776c12.672-4.464,23.72,6.496,24.072,6.848c3.768,3.976,9.288,5.744,14.672,4.688
		c15.032-2.944,32.968-4.56,50.504-4.56c0.704,0,1.368-0.12,2.048-0.208c0.976,0.184,1.984,0.304,3.016,0.304
		c18.064,0,36.744,1.624,51.248,4.464c5.248,1.008,10.792-0.768,14.56-4.576C248.433,311.409,259.505,300.449,272.161,304.913z
		 M255.281,122.401l-17.008,27.192c-3.264,5.216-3.24,11.832,0.04,17.032l16.8,26.568h-57.432v-30.16v-40.632H255.281z
		 M165.681,106.401v40.64h-69.52v-77.76h69.52V106.401z"/>
	<path style="fill:#141F38;" d="M336.825,4.737c-6.216-6.272-16.352-6.32-22.624-0.104l-25.808,25.576
		c-6.28,6.216-6.328,16.352-0.104,22.624c3.128,3.16,7.248,4.736,11.36,4.736c4.072,0,8.144-1.544,11.264-4.64l25.808-25.576
		C343.001,21.145,343.049,11.017,336.825,4.737z"/>
	<path style="fill:#141F38;" d="M379.321,108.897c-6.24-6.248-16.368-6.256-22.624-0.016l-33.912,33.856
		c-6.256,6.24-6.264,16.368-0.016,22.624c3.128,3.128,7.224,4.696,11.32,4.696c4.088,0,8.184-1.56,11.304-4.68l33.912-33.864
		C385.561,125.281,385.569,115.153,379.321,108.897z"/>
	<path style="fill:#141F38;" d="M111.137,351.809c-6.72,5.536-7.648,15.336-2.24,22.168c3.136,3.96,7.808,6.016,12.544,6.016
		c3.432,0,6.888-1.08,9.808-3.296c0.144-0.112,15.128-11.176,48.768-11.176c33.512,0,48.504,10.984,48.512,10.984l0,0
		c2.984,2.464,6.584,3.656,10.168,3.656c4.616,0,9.192-1.984,12.352-5.824c5.624-6.816,4.648-16.904-2.168-22.52
		c-2.272-1.872-23.488-18.288-68.864-18.288S113.401,349.937,111.137,351.809z"/>
</g>
<g>
</g>
<g>
</g>
<g>
</g>
<g>
</g>
<g>
</g>
<g>
</g>
<g>
</g>
<g>
</g>
<g>
</g>
<g>
</g>
<g>
</g>
<g>
</g>
<g>
</g>
<g>
</g>
<g>
</g>
</svg>
