<?xml version="1.0" encoding="iso-8859-1"?>
<!-- Generator: Adobe Illustrator 19.0.0, SVG Export Plug-In . SVG Version: 6.00 Build 0)  -->
<svg version="1.1" id="Capa_1" xmlns="http://www.w3.org/2000/svg" xmlns:xlink="http://www.w3.org/1999/xlink" x="0px" y="0px"
	 viewBox="0 0 384 384" style="enable-background:new 0 0 384 384;" xml:space="preserve">
<path style="fill:#FFDC7B;" d="M107.36,199.12c0.08,62.64-59.04,96.56-59.04,96.56C27.92,267.04,16,231.92,16,194
	c0-33.44,9.36-64.72,25.52-91.36C41.52,102.64,107.28,143.92,107.36,199.12z"/>
<path style="fill:#38B4C1;" d="M353.68,263.52c-13.04,30.48-34.64,56.56-61.6,75.28l-10.4-9.44c0,0-28.24-22.08-65.52-15.36
	c-29.76,5.36-48.48,30.56-54.32,41.6l-4,11.04c-45.04-8.8-83.92-34.8-109.52-70.96c0,0,59.12-33.92,59.04-96.56
	c-0.08-55.2-65.84-96.48-65.84-96.48C72.4,51.92,128.24,18,192,18c11.6,0,22.96,1.12,33.92,3.28l-6.96,7.36
	c0,0-42.96,40.4-29.36,80.48c12.24,35.92,61.2,46.48,61.2,46.48s35.12,9.84,22.88,43.28c-12.24,33.52,0,47.36,27.76,58
	C301.44,256.88,346.96,274.64,353.68,263.52z"/>
<g>
	<path style="fill:#FFDC7B;" d="M368,194c0,24.72-5.04,48.16-14.32,69.52c-6.72,11.12-52.24-6.64-52.24-6.64
		c-27.76-10.64-40-24.48-27.76-58c12.24-33.44-22.88-43.28-22.88-43.28s-48.96-10.56-61.2-46.48
		c-13.6-40.08,29.36-80.48,29.36-80.48l6.96-7.36C306.88,37.04,368,108.4,368,194z"/>
	<path style="fill:#FFDC7B;" d="M292.08,338.8C263.68,358.48,229.2,370,192,370c-11.68,0-23.12-1.12-34.16-3.36l4-11.04
		c5.84-11.04,24.56-36.24,54.32-41.6c37.28-6.72,65.52,15.36,65.52,15.36L292.08,338.8z"/>
</g>
<path style="fill:#141F38;" d="M229.032,3.584c-0.008,0-0.008-0.008-0.016-0.008s-0.016,0-0.016,0c-0.008,0-0.016,0-0.024-0.008
	c-0.008,0-0.016,0-0.024,0C216.912,1.208,204.48,0,192,0C124.408,0,63.056,34.504,27.864,92.312
	c-0.008,0.008-0.016,0.016-0.024,0.032C9.624,122.36,0,156.824,0,192c0,40.16,12.192,78.512,35.264,110.92l0,0l0,0
	c0.008,0.008,0.016,0.024,0.024,0.032c0.008,0.008,0.024,0.016,0.024,0.032c28.616,40.384,70.976,67.832,119.296,77.312
	c0.016,0,0.032,0.008,0.048,0.016c0.016,0,0.032,0.008,0.048,0.008c0.024,0,0.04,0.008,0.064,0.016c0.016,0,0.032,0,0.056,0.008
	C166.816,382.768,179.32,384,192,384c39.288,0,77.048-11.776,109.192-34.048c0.016-0.008,0.032-0.024,0.048-0.04
	c29.808-20.712,53.032-49.096,67.152-82.104c0.008-0.024,0.016-0.048,0.024-0.072C378.752,243.896,384,218.416,384,192
	C384,100.328,318.832,21.096,229.032,3.584z M46.896,124.504c1.352,1.104,2.776,2.32,4.224,3.576c0.4,0.344,0.8,0.704,1.208,1.064
	c1.296,1.144,2.624,2.352,3.968,3.608c0.28,0.264,0.56,0.512,0.84,0.784c1.552,1.472,3.128,3.04,4.704,4.648
	c0.416,0.424,0.832,0.872,1.256,1.304c1.296,1.36,2.584,2.76,3.864,4.2c0.368,0.416,0.744,0.824,1.112,1.256
	c1.544,1.784,3.064,3.624,4.544,5.528c0.368,0.464,0.712,0.952,1.072,1.424c1.184,1.568,2.344,3.176,3.456,4.816
	c0.368,0.544,0.744,1.072,1.104,1.624c1.344,2.048,2.624,4.144,3.816,6.288c0.248,0.44,0.464,0.896,0.696,1.336
	c0.968,1.808,1.864,3.648,2.696,5.52c0.272,0.616,0.552,1.232,0.808,1.856c0.944,2.28,1.808,4.6,2.512,6.96
	c0.096,0.312,0.152,0.624,0.24,0.936c0.592,2.104,1.064,4.232,1.44,6.392c0.112,0.664,0.224,1.328,0.312,1.992
	c0.344,2.48,0.584,4.976,0.584,7.512v0.008c0,2.928-0.2,5.752-0.496,8.536c-0.08,0.72-0.168,1.424-0.256,2.136
	c-0.336,2.48-0.752,4.92-1.296,7.288c-0.056,0.248-0.096,0.512-0.152,0.752c-0.616,2.6-1.384,5.104-2.216,7.552
	c-0.208,0.608-0.432,1.208-0.648,1.808c-0.76,2.072-1.584,4.104-2.48,6.064c-0.16,0.36-0.304,0.728-0.472,1.08
	c-1.056,2.248-2.2,4.416-3.4,6.52c-0.288,0.504-0.584,0.992-0.88,1.488c-1.024,1.72-2.08,3.4-3.168,5.016
	c-0.264,0.4-0.528,0.808-0.8,1.2c-1.304,1.888-2.656,3.696-4.016,5.432c-0.328,0.408-0.648,0.8-0.976,1.2
	c-1.128,1.392-2.264,2.728-3.408,4.016c-0.352,0.392-0.696,0.8-1.048,1.184c-1.368,1.504-2.736,2.944-4.088,4.296
	c-0.328,0.328-0.648,0.624-0.968,0.944c-1.088,1.064-2.16,2.08-3.216,3.048c-0.392,0.36-0.784,0.72-1.168,1.064
	c-1.208,1.08-2.392,2.104-3.528,3.048C39.104,246.968,32,220.024,32,192C32,168.592,37.112,145.568,46.896,124.504z
	 M182.256,351.704c0.056-0.064,0.088-0.128,0.144-0.192c0.112-0.136,0.248-0.288,0.36-0.424c1.056-1.304,2.216-2.632,3.448-3.96
	c0.392-0.424,0.816-0.856,1.224-1.28c1.08-1.12,2.232-2.224,3.432-3.32c0.448-0.408,0.88-0.816,1.344-1.224
	c1.664-1.44,3.408-2.856,5.272-4.176c0.144-0.096,0.296-0.184,0.44-0.28c1.712-1.192,3.512-2.304,5.384-3.336
	c0.608-0.336,1.24-0.648,1.872-0.968c1.536-0.776,3.12-1.48,4.752-2.12c0.664-0.264,1.32-0.536,2-0.768
	c2.28-0.784,4.616-1.464,7.064-1.904c2.152-0.384,4.264-0.616,6.344-0.776c0.544-0.04,1.08-0.064,1.616-0.096
	c1.664-0.088,3.304-0.112,4.912-0.072c0.4,0.008,0.808,0,1.208,0.016c1.984,0.088,3.92,0.248,5.8,0.488
	c0.24,0.032,0.464,0.072,0.704,0.112c1.648,0.232,3.24,0.512,4.792,0.84c0.408,0.088,0.816,0.176,1.224,0.264
	c1.592,0.36,3.136,0.76,4.616,1.2c0.112,0.032,0.232,0.064,0.344,0.096c1.624,0.488,3.168,1.016,4.648,1.568
	c0.28,0.104,0.536,0.208,0.808,0.312c1.208,0.464,2.368,0.936,3.456,1.416c0.232,0.104,0.48,0.208,0.704,0.304
	c1.256,0.568,2.456,1.136,3.528,1.68C238.72,347.648,210.36,353.392,182.256,351.704z M293.04,316.064l-0.608-0.552
	c-0.296-0.264-0.592-0.512-0.904-0.76c-1.376-1.08-34.352-26.384-78.208-18.504c-2.616,0.472-5.144,1.056-7.592,1.752
	c-0.752,0.208-1.44,0.488-2.176,0.712c-1.672,0.52-3.352,1.032-4.944,1.64c-0.832,0.32-1.608,0.696-2.424,1.04
	c-1.424,0.6-2.864,1.176-4.216,1.832c-0.832,0.4-1.6,0.856-2.4,1.272c-1.272,0.664-2.552,1.312-3.768,2.024
	c-0.792,0.464-1.528,0.968-2.296,1.456c-1.144,0.72-2.304,1.424-3.392,2.176c-0.752,0.52-1.448,1.064-2.176,1.6
	c-1.024,0.752-2.072,1.496-3.04,2.272c-0.704,0.56-1.352,1.136-2.032,1.704c-0.92,0.776-1.856,1.544-2.728,2.32
	c-0.648,0.584-1.248,1.168-1.872,1.76c-0.824,0.776-1.656,1.552-2.424,2.32c-0.592,0.6-1.136,1.184-1.704,1.784
	c-0.72,0.76-1.456,1.52-2.128,2.264c-0.536,0.6-1.024,1.176-1.536,1.768c-0.632,0.728-1.264,1.456-1.848,2.168
	c-0.472,0.576-0.896,1.12-1.336,1.68c-0.544,0.696-1.096,1.384-1.592,2.04c-0.408,0.536-0.768,1.04-1.144,1.552
	c-0.456,0.632-0.92,1.256-1.336,1.856c-0.344,0.496-0.64,0.936-0.952,1.4c-0.376,0.56-0.752,1.112-1.08,1.624
	c-0.28,0.424-0.512,0.8-0.752,1.192c-0.296,0.464-0.584,0.92-0.832,1.336c-0.216,0.352-0.384,0.64-0.56,0.944
	c-0.216,0.368-0.416,0.712-0.592,1.016c-0.144,0.256-0.24,0.424-0.352,0.624c-0.072,0.136-0.184,0.328-0.248,0.44
	C118.08,337.36,91.6,320.48,71.256,297.032c0.376-0.304,0.784-0.656,1.176-0.968c0.408-0.336,0.808-0.672,1.232-1.016
	c1.464-1.224,2.976-2.52,4.536-3.92c0.224-0.2,0.44-0.384,0.664-0.584c1.752-1.592,3.552-3.312,5.376-5.128
	c0.416-0.416,0.832-0.856,1.256-1.28c1.488-1.512,2.976-3.104,4.472-4.76c0.448-0.496,0.888-0.968,1.336-1.48
	c1.84-2.096,3.68-4.28,5.488-6.592c0.272-0.344,0.528-0.712,0.792-1.056c1.536-2,3.04-4.088,4.52-6.256
	c0.472-0.688,0.936-1.384,1.4-2.096c1.56-2.376,3.072-4.816,4.52-7.376c0.144-0.256,0.296-0.488,0.44-0.744
	c1.544-2.776,2.984-5.68,4.352-8.664c0.368-0.8,0.704-1.616,1.056-2.424c1.056-2.44,2.04-4.952,2.944-7.536
	c0.272-0.768,0.56-1.512,0.816-2.296c1.072-3.256,2.016-6.6,2.816-10.064c0.168-0.712,0.28-1.456,0.432-2.176
	c0.6-2.872,1.088-5.808,1.48-8.816c0.136-1.032,0.264-2.056,0.368-3.104c0.376-3.768,0.64-7.608,0.632-11.584v-0.008v-0.008
	c-0.008-3.56-0.296-7.048-0.728-10.488c-0.128-1.032-0.304-2.04-0.464-3.064c-0.4-2.528-0.896-5.008-1.504-7.464
	c-0.232-0.952-0.44-1.904-0.704-2.848c-0.896-3.224-1.904-6.392-3.096-9.472c-0.144-0.368-0.312-0.712-0.464-1.08
	c-1.104-2.76-2.312-5.448-3.616-8.088c-0.464-0.936-0.944-1.848-1.424-2.768c-1.136-2.16-2.328-4.28-3.568-6.352
	c-0.472-0.784-0.92-1.576-1.408-2.352c-1.704-2.712-3.472-5.36-5.312-7.912c-0.344-0.472-0.704-0.92-1.056-1.392
	c-1.568-2.112-3.16-4.168-4.784-6.16c-0.632-0.768-1.256-1.52-1.888-2.264c-1.496-1.768-2.992-3.472-4.504-5.136
	c-0.528-0.576-1.04-1.168-1.568-1.728c-1.992-2.128-3.976-4.168-5.944-6.104c-0.448-0.44-0.872-0.832-1.32-1.256
	c-1.584-1.528-3.144-2.992-4.68-4.392c-0.608-0.552-1.192-1.08-1.792-1.608c-1.48-1.312-2.92-2.56-4.328-3.744
	c-0.408-0.344-0.824-0.704-1.224-1.04c-1.592-1.32-3.128-2.568-4.576-3.704C93.808,55.6,141.44,31.44,193.256,32
	c-0.8,1.088-1.616,2.224-2.432,3.392c-0.144,0.208-0.288,0.416-0.424,0.624c-1.016,1.472-2.032,3.024-3.04,4.624
	c-0.312,0.496-0.616,0.984-0.928,1.488c-1.112,1.816-2.224,3.672-3.288,5.616c-0.048,0.096-0.096,0.192-0.152,0.28
	c-1.024,1.872-1.992,3.824-2.944,5.808c-0.248,0.528-0.496,1.048-0.736,1.584c-0.976,2.136-1.912,4.312-2.768,6.56
	c-0.008,0.016-0.016,0.04-0.024,0.056c-0.832,2.208-1.568,4.488-2.24,6.792c-0.16,0.56-0.32,1.112-0.472,1.672
	c-1.288,4.736-2.192,9.648-2.592,14.688c-0.048,0.576-0.08,1.152-0.112,1.728c-0.28,5.088-0.016,10.288,0.912,15.568
	c0.104,0.592,0.216,1.176,0.336,1.768c0.544,2.664,1.2,5.328,2.112,8.016c9.784,28.696,36.856,43.976,55.144,51.272
	c8.32,3.32,14.816,4.984,17.056,5.512c1.304,0.456,9.464,3.488,12.456,9.336c0.616,1.208,2.504,4.888-0.464,12.984
	c-18.44,50.496,12.32,68.944,36.976,78.392c2.888,1.128,5.648,2.144,8.304,3.08c0.936,0.328,1.792,0.6,2.696,0.904
	c1.672,0.568,3.344,1.136,4.928,1.624c1.008,0.312,1.96,0.584,2.928,0.864c1.384,0.408,2.76,0.808,4.072,1.16
	c0.96,0.256,1.88,0.48,2.808,0.712c1.224,0.304,2.432,0.592,3.584,0.84c0.384,0.08,0.808,0.2,1.176,0.28
	C317.136,293.088,305.984,305.504,293.04,316.064z M341.472,249.12c-0.232-0.016-0.432-0.016-0.672-0.04
	c-0.448-0.04-0.936-0.104-1.424-0.168c-0.624-0.08-1.272-0.176-1.96-0.288c-0.536-0.088-1.088-0.184-1.656-0.288
	c-0.744-0.136-1.52-0.296-2.32-0.464c-0.6-0.128-1.2-0.256-1.824-0.4c-0.856-0.192-1.736-0.408-2.632-0.632
	c-0.64-0.16-1.272-0.312-1.928-0.488c-0.944-0.248-1.912-0.512-2.888-0.792c-0.656-0.184-1.296-0.36-1.96-0.552
	c-1.032-0.304-2.08-0.624-3.128-0.952c-0.632-0.2-1.256-0.384-1.888-0.584c-1.16-0.376-2.312-0.768-3.472-1.168
	c-0.528-0.184-1.056-0.352-1.584-0.536c-1.68-0.592-3.344-1.208-4.968-1.84c-21.864-8.384-26.944-14.328-18.464-37.56
	c6.424-17.536,2.936-30.656-1.112-38.568c-9.608-18.744-30.168-24.968-32.48-25.616c-0.272-0.08-0.608-0.16-0.888-0.224
	c-0.408-0.088-40.352-9.248-49.472-35.992c-8.368-24.68,15.352-54.36,25.168-63.688c0.224-0.216,0.448-0.432,0.664-0.656
	l0.728-0.768C301.744,54.584,352,118.488,352,192C352,211.84,348.464,231.024,341.472,249.12z"/>
<g>
</g>
<g>
</g>
<g>
</g>
<g>
</g>
<g>
</g>
<g>
</g>
<g>
</g>
<g>
</g>
<g>
</g>
<g>
</g>
<g>
</g>
<g>
</g>
<g>
</g>
<g>
</g>
<g>
</g>
</svg>
