<?xml version="1.0" encoding="iso-8859-1"?>
<!-- Generator: Adobe Illustrator 19.0.0, SVG Export Plug-In . SVG Version: 6.00 Build 0)  -->
<svg version="1.1" id="Capa_1" xmlns="http://www.w3.org/2000/svg" xmlns:xlink="http://www.w3.org/1999/xlink" x="0px" y="0px"
	 viewBox="0 0 384 384" style="enable-background:new 0 0 384 384;" xml:space="preserve">
<g>
	<circle style="fill:#38B4C1;" cx="64" cy="322" r="24"/>
	<circle style="fill:#38B4C1;" cx="320" cy="66" r="24"/>
</g>
<path style="fill:#FFDC7B;" d="M301.92,175.2c0,0-41.6,11.28-69.68-16.8c-24.08-24.16-14.32-70.4-13.76-72.72
	c19.2,4.64,37.44,14.48,52.4,29.44C287.84,132.08,298.16,153.2,301.92,175.2z"/>
<path style="fill:#38B4C1;" d="M300.24,221.04h-0.08l-2.32-1.12c-10.72-2-41.68-5.76-65.44,18.4c-24.48,25.04-19.36,65.2-19.36,65.2
	c-20.72,4-42.4,2-62.32-5.92c8,1.92,20.4-26.4,20.4-26.4c7.68-17.2,6.96-28.88-13.52-38.4s-9.12-29.6-9.12-29.6
	s17.2-26.72,6.56-48.32C143.2,130.8,105.84,132,105.84,132h-6.56c4-6,8.56-11.6,13.84-16.88c28.56-28.56,68.8-38.4,105.36-29.44
	c-0.56,2.32-10.32,48.56,13.76,72.72c28.08,28.08,69.68,16.8,69.68,16.8C304.48,190.4,303.92,206,300.24,221.04z"/>
<g>
	<path style="fill:#FFDC7B;" d="M171.12,271.2c0,0-12.4,28.32-20.4,26.4c-13.68-5.36-26.56-13.68-37.6-24.72
		C74.88,234.56,70.24,175.36,99.28,132h6.56c0,0,37.36-1.2,49.2,22.88c10.64,21.6-6.56,48.32-6.56,48.32s-11.36,20.08,9.12,29.6
		C178.08,242.32,178.8,254,171.12,271.2z"/>
	<path style="fill:#FFDC7B;" d="M300.16,221.04c-4.64,19.04-14.48,37.04-29.28,51.84c-16.4,16.4-36.64,26.56-57.84,30.64
		c0,0-5.12-40.16,19.36-65.2c23.76-24.16,54.72-20.4,65.44-18.4L300.16,221.04z"/>
</g>
<g>
	<path style="fill:#141F38;" d="M360,64c0-22.056-17.944-40-40-40c-8.552,0-16.448,2.752-22.96,7.344
		C265.832,10.824,229.824,0,192,0C86.128,0,0,86.128,0,192c0,37.824,10.824,73.832,31.344,105.04C26.752,303.552,24,311.448,24,320
		c0,22.056,17.944,40,40,40c8.552,0,16.448-2.752,22.96-7.344C118.168,373.176,154.176,384,192,384c105.872,0,192-86.128,192-192
		c0-37.824-10.824-73.832-31.344-105.04C357.248,80.448,360,72.552,360,64z M328,64c0,4.408-3.592,8-8,8s-8-3.592-8-8s3.592-8,8-8
		S328,59.592,328,64z M56,320c0-4.408,3.592-8,8-8c4.408,0,8,3.592,8,8s-3.592,8-8,8C59.592,328,56,324.408,56,320z M192,352
		c-31.928,0-62.296-9.288-88.528-26.816c0.232-1.72,0.528-3.408,0.528-5.184c0-22.056-17.944-40-40-40
		c-1.776,0-3.472,0.296-5.184,0.52C41.288,254.296,32,223.928,32,192c0-88.224,71.776-160,160-160
		c31.928,0,62.296,9.288,88.52,26.816C280.296,60.528,280,62.224,280,64c0,22.056,17.944,40,40,40c1.776,0,3.464-0.296,5.184-0.528
		C342.712,129.704,352,160.072,352,192C352,280.224,280.224,352,192,352z"/>
	<path style="fill:#141F38;" d="M317.688,170.52c0-0.008,0-0.008,0-0.016c-4.472-26.2-16.752-49.96-35.496-68.696
		c-16.264-16.272-36.584-27.768-58.808-33.36c-0.808-0.264-1.64-0.472-2.496-0.608c-43.208-10.096-87.64,2.52-119.08,33.96
		c-5.96,5.952-11.136,12.264-15.824,19.288l-0.008,0.008l0,0c-0.008,0.008-0.008,0.016-0.016,0.024
		c-0.008,0.008-0.008,0.016-0.008,0.024c-33.696,50.352-27.04,118.072,15.848,161.04c12.416,12.424,26.864,21.92,42.928,28.24
		c0.024,0.008,0.048,0.032,0.072,0.04c0.016,0.008,0.024,0.008,0.04,0.016c0.008,0.008,0.016,0.008,0.032,0.016
		c0.032,0.016,0.072,0.024,0.112,0.032c15.088,5.976,31.016,9.008,47.008,9.008c8.04,0,16.104-0.768,24.08-2.304
		c0.008,0,0.016-0.008,0.024-0.008c25.176-4.848,48.032-16.96,66.096-35.032c16.12-16.12,27.52-36.128,33.112-57.936
		c0.16-0.472,0.352-0.92,0.472-1.416c4.216-17.216,4.864-34.816,1.92-52.304C317.696,170.536,317.696,170.528,317.688,170.52z
		 M281.808,159.392c-0.416,0-0.856-0.024-1.28-0.032c-0.864-0.016-1.728-0.04-2.632-0.088c-0.592-0.032-1.208-0.096-1.816-0.144
		c-0.88-0.072-1.76-0.152-2.656-0.264c-0.64-0.08-1.296-0.184-1.952-0.288c-0.896-0.136-1.808-0.296-2.72-0.48
		c-0.672-0.136-1.344-0.288-2.016-0.448c-0.92-0.216-1.84-0.472-2.768-0.736c-0.68-0.2-1.352-0.408-2.032-0.632
		c-0.936-0.312-1.88-0.68-2.816-1.056c-0.664-0.264-1.32-0.528-1.984-0.824c-0.968-0.44-1.92-0.944-2.88-1.456
		c-0.608-0.328-1.224-0.632-1.832-0.992c-1.04-0.616-2.048-1.32-3.056-2.04c-0.496-0.352-1.008-0.664-1.496-1.04
		c-1.48-1.144-2.92-2.384-4.312-3.768c-1.104-1.104-2.072-2.32-2.984-3.592c-0.28-0.392-0.536-0.808-0.8-1.216
		c-0.608-0.936-1.184-1.896-1.704-2.896c-0.24-0.464-0.48-0.928-0.704-1.408c-0.52-1.096-0.984-2.232-1.416-3.384
		c-0.136-0.376-0.296-0.736-0.424-1.112c-0.528-1.544-0.992-3.12-1.384-4.728c-0.08-0.312-0.128-0.632-0.2-0.944
		c-0.304-1.32-0.568-2.648-0.784-3.992c-0.088-0.512-0.16-1.032-0.232-1.552c-0.168-1.2-0.312-2.408-0.432-3.608
		c-0.048-0.48-0.096-0.96-0.136-1.44c-0.12-1.504-0.208-2.992-0.256-4.464c0-0.128-0.016-0.264-0.016-0.4
		c-0.048-1.648-0.04-3.256-0.008-4.832c0-0.096,0.008-0.184,0.008-0.272c10.16,4.68,19.472,11.16,27.48,19.168
		C269.544,134.416,277.08,146.296,281.808,159.392z M108.248,146.024c0.2,0.008,0.336,0,0.552,0.008
		c0.424,0.016,0.928,0.056,1.408,0.088c0.696,0.04,1.44,0.104,2.232,0.184c0.632,0.064,1.304,0.152,1.984,0.232
		c0.792,0.104,1.616,0.224,2.464,0.36c0.768,0.128,1.56,0.272,2.36,0.432c0.84,0.168,1.696,0.376,2.56,0.584
		c0.832,0.208,1.672,0.424,2.512,0.672c0.872,0.264,1.736,0.576,2.6,0.888c0.808,0.288,1.616,0.576,2.4,0.92
		c0.896,0.384,1.728,0.848,2.576,1.304c0.688,0.368,1.4,0.712,2.04,1.128c0.904,0.584,1.688,1.28,2.488,1.96
		c0.464,0.4,1,0.752,1.416,1.192c1.144,1.192,2.128,2.496,2.856,3.976c5.328,10.808-2.528,27.616-5.656,32.592
		c-0.168,0.256-0.328,0.512-0.472,0.784c-1.432,2.528-8.328,15.896-3.6,30.648c2.08,6.48,7.224,15.448,19.896,21.336
		c10.488,4.872,10.8,5.848,5.608,17.472c-0.64,1.464-1.376,2.992-2.128,4.504c-0.232,0.464-0.472,0.92-0.712,1.384
		c-0.552,1.064-1.112,2.112-1.672,3.136c-0.256,0.464-0.512,0.92-0.768,1.368c-0.616,1.08-1.224,2.088-1.816,3.032
		c-0.168,0.272-0.344,0.576-0.512,0.832c-0.048,0.072-0.08,0.112-0.128,0.184c-8.904-4.488-17.048-10.392-24.288-17.632
		C94.288,229.352,88.032,182.808,108.248,146.024z M180.352,286.816c0.072-0.136,0.152-0.304,0.224-0.44
		c0.344-0.648,0.696-1.368,1.048-2.048c0.504-0.976,1-1.92,1.504-2.96c0.872-1.8,1.744-3.688,2.624-5.704
		c0.928-2.088,1.536-4.056,2.232-6.056c0.44-1.248,1.04-2.552,1.392-3.768c0.512-1.776,0.712-3.44,1.032-5.144
		c0.256-1.336,0.664-2.736,0.8-4.024c0.152-1.432,0.008-2.76,0.016-4.136c0.008-1.456,0.16-2.96,0.008-4.352
		c-0.136-1.272-0.56-2.432-0.832-3.648c-0.304-1.384-0.472-2.824-0.944-4.136c-0.488-1.344-1.28-2.568-1.944-3.848
		c-0.56-1.08-0.96-2.216-1.64-3.248c-0.896-1.352-2.12-2.568-3.232-3.832c-0.744-0.84-1.312-1.744-2.152-2.552
		c-1.936-1.856-4.184-3.584-6.624-5.232c-0.2-0.136-0.344-0.296-0.552-0.432c-2.696-1.768-5.688-3.424-8.976-4.952
		c-1.92-0.896-2.792-1.736-2.912-2.088c-0.352-1.04,0.256-3.616,0.896-4.984c3.52-5.688,20.656-35.816,7.064-63.408
		c-8.104-16.472-23.608-24.448-37.288-28.296c19.384-15.664,43.776-22.984,68.424-20.688c-0.024,0.312-0.032,0.68-0.048,1
		c-0.12,1.672-0.2,3.424-0.264,5.256c-0.024,0.648-0.056,1.248-0.072,1.912c-0.048,2.48-0.04,5.064,0.064,7.744
		c0.016,0.504,0.072,1.016,0.096,1.52c0.112,2.2,0.288,4.448,0.528,6.736c0.096,0.872,0.208,1.744,0.328,2.632
		c0.272,2.104,0.632,4.224,1.048,6.36c0.16,0.824,0.296,1.632,0.48,2.456c0.64,2.896,1.4,5.792,2.344,8.664
		c0.112,0.336,0.264,0.672,0.384,1.008c0.864,2.504,1.88,4.976,3.016,7.416c0.4,0.856,0.848,1.688,1.28,2.528
		c1.032,2,2.184,3.952,3.44,5.864c0.52,0.792,1.016,1.592,1.576,2.368c1.856,2.576,3.864,5.072,6.184,7.408
		c2.568,2.568,5.232,4.84,7.936,6.904c0.912,0.696,1.848,1.248,2.768,1.888c1.824,1.272,3.648,2.528,5.512,3.6
		c1.104,0.64,2.216,1.16,3.328,1.728c1.712,0.88,3.424,1.744,5.144,2.48c1.168,0.496,2.328,0.92,3.496,1.36
		c1.68,0.624,3.352,1.224,5.024,1.728c1.168,0.352,2.32,0.664,3.48,0.96c1.664,0.424,3.304,0.808,4.944,1.136
		c1.112,0.224,2.216,0.432,3.312,0.608c1.656,0.264,3.264,0.472,4.864,0.648c1.016,0.112,2.032,0.232,3.024,0.312
		c1.64,0.128,3.216,0.2,4.784,0.248c0.872,0.024,1.752,0.08,2.592,0.08c0.28,0,0.592,0.024,0.864,0.024
		c1.848,0,3.608-0.056,5.296-0.136c0.064,0,0.136,0,0.2,0c0.024,3.12-0.096,6.232-0.376,9.336c-0.096-0.008-0.208,0-0.304,0
		c-1.952-0.088-3.992-0.12-6.128-0.088c-0.552,0.008-1.12,0.032-1.68,0.048c-1.784,0.056-3.624,0.168-5.512,0.328
		c-0.552,0.048-1.08,0.08-1.64,0.136c-2.248,0.232-4.552,0.576-6.904,1c-0.696,0.128-1.392,0.28-2.096,0.424
		c-2.072,0.424-4.168,0.936-6.28,1.544c-0.48,0.136-0.952,0.24-1.44,0.392c-2.472,0.752-4.968,1.68-7.464,2.712
		c-0.688,0.28-1.36,0.592-2.048,0.896c-2.376,1.056-4.744,2.232-7.104,3.576c-0.248,0.144-0.496,0.256-0.744,0.4
		c-2.544,1.496-5.064,3.232-7.552,5.104c-0.616,0.464-1.224,0.944-1.832,1.432c-2.528,2.016-5.024,4.168-7.448,6.632
		c-2.168,2.224-4.104,4.552-5.912,6.92c-0.552,0.728-1.056,1.472-1.576,2.208c-1.216,1.72-2.36,3.456-3.416,5.224
		c-0.472,0.8-0.952,1.592-1.392,2.392c-1.08,1.96-2.056,3.936-2.96,5.92c-0.24,0.536-0.52,1.064-0.752,1.6
		c-1.08,2.52-2.024,5.04-2.848,7.552c-0.208,0.624-0.368,1.232-0.552,1.848c-0.592,1.92-1.128,3.816-1.592,5.696
		c-0.2,0.808-0.376,1.6-0.56,2.4c-0.392,1.76-0.728,3.488-1.024,5.192c-0.112,0.664-0.248,1.336-0.344,2
		c-0.352,2.288-0.64,4.512-0.848,6.632c-0.016,0.136-0.016,0.256-0.032,0.392c-0.192,2.016-0.312,3.92-0.4,5.736
		c-0.008,0.176-0.032,0.392-0.04,0.568C191.264,287.696,185.784,287.488,180.352,286.816z M229.496,279.88
		c0.08-0.552,0.176-1.112,0.264-1.68c0.112-0.68,0.208-1.352,0.344-2.048c0.128-0.672,0.288-1.36,0.432-2.04
		c0.152-0.712,0.296-1.424,0.472-2.144c0.176-0.704,0.392-1.408,0.584-2.112c0.2-0.712,0.384-1.424,0.608-2.144
		c0.232-0.72,0.504-1.448,0.768-2.168c0.248-0.704,0.48-1.408,0.76-2.112c0.296-0.736,0.648-1.464,0.976-2.2
		c0.304-0.672,0.576-1.352,0.912-2.016c0.384-0.776,0.84-1.528,1.264-2.288c0.344-0.6,0.648-1.216,1.016-1.808
		c0.52-0.84,1.12-1.648,1.704-2.464c0.344-0.48,0.648-0.984,1.016-1.456c0.984-1.264,2.04-2.496,3.192-3.664
		c1.792-1.824,3.664-3.376,5.568-4.808c0.472-0.352,0.944-0.704,1.424-1.032c1.832-1.288,3.696-2.456,5.576-3.432
		c0.064-0.032,0.128-0.08,0.192-0.112c1.96-1,3.944-1.8,5.928-2.504c0.512-0.184,1.016-0.352,1.528-0.512
		c1.808-0.576,3.616-1.08,5.4-1.448c0.16-0.032,0.32-0.08,0.48-0.112c1.92-0.384,3.808-0.632,5.664-0.808
		c0.528-0.056,1.048-0.096,1.568-0.136c0.472-0.032,0.928-0.032,1.4-0.056c-4.648,9.936-11.04,19.088-18.952,26.992
		C250.864,268.264,240.68,275.12,229.496,279.88z"/>
</g>
<g>
</g>
<g>
</g>
<g>
</g>
<g>
</g>
<g>
</g>
<g>
</g>
<g>
</g>
<g>
</g>
<g>
</g>
<g>
</g>
<g>
</g>
<g>
</g>
<g>
</g>
<g>
</g>
<g>
</g>
</svg>
