<?xml version="1.0" encoding="iso-8859-1"?>
<!-- Generator: Adobe Illustrator 19.0.0, SVG Export Plug-In . SVG Version: 6.00 Build 0)  -->
<svg version="1.1" id="Capa_1" xmlns="http://www.w3.org/2000/svg" xmlns:xlink="http://www.w3.org/1999/xlink" x="0px" y="0px"
	 viewBox="0 0 383.064 383.064" style="enable-background:new 0 0 383.064 383.064;" xml:space="preserve">
<path style="fill:#FFDC7B;" d="M315.074,317.424c-68.24,68.4-178.88,68.4-247.04,0c-9.36-9.44-17.52-19.68-24.32-30.48
	c34.48,21.84,74.96,30.4,114.08,25.6c20.16-2.4,40-8.32,58.48-17.84c15.92-8.08,30.8-18.8,44.08-32.16l0.08-0.08
	c13.28-13.36,24-28.24,32.08-44.24c9.44-18.56,15.36-38.4,17.76-58.64c4.72-39.2-3.84-79.68-25.52-114.24
	c10.8,6.72,20.96,14.88,30.32,24.24C383.314,137.984,383.314,249.024,315.074,317.424z"/>
<path style="fill:#EBF3FF;" d="M310.274,159.584c-2.4,20.24-8.32,40.08-17.76,58.64c-8.08,16-18.8,30.88-32.08,44.24l-0.08,0.08
	c-13.28,13.36-28.16,24.08-44.08,32.16c-18.48,9.52-38.32,15.44-58.48,17.84c-39.12,4.8-79.6-3.76-114.08-25.6
	c-21.76-34.56-30.32-75.04-25.6-114.32c2.4-20.24,8.32-40.08,17.76-58.64c8.08-16,18.8-30.96,32.08-44.32l0.08-0.08
	c13.28-13.36,28.16-24.08,44.08-32.08c18.48-9.6,38.32-15.52,58.48-17.84c39.2-4.88,79.6,3.76,114.16,25.68
	C306.434,79.904,314.994,120.384,310.274,159.584z"/>
<path style="fill:#141F38;" d="M294.034,29.896c-0.512-0.36-1.032-0.664-1.584-0.96C255.562,5.872,211.658-3.928,168.722,1.432
	c-0.376,0.04-0.736,0.136-1.104,0.176c-0.064,0.008-0.136,0.016-0.2,0.032c-22.088,2.696-43.224,9.176-62.64,19.264
	c-17.752,8.912-34.008,20.744-48.424,35.24c-14.288,14.376-26.096,30.688-35.056,48.44c-0.192,0.368-0.328,0.76-0.512,1.128
	c-0.024,0.056-0.056,0.112-0.072,0.168c-9.672,19.368-15.928,40.056-18.624,61.544c-0.016,0.072-0.024,0.144-0.032,0.216
	c-0.04,0.352-0.128,0.688-0.168,1.04c-5.224,43.48,4.664,87.728,27.808,124.656c0.136,0.224,0.272,0.456,0.416,0.68
	C37.53,305.72,46.37,316.8,56.45,326.96c36.048,36.168,83.992,56.096,135.016,56.104c0.024,0,0.04,0,0.056,0
	c51.048,0,99.032-19.92,135.128-56.096c74.52-74.696,74.52-196.232-0.016-270.952C316.49,45.888,305.514,37.112,294.034,29.896z
	 M163.442,293.072L35.578,164.992c1.376-8.216,3.376-16.272,6.016-24.136l145.928,146.192
	C179.706,289.68,171.674,291.688,163.442,293.072z M110.37,293.144c-2.472-0.416-4.96-0.8-7.408-1.336
	c-1.912-0.416-3.784-0.96-5.672-1.448c-2.376-0.616-4.768-1.192-7.112-1.92c-1.896-0.584-3.76-1.288-5.64-1.944
	c-2.288-0.8-4.584-1.576-6.832-2.48c-1.872-0.752-3.696-1.616-5.544-2.448c-2.192-0.984-4.384-1.944-6.528-3.032
	c-1.832-0.928-3.616-1.952-5.416-2.952c-1.584-0.88-3.16-1.768-4.712-2.704C44.058,253.648,36.93,232.152,34.346,210l84.184,84.328
	c-0.84-0.096-1.696-0.128-2.536-0.232C114.106,293.848,112.242,293.464,110.37,293.144z M219.106,272.408L56.138,109.144
	c3.712-6.152,7.936-12.016,12.504-17.664l168.072,168.344C231.114,264.416,225.266,268.656,219.106,272.408z M109.25,55.776
	l163,163.288c-3.728,6.168-7.944,12.032-12.472,17.616L91.674,68.296C97.266,63.72,103.098,59.496,109.25,55.776z M164.922,35.12
	L292.81,163.224c-1.376,8.216-3.376,16.272-6.016,24.136L140.826,41.128C148.634,38.48,156.674,36.48,164.922,35.12z M272.65,55.088
	c0.944,1.584,1.848,3.2,2.736,4.816c0.976,1.768,1.976,3.528,2.88,5.336c1.088,2.176,2.064,4.408,3.048,6.632
	c0.808,1.824,1.656,3.632,2.4,5.488c0.912,2.28,1.696,4.616,2.504,6.936c0.64,1.856,1.336,3.696,1.912,5.568
	c0.736,2.392,1.328,4.832,1.944,7.256c0.472,1.856,1.008,3.696,1.416,5.56c0.552,2.52,0.944,5.072,1.368,7.624
	c0.304,1.816,0.68,3.616,0.92,5.44c0.104,0.8,0.128,1.608,0.224,2.408l-84.216-84.36C231.874,36.352,253.37,43.528,272.65,55.088z
	 M303.506,303.88c-29.92,29.984-69.68,46.504-111.984,46.504c-0.008,0-0.032,0-0.048,0c-30.448-0.016-59.576-8.576-84.64-24.56
	c0.512,0.08,1.04,0.112,1.56,0.192c2.176,0.328,4.36,0.552,6.552,0.808c2.208,0.256,4.408,0.528,6.624,0.704
	c2.256,0.176,4.528,0.264,6.792,0.36c2.16,0.096,4.312,0.208,6.48,0.232c0.616,0.008,1.232,0.064,1.856,0.064
	c2.288,0,4.576-0.128,6.864-0.208c1.208-0.04,2.416-0.04,3.624-0.112c4.192-0.232,8.376-0.576,12.552-1.088
	c0.352-0.04,0.696-0.128,1.048-0.176c0.072-0.016,0.144-0.024,0.208-0.032c22.064-2.776,43.184-9.248,62.68-19.288
	c17.776-9.016,34.016-20.864,47.76-34.72c0.184-0.168,0.36-0.336,0.536-0.512c0.008-0.008,0.008-0.008,0.016-0.016l0.008-0.008
	c0.016-0.016,0.024-0.024,0.04-0.04c14.352-14.448,26.16-30.728,35.056-48.36c0.184-0.368,0.328-0.76,0.512-1.128
	c0.024-0.056,0.056-0.112,0.072-0.168c9.672-19.368,15.928-40.064,18.624-61.552c0.016-0.072,0.024-0.136,0.032-0.208
	c0.04-0.352,0.128-0.696,0.168-1.04c0.6-5,0.952-10.016,1.152-15.032c0.064-1.552,0.048-3.104,0.072-4.664
	c0.056-3.496,0.04-6.992-0.088-10.472c-0.064-1.768-0.168-3.528-0.28-5.296c-0.224-3.376-0.544-6.736-0.944-10.096
	c-0.2-1.672-0.376-3.352-0.616-5.016c-0.112-0.744-0.16-1.504-0.28-2.248C364.146,168.112,356.81,250.448,303.506,303.88z"/>
<g>
</g>
<g>
</g>
<g>
</g>
<g>
</g>
<g>
</g>
<g>
</g>
<g>
</g>
<g>
</g>
<g>
</g>
<g>
</g>
<g>
</g>
<g>
</g>
<g>
</g>
<g>
</g>
<g>
</g>
</svg>
