<?xml version="1.0" encoding="iso-8859-1"?>
<!-- Generator: Adobe Illustrator 19.0.0, SVG Export Plug-In . SVG Version: 6.00 Build 0)  -->
<svg version="1.1" id="Capa_1" xmlns="http://www.w3.org/2000/svg" xmlns:xlink="http://www.w3.org/1999/xlink" x="0px" y="0px"
	 viewBox="0 0 384 384" style="enable-background:new 0 0 384 384;" xml:space="preserve">
<g>
	<path style="fill:#FFDC7B;" d="M355.92,155.04c0,9.68-2.24,18.72-6.32,26.64l-3.6,6.16c-9.04-7.04-20.16-11.28-32.24-11.28
		c-1.68,0-3.28,0.08-4.96,0.24l-0.32-1.52c-7.12-25.76-25.12-46.56-48.32-56.8C270.08,106.16,285.2,98,301.68,98
		C331.68,98,355.92,123.52,355.92,155.04z"/>
	<path style="fill:#FFDC7B;" d="M116.64,147.6c-16.56,7.2-29.84,20.8-37.28,37.76l-1.12,3.52c-4.24-1.28-8.64-1.92-13.2-1.92
		c-15.52,0-29.28,7.52-38.32,19.28l-2.16-7.12c-0.88-4-1.28-8.16-1.28-12.56c0-31.44,24.24-56.96,54.24-56.96
		c14.96,0,28.56,6.4,38.4,16.8L116.64,147.6z"/>
</g>
<path style="fill:#EBF3FF;" d="M368,233.6c0,31.44-24.32,56.4-54.24,56.4H65.04C37.92,290,16,266.96,16,238.48
	c0-12.16,4-23.36,10.72-32.16c0-0.08,0-0.08,0-0.08c9.04-11.76,22.8-19.28,38.32-19.28c4.56,0,8.96,0.64,13.2,1.92l1.12-3.52
	c7.44-16.96,20.72-30.56,37.28-37.76c8.24-3.6,17.28-5.6,26.8-5.6c6.56,0,12.8,0.96,18.8,2.72l1.36-2.56
	c15.52-18.8,38.32-30.64,63.84-30.64c11.6,0,22.64,2.48,32.72,6.96c23.2,10.24,41.2,31.04,48.32,56.8l0.32,1.52
	c1.68-0.16,3.28-0.24,4.96-0.24c12.08,0,23.2,4.24,32.24,11.28h0.08C359.36,198.24,368,214.88,368,233.6z"/>
<path style="fill:#141F38;" d="M371.92,153.04c0-40.272-31.512-73.04-70.24-73.04c-16.616,0-32.968,6.592-45.696,17.896
	c-9.232-2.872-18.784-4.384-28.544-4.384c-27.088,0-52.872,11.368-71.728,31.408c-11.768-1.784-23.664-0.96-34.952,2.256
	c-12.304-10.064-27.336-15.584-43.248-15.584c-38.728,0-70.24,32.728-70.24,72.96c0,5.704,0.536,10.936,1.648,15.992
	c0.088,0.408,0.192,0.816,0.32,1.216l0.072,0.232C3.368,212.384,0,224.28,0,236.48C0,273.712,29.176,304,65.04,304h248.72
	c38.728,0,70.24-32.48,70.24-72.4c0-18.128-6.72-35.568-18.28-48.896C369.76,173.448,371.92,163.52,371.92,153.04z M301.68,112
	c21.088,0,38.24,18.408,38.24,41.04c0,3.568-0.4,7.016-1.2,10.312c-0.04-0.016-0.08-0.024-0.12-0.04
	c-2.016-0.8-4.096-1.384-6.176-1.984c-0.904-0.264-1.776-0.632-2.68-0.848c-3.008-0.736-6.072-1.264-9.176-1.584
	c-1.52-3.952-3.344-7.728-5.296-11.416c-0.552-1.048-1.144-2.056-1.736-3.08c-1.608-2.808-3.336-5.52-5.184-8.144
	c-0.592-0.84-1.152-1.712-1.768-2.528c-2.464-3.288-5.096-6.432-7.928-9.384c-0.496-0.512-1.04-0.976-1.544-1.48
	c-2.424-2.432-4.976-4.728-7.64-6.904c-0.464-0.376-0.856-0.824-1.32-1.192C292.48,112.968,297.08,112,301.68,112z M158.392,158.208
	c0.04,0.016,0.072,0.032,0.112,0.048c-0.04-0.016-0.08-0.024-0.12-0.04L158.392,158.208z M77.52,143.6
	c3.544,0,7.024,0.52,10.36,1.528c-0.232,0.208-0.448,0.44-0.68,0.648c-1.072,0.96-2.096,1.976-3.12,2.984
	c-0.728,0.72-1.48,1.424-2.184,2.176c-1.04,1.104-2.016,2.256-3,3.416c-0.632,0.736-1.288,1.448-1.888,2.216
	c-1.048,1.312-2.016,2.688-2.992,4.056c-0.472,0.672-0.984,1.304-1.44,1.992c-1.4,2.088-2.72,4.232-3.952,6.448
	c-2.48-0.136-4.96-0.104-7.44,0.048c-0.944,0.056-1.88,0.224-2.816,0.32c-1.592,0.168-3.184,0.336-4.76,0.624
	c-0.704,0.136-1.392,0.328-2.096,0.48c-1.856,0.4-3.688,0.856-5.488,1.424c-0.416,0.136-0.824,0.296-1.232,0.432
	c-1.4,0.472-2.816,0.904-4.168,1.472C45.008,156.448,59.888,143.6,77.52,143.6z M313.76,272H65.04C46.816,272,32,256.064,32,236.48
	c0-8.2,2.64-16.168,7.44-22.456c0.072-0.088,0.136-0.184,0.2-0.28c0.944-1.2,2.048-2.2,3.112-3.248
	c0.752-0.744,1.44-1.576,2.248-2.232c1.144-0.936,2.408-1.648,3.648-2.408c0.832-0.512,1.6-1.136,2.464-1.568
	c1.432-0.712,2.96-1.168,4.48-1.656c0.768-0.248,1.488-0.624,2.272-0.816c2.336-0.56,4.736-0.856,7.184-0.856
	c3.008,0,5.824,0.408,8.584,1.24c0.016,0,0.032,0,0.04,0.008c0.016,0.008,0.032,0.016,0.048,0.016
	c9.72,2.864,17.856,10.6,21.768,20.68c2.464,6.336,8.512,10.216,14.92,10.216c1.928,0,3.88-0.344,5.784-1.088
	c8.24-3.192,12.328-12.464,9.136-20.704c-5.112-13.176-14.232-24.216-25.584-31.744c5.944-8.552,13.952-15.256,23.32-19.328
	c10.92-4.776,23.008-5.608,34.688-2.184c0.168,0.048,0.336,0.056,0.504,0.104c0.104,0.024,0.2,0.08,0.304,0.104
	c0.104,0.032,0.192,0.096,0.304,0.128c7.224,2.272,13.848,6.072,19.664,11.312c3.056,2.752,6.88,4.104,10.696,4.104
	c4.376,0,8.744-1.792,11.904-5.304c5.912-6.576,5.368-16.688-1.2-22.592c-3.328-2.992-6.888-5.592-10.552-7.992
	c11.176-7.968,24.384-12.408,38.08-12.408c9.064,0,17.888,1.88,26.256,5.6c14.56,6.424,26.576,18.224,33.976,32.752
	c-12.192,5.08-22.936,13.6-30.808,24.912c-5.04,7.256-3.256,17.224,4,22.272c2.784,1.936,5.968,2.864,9.12,2.864
	c5.064,0,10.04-2.392,13.152-6.864c6.496-9.344,16.392-15.288,27.16-16.328c0.008,0,0.016,0,0.024,0c0.592-0.056,1.176,0.024,1.76,0
	c8.552-0.384,16.968,2.192,24.088,7.736c0.264,0.208,0.536,0.4,0.816,0.592c9.4,7.768,15,19.856,15,32.536
	C352,253.88,334.848,272,313.76,272z"/>
<g>
</g>
<g>
</g>
<g>
</g>
<g>
</g>
<g>
</g>
<g>
</g>
<g>
</g>
<g>
</g>
<g>
</g>
<g>
</g>
<g>
</g>
<g>
</g>
<g>
</g>
<g>
</g>
<g>
</g>
</svg>
