<?xml version="1.0" encoding="iso-8859-1"?>
<!-- Generator: Adobe Illustrator 19.0.0, SVG Export Plug-In . SVG Version: 6.00 Build 0)  -->
<svg version="1.1" id="Capa_1" xmlns="http://www.w3.org/2000/svg" xmlns:xlink="http://www.w3.org/1999/xlink" x="0px" y="0px"
	 viewBox="0 0 384.008 384.008" style="enable-background:new 0 0 384.008 384.008;" xml:space="preserve">
<g>
	<ellipse style="fill:#FFDC7B;" cx="158.336" cy="50.12" rx="32" ry="32.08"/>
	<ellipse style="fill:#FFDC7B;" cx="208.32" cy="177.128" rx="32" ry="32.08"/>
</g>
<path style="fill:#141F38;" d="M34.336,76.816C15.088,77.128-0.312,93.08,0.008,112.36c0.152,9.336,3.92,18.048,10.616,24.544
	c6.56,6.368,15.16,9.856,24.272,9.856c0.2,0,0.4,0,0.6-0.008c9.336-0.152,18.048-3.944,24.528-10.664
	c6.136-6.368,9.472-14.656,9.68-23.456l55.192-30.056c8.656,8.44,20.44,13.664,33.44,13.664c0.952,0,1.88-0.088,2.816-0.144
	l18.416,40.56c-11.672,8.784-19.28,22.728-19.28,38.456c0,26.528,21.528,48.112,48,48.112c15.872,0,29.92-7.792,38.664-19.72
	l37.48,18.584c0.296,9.104,4,17.6,10.552,23.96c5.04,4.888,11.288,8.04,18.04,9.256l15.08,65.912
	c-8.568,6.512-14.112,16.808-13.92,28.384c0.152,9.336,3.92,18.048,10.616,24.544c6.56,6.376,15.168,9.864,24.288,9.864
	c0.192,0,0.392,0,0.592-0.008c9.328-0.152,18.04-3.944,24.528-10.672c6.472-6.712,9.944-15.544,9.792-24.872
	c-0.152-9.336-3.912-18.048-10.608-24.544c-3.912-3.8-8.64-6.472-13.688-8.104l-16.016-69.984c0.224-0.216,0.488-0.376,0.704-0.6
	c6.472-6.712,9.952-15.544,9.8-24.872c-0.152-9.336-3.912-18.048-10.608-24.544c-6.704-6.512-15.648-10-24.872-9.856
	c-7.736,0.128-14.776,2.856-20.496,7.232l-42.048-20.848c-1.4-24.544-21.208-44.176-45.784-45.24L190.64,83.608
	c9.624-8.808,15.712-21.44,15.712-35.496c0-26.528-21.536-48.112-48-48.112s-48,21.584-48,48.112c0,1.944,0.152,3.856,0.376,5.744
	l-55.04,29.976C49.52,79.248,42.168,76.696,34.336,76.816z M224.296,175.112c0,8.888-7.176,16.112-16,16.112s-16-7.224-16-16.112
	s7.176-16.112,16-16.112C217.112,159,224.296,166.224,224.296,175.112z M158.336,32.008c8.824,0,16,7.224,16,16.112
	s-7.176,16.12-16,16.12s-16-7.232-16-16.12C142.328,39.232,149.504,32.008,158.336,32.008z"/>
<g>
</g>
<g>
</g>
<g>
</g>
<g>
</g>
<g>
</g>
<g>
</g>
<g>
</g>
<g>
</g>
<g>
</g>
<g>
</g>
<g>
</g>
<g>
</g>
<g>
</g>
<g>
</g>
<g>
</g>
</svg>
