<?xml version="1.0" encoding="iso-8859-1"?>
<!-- Generator: Adobe Illustrator 19.0.0, SVG Export Plug-In . SVG Version: 6.00 Build 0)  -->
<svg version="1.1" id="Capa_1" xmlns="http://www.w3.org/2000/svg" xmlns:xlink="http://www.w3.org/1999/xlink" x="0px" y="0px"
	 viewBox="0 0 412 412" style="enable-background:new 0 0 412 412;" xml:space="preserve">
<path style="fill:#38B4C1;" d="M220.48,149.36v90.48H47.76c-2.48-10-3.76-20.56-3.76-31.44c0-41.12,18.64-77.2,46.48-97.2
	c0,0,3.76,38.16,41.52,38.16C160.24,149.36,220.48,149.36,220.48,149.36z"/>
<path style="fill:#EBF3FF;" d="M299.84,94.64h-79.36v145.2H47.76c11.6,47.6,48.88,82.4,93.12,82.4h158.96
	c53.2-0.48,96.16-51.28,96.16-113.84C396,145.92,353.04,95.12,299.84,94.64z"/>
<path style="fill:#FFDC7B;" d="M220.48,94.64v54.72c0,0-60.24,0-88.48,0c-37.76,0-41.52-38.16-41.52-38.16
	c14.64-10.48,31.92-16.56,50.4-16.56H220.48z"/>
<g>
	<path style="fill:#141F38;" d="M140.88,336.24h159.104C361.752,335.68,412,277.44,412,206.4c0-70.992-50.248-129.2-112.016-129.76
		c-0.048,0-0.096,0-0.144,0h-79.36h-79.6c-21.2,0-41.848,6.76-59.712,19.544l-0.008,0.008C81.152,96.2,81.144,96.2,81.144,96.2
		C47.864,120.112,28,161.304,28,206.4c0,5.2,0.32,10.352,0.84,15.44H16c-8.832,0-16,7.168-16,16s7.168,16,16,16h19.84
		C52.584,302.92,94.256,336.24,140.88,336.24z M380,206.4c0,53.552-36.024,97.448-80.16,97.84H140.88
		c-29.592,0-56.624-19.936-70.688-50.4H220.48c8.832,0,16-7.168,16-16v-90.48v-38.72h20.016v129.216c0,8.832,7.168,16,16,16
		s16-7.168,16-16V108.64h11.264C344.008,109.08,380,152.92,380,206.4z M204.48,108.64v22.72H132c-2.368,0-4.448-0.296-6.408-0.712
		c-0.464-0.096-0.92-0.2-1.36-0.32c-1.816-0.488-3.512-1.096-4.984-1.88c-0.128-0.072-0.232-0.16-0.36-0.224
		c-1.368-0.768-2.568-1.648-3.648-2.6c-0.264-0.232-0.536-0.464-0.792-0.704c-1.072-1.04-2.04-2.128-2.856-3.28
		c-0.112-0.16-0.2-0.328-0.312-0.488c-0.712-1.056-1.32-2.128-1.84-3.2c-0.12-0.248-0.256-0.504-0.368-0.752
		c-0.088-0.192-0.136-0.368-0.216-0.56c10.064-5.248,20.96-7.992,32.016-7.992h63.608V108.64z M83.76,137.328
		c0.192,0.304,0.432,0.6,0.624,0.904c0.664,1.04,1.376,2.064,2.12,3.072c0.416,0.568,0.824,1.128,1.264,1.68
		c0.848,1.072,1.768,2.112,2.712,3.136c0.408,0.44,0.784,0.904,1.216,1.336c1.408,1.432,2.896,2.808,4.504,4.112
		c0.152,0.12,0.32,0.224,0.48,0.344c1.464,1.152,3.016,2.24,4.656,3.256c0.592,0.368,1.24,0.696,1.856,1.04
		c1.272,0.72,2.584,1.408,3.96,2.032c0.76,0.344,1.552,0.664,2.344,0.976c1.368,0.544,2.784,1.032,4.24,1.472
		c0.848,0.256,1.696,0.52,2.584,0.736c1.608,0.408,3.304,0.72,5.032,1c0.824,0.136,1.608,0.304,2.456,0.4
		c2.616,0.312,5.328,0.512,8.192,0.512h72.48v58.48H61c-0.664-5.024-1-10.192-1-15.416C60,180.368,68.784,155.512,83.76,137.328z"/>
	<path style="fill:#141F38;" d="M332,230c13.232,0,24-10.768,24-24s-10.768-24-24-24s-24,10.768-24,24S318.768,230,332,230z"/>
	<path style="fill:#141F38;" d="M114.416,14c-8.832,0-16,7.168-16,16s7.168,16,16,16h211.168c8.832,0,16-7.168,16-16
		s-7.168-16-16-16H114.416z"/>
	<path style="fill:#141F38;" d="M341.584,382c0-8.832-7.168-16-16-16H114.416c-8.832,0-16,7.168-16,16s7.168,16,16,16h211.168
		C334.416,398,341.584,390.832,341.584,382z"/>
</g>
<g>
</g>
<g>
</g>
<g>
</g>
<g>
</g>
<g>
</g>
<g>
</g>
<g>
</g>
<g>
</g>
<g>
</g>
<g>
</g>
<g>
</g>
<g>
</g>
<g>
</g>
<g>
</g>
<g>
</g>
</svg>
