<?xml version="1.0" encoding="iso-8859-1"?>
<!-- Generator: Adobe Illustrator 19.0.0, SVG Export Plug-In . SVG Version: 6.00 Build 0)  -->
<svg version="1.1" id="Capa_1" xmlns="http://www.w3.org/2000/svg" xmlns:xlink="http://www.w3.org/1999/xlink" x="0px" y="0px"
	 viewBox="0 0 384.016 384.016" style="enable-background:new 0 0 384.016 384.016;" xml:space="preserve">
<ellipse style="fill:#EDC45F;" cx="51.256" cy="53.288" rx="35.248" ry="35.288"/>
<ellipse style="fill:#FFDC7B;" cx="139.872" cy="142.008" rx="35.248" ry="35.296"/>
<ellipse style="fill:#EDC45F;" cx="225.688" cy="227.936" rx="35.248" ry="35.288"/>
<g>
	<ellipse style="fill:#FFDC7B;" cx="332.76" cy="334.712" rx="35.248" ry="35.288"/>
	<ellipse style="fill:#FFDC7B;" cx="86.504" cy="334.712" rx="35.248" ry="35.288"/>
</g>
<path style="fill:#141F38;" d="M332.76,281.416c-8.104,0-15.744,1.944-22.56,5.304l-38.544-38.232
	c3.352-6.816,5.288-14.456,5.288-22.552c0-28.28-22.984-51.296-51.24-51.296c-8.248,0-16.016,2.008-22.928,5.48l-17.192-17.056
	c3.512-6.944,5.536-14.76,5.536-23.056c0-28.28-22.992-51.296-51.248-51.296c-8.448,0-16.408,2.096-23.44,5.736L96.72,74.888
	c3.68-7.072,5.792-15.088,5.792-23.592C102.512,23.016,79.52,0,51.264,0C23,0,0.008,23.016,0.008,51.296S23,102.584,51.256,102.584
	c8.112,0,15.752-1.944,22.576-5.312L94,117.288c-3.408,6.864-5.376,14.56-5.376,22.728c0,28.28,22.984,51.296,51.24,51.296
	c8.32,0,16.16-2.04,23.12-5.576l17.088,16.96c-3.568,6.992-5.632,14.88-5.632,23.256c0,5.888,1.048,11.528,2.88,16.8l-61.272,48.136
	c-8.36-5.936-18.544-9.456-29.544-9.456c-28.256,0-51.248,23.008-51.248,51.288s22.992,51.296,51.248,51.296
	s51.24-23.008,51.24-51.296c0-5.632-0.944-11.04-2.632-16.12l61.6-48.392c8.256,5.688,18.232,9.032,28.992,9.032
	c8.52,0,16.544-2.12,23.616-5.824l37.992,37.688c-3.688,7.08-5.8,15.096-5.8,23.616c0,28.28,22.992,51.296,51.248,51.296
	c28.256-0.016,51.248-23.024,51.248-51.312C384.008,304.424,361.016,281.416,332.76,281.416z M32.008,51.296
	C32.008,40.656,40.64,32,51.256,32s19.248,8.656,19.248,19.296s-8.632,19.288-19.248,19.288S32.008,61.928,32.008,51.296z
	 M120.624,140.008c0-10.64,8.632-19.296,19.24-19.296c10.616,0,19.248,8.656,19.248,19.296s-8.632,19.296-19.248,19.296
	C129.256,159.304,120.624,150.648,120.624,140.008z M86.504,352c-10.616,0-19.248-8.656-19.248-19.296
	c0-10.64,8.632-19.288,19.248-19.288c6.616,0,12.456,3.368,15.928,8.48c0.008,0.008,0.008,0.016,0.016,0.024
	c0.008,0.008,0.008,0.008,0.016,0.016c2.072,3.08,3.288,6.784,3.288,10.776C105.752,343.344,97.12,352,86.504,352z M206.448,225.936
	c0-10.64,8.64-19.296,19.256-19.296c10.608,0,19.24,8.656,19.24,19.296c0,10.64-8.632,19.288-19.24,19.288
	C215.088,245.224,206.448,236.576,206.448,225.936z M332.76,352c-10.616,0-19.248-8.656-19.248-19.296
	c0-10.64,8.632-19.288,19.248-19.288s19.248,8.656,19.248,19.288C352.008,343.344,343.376,352,332.76,352z"/>
<g>
</g>
<g>
</g>
<g>
</g>
<g>
</g>
<g>
</g>
<g>
</g>
<g>
</g>
<g>
</g>
<g>
</g>
<g>
</g>
<g>
</g>
<g>
</g>
<g>
</g>
<g>
</g>
<g>
</g>
</svg>
