<?xml version="1.0" encoding="iso-8859-1"?>
<!-- Generator: Adobe Illustrator 19.0.0, SVG Export Plug-In . SVG Version: 6.00 Build 0)  -->
<svg version="1.1" id="Capa_1" xmlns="http://www.w3.org/2000/svg" xmlns:xlink="http://www.w3.org/1999/xlink" x="0px" y="0px"
	 viewBox="0 0 384 384" style="enable-background:new 0 0 384 384;" xml:space="preserve">
<path style="fill:#EBF3FF;" d="M332.56,170.32v-0.08C318.08,130.32,287.2,98.32,248,82.48l-4,2.64c0,0-5.36,35.12-52,35.12
	s-52-35.12-52-35.12l-1.36-3.68c-40.72,15.52-72.88,48.48-87.44,89.6c-5.52,15.52-8.56,32.32-8.56,49.76c0,17.36,2.96,34,8.48,49.52
	C71.52,328.4,126.88,370,192,370c65.04,0,120.32-41.52,140.8-99.44c5.52-15.52,8.56-32.32,8.56-49.76
	C341.36,203.04,338.24,186.08,332.56,170.32z"/>
<path style="fill:#FFDC7B;" d="M248,82.48l-4,2.64c0,0-5.36,35.12-52,35.12s-52-35.12-52-35.12l-1.36-3.68
	c16.56-6.4,34.56-9.84,53.36-9.84C211.84,71.6,230.72,75.44,248,82.48z"/>
<path style="fill:#38B4C1;" d="M287.04,220.8c0,52.48-42.56,94.96-95.04,94.96s-95.04-42.48-95.04-94.96
	c0-52.4,42.56-94.88,95.04-94.88S287.04,168.4,287.04,220.8z"/>
<g>
	<path style="fill:#141F38;" d="M344.656,155.832c-16.968-40.856-49.504-73.536-90.6-90.16c-0.008,0-0.016-0.008-0.024-0.008
		s-0.016,0-0.024-0.008c-0.008,0-0.016-0.008-0.024-0.008c-0.016-0.008-0.024-0.008-0.04-0.008
		c-14.664-5.96-30.208-9.656-45.952-11.168V41.2c4.736-4.344,7.76-10.52,7.76-17.44C215.76,10.656,205.096,0,191.992,0
		s-23.76,10.656-23.76,23.752c0,6.92,3.024,13.096,7.76,17.44v13.296c-14.728,1.4-29.248,4.68-42.984,9.984
		c-0.024,0.008-0.048,0.008-0.064,0.016c-0.016,0.008-0.024,0.008-0.032,0.016c-0.008,0-0.024,0.008-0.032,0.008
		c-0.024,0.008-0.04,0.024-0.064,0.032c-42.568,16.272-76.056,49.312-93.384,91.2C28.216,161.024,0,178.288,0,218.8
		c0,40.272,27.912,57.592,39.248,62.96C64.592,343.232,124.84,384,192,384c67.112,0,127.4-40.792,152.744-102.232
		C356.08,276.4,384,259.088,384,218.8C384,178.752,356.408,161.408,344.656,155.832z M224.144,89.496
		c-0.032,0.048-0.056,0.088-0.096,0.136c-0.464,0.616-0.984,1.24-1.56,1.872c-0.088,0.088-0.152,0.184-0.232,0.28
		c-0.664,0.712-1.416,1.416-2.232,2.104c-0.24,0.208-0.528,0.4-0.784,0.6c-0.608,0.48-1.24,0.96-1.944,1.416
		c-0.368,0.248-0.784,0.472-1.176,0.712c-0.664,0.4-1.36,0.784-2.096,1.16c-0.472,0.232-0.968,0.456-1.472,0.68
		c-0.768,0.336-1.576,0.656-2.416,0.96c-0.56,0.2-1.128,0.4-1.72,0.584c-0.904,0.28-1.88,0.528-2.872,0.76
		c-0.624,0.152-1.24,0.304-1.896,0.432c-1.144,0.224-2.376,0.384-3.624,0.536c-0.616,0.08-1.192,0.176-1.832,0.232
		c-1.944,0.168-3.992,0.28-6.192,0.28c-2.144,0-4.128-0.112-6.032-0.28c-0.616-0.056-1.184-0.144-1.776-0.216
		c-1.248-0.152-2.464-0.32-3.6-0.536c-0.608-0.112-1.192-0.24-1.776-0.376c-1.048-0.24-2.048-0.504-3-0.792
		c-0.512-0.152-1.024-0.304-1.512-0.472c-1.016-0.352-1.968-0.736-2.872-1.144c-0.32-0.144-0.664-0.264-0.968-0.416
		c-1.176-0.568-2.264-1.168-3.264-1.8c-0.224-0.136-0.408-0.288-0.616-0.432c-0.76-0.504-1.48-1.024-2.136-1.56
		c-0.288-0.232-0.552-0.472-0.824-0.712c-0.528-0.464-1.024-0.928-1.488-1.4c-0.24-0.248-0.48-0.496-0.704-0.744
		c-0.44-0.488-0.848-0.976-1.216-1.464c-0.112-0.144-0.224-0.288-0.336-0.432C180.656,84.328,203.304,84.32,224.144,89.496z
		 M271.04,218.8c0,43.536-35.456,78.96-79.04,78.96s-79.04-35.424-79.04-78.96c0-43.496,35.456-78.88,79.04-78.88
		C235.584,139.92,271.04,175.312,271.04,218.8z M192,352c-56.544,0-107.088-35.76-125.808-89.04
		c-5.016-14.096-7.552-28.952-7.552-44.152c0-15.216,2.568-30.16,7.64-44.424c11.256-31.768,33.904-57.8,63.296-73.312
		c0.056,0.104,0.136,0.208,0.192,0.312c0.936,1.728,2,3.472,3.192,5.208c0.264,0.376,0.544,0.752,0.816,1.128
		c1.112,1.536,2.32,3.064,3.64,4.56c0.256,0.296,0.488,0.584,0.752,0.88c1.536,1.68,3.24,3.304,5.072,4.88
		c0.32,0.28,0.64,0.552,0.976,0.824c-37.344,17.88-63.256,55.888-63.256,99.936c0,61.184,49.816,110.96,111.04,110.96
		s111.04-49.776,111.04-110.96c0-44.04-25.912-82.056-63.256-99.936c0.328-0.272,0.64-0.544,0.96-0.816
		c1.832-1.576,3.528-3.192,5.064-4.872c0.224-0.248,0.432-0.496,0.648-0.752c1.488-1.68,2.864-3.384,4.08-5.112
		c0.08-0.12,0.176-0.232,0.264-0.344c1.24-1.784,2.312-3.576,3.288-5.36c0.096-0.168,0.224-0.344,0.32-0.52
		c28.864,15.296,51.368,40.856,62.832,71.832c0.08,0.28,0.168,0.552,0.264,0.824c5.208,14.448,7.848,29.608,7.848,45.056
		c0,15.216-2.568,30.152-7.648,44.424C298.936,316.328,248.424,352,192,352z"/>
	<path style="fill:#141F38;" d="M207.84,192.192c6.8,0,12.328,5.52,12.328,12.304c0,8.832,7.168,16,16,16c8.84,0,16-7.168,16-16
		c0-24.432-19.88-44.304-44.328-44.304c-8.832,0-16,7.168-16,16C191.84,185.024,199.008,192.192,207.84,192.192z"/>
</g>
<g>
</g>
<g>
</g>
<g>
</g>
<g>
</g>
<g>
</g>
<g>
</g>
<g>
</g>
<g>
</g>
<g>
</g>
<g>
</g>
<g>
</g>
<g>
</g>
<g>
</g>
<g>
</g>
<g>
</g>
</svg>
