<?xml version="1.0" encoding="iso-8859-1"?>
<!-- Generator: Adobe Illustrator 19.0.0, SVG Export Plug-In . SVG Version: 6.00 Build 0)  -->
<svg version="1.1" id="Capa_1" xmlns="http://www.w3.org/2000/svg" xmlns:xlink="http://www.w3.org/1999/xlink" x="0px" y="0px"
	 viewBox="0 0 384 384" style="enable-background:new 0 0 384 384;" xml:space="preserve">
<polygon style="fill:#EBF3FF;" points="341.768,370 341.768,317.8 41.936,317.8 41.936,369.688 "/>
<path style="fill:#B9D5EA;" d="M281.36,55.44l-38.88,37.6c-11.2-9.44-27.28-16.16-50.4-16.16c-42.4,0-60.72,22.32-68.56,42.88
	c-6.72,17.52-5.84,33.76-5.84,33.76v58.56l-12.56,12.56H66.88v-81.52c0-8,0.72-15.84,2.24-23.36C80,61.76,130.96,18,192.08,18
	C226.96,18,258.64,32.32,281.36,55.44z"/>
<path style="fill:#EBF3FF;" d="M317.2,143.12v119.84H66.88l38.24-38.32l12.56-12.56h150.16v-58.56c0,0,0.56-16.24-6.56-33.76
	c-3.68-9.36-9.52-18.96-18.8-26.72l38.88-37.6c16.96,17.28,28.96,39.52,33.6,64.32C316.48,127.28,317.2,135.12,317.2,143.12z"/>
<path style="fill:#38B4C1;" d="M267.84,153.52v58.56H117.68v-58.56c0,0-0.88-16.24,5.84-33.76c7.84-20.56,26.16-42.88,68.56-42.88
	c23.12,0,39.2,6.72,50.4,16.16c9.28,7.76,15.12,17.36,18.8,26.72C268.4,137.28,267.84,153.52,267.84,153.52z"/>
<g>
	<path style="fill:#FFDC7B;" d="M368,172.32c0,27.52-21.2,50.08-48.16,52.32h-2.64v-81.52c0-8-0.72-15.84-2.24-23.36h0.48
		C344.48,119.76,368,143.28,368,172.32z"/>
	<path style="fill:#FFDC7B;" d="M69.12,119.76c-1.52,7.52-2.24,15.36-2.24,23.36v81.52h-3.2C36.96,222.16,16,199.68,16,172.32
		c0-29.04,23.52-52.56,52.56-52.56L69.12,119.76L69.12,119.76z"/>
</g>
<g>
	<path style="fill:#141F38;" d="M41.92,383.688L341.752,384c0,0,0.008,0,0.016,0c4.24,0,8.312-1.68,11.312-4.68
		s4.688-7.072,4.688-11.32v-52.2c0-8.84-7.168-16-16-16H41.936c-8.832,0-16,7.16-16,16v51.896
		C25.936,376.52,33.088,383.68,41.92,383.688z M57.936,331.8h267.832v20.184l-267.832-0.28
		C57.936,351.704,57.936,331.8,57.936,331.8z"/>
	<path style="fill:#141F38;" d="M203.36,104.112c-8.856-0.424-16.288,6.48-16.656,15.312c-0.368,8.832,6.48,16.288,15.312,16.656
		c0.04,0,3.904,0.256,4.88,7.872c1.04,8.072,7.92,13.96,15.848,13.96c0.68,0,1.368-0.04,2.056-0.128
		c8.76-1.128,14.96-9.144,13.832-17.912C235.144,112.616,214.032,104.56,203.36,104.112z"/>
	<path style="fill:#141F38;" d="M357.704,116.52V36.936c0-8.832-7.168-16-16-16s-16,7.168-16,16V95.84
		c-6.736-20.016-17.904-38.304-32.928-53.616c0,0,0,0-0.008,0l0,0C266.008,15,230.256,0,192.08,0
		C128.248,0,72.888,42.712,56.168,102.944C24.264,108.8,0,136.752,0,170.32c0,31.704,21.216,58.392,50.88,66.2v24.44
		c0,0.344,0.08,0.656,0.096,0.992c0.024,0.368,0.064,0.72,0.112,1.08c0.184,1.392,0.48,2.736,1,3.992
		c0.008,0.024,0.008,0.048,0.016,0.064c0,0.008,0.008,0.008,0.008,0.016c0.552,1.32,1.312,2.512,2.184,3.624
		c0.2,0.264,0.408,0.512,0.624,0.76c0.912,1.04,1.912,1.992,3.056,2.76c0.032,0.024,0.072,0.04,0.112,0.056
		c1.112,0.736,2.344,1.28,3.632,1.72c0.32,0.112,0.632,0.208,0.96,0.296c1.352,0.368,2.744,0.632,4.208,0.632h250.32
		c8.832,0,16-7.16,16-16v-24.52C362.48,228.52,384,201.52,384,170.32C384,148.504,373.728,129.08,357.704,116.52z M133.672,194.08
		l-0.016-43.352c0-0.136-0.52-13.368,4.808-27.272c8.36-21.928,25.896-32.584,53.608-32.584c16.84,0,30.336,4.168,40.136,12.432
		c6.128,5.12,10.896,11.952,14.24,20.472c0.704,1.736,1.32,3.456,1.856,5.152c0.088,0.272,0.136,0.528,0.224,0.8
		c3.48,11.504,3.32,21.272,3.312,21.784v42.56H133.672V194.08z M192.08,32c24.064,0,46.896,7.704,65.72,21.96l-17.048,16.488
		c-0.08-0.04-0.168-0.072-0.248-0.112c-3.008-1.68-6.176-3.128-9.432-4.44c-0.792-0.32-1.608-0.616-2.416-0.92
		c-3.152-1.16-6.392-2.192-9.776-3.024c-0.24-0.064-0.472-0.144-0.72-0.2c-3.592-0.848-7.344-1.448-11.176-1.92
		c-0.936-0.112-1.88-0.216-2.832-0.312c-3.92-0.384-7.92-0.648-12.08-0.648c-40.776,0-70.432,18.888-83.496,53.152
		c-7.272,18.96-7.04,36.232-6.904,39.84v51.576l-3.192,3.192h-15.6v-65.52c0-7.08,0.648-13.872,1.968-20.408
		C94.488,69.312,139.584,32,192.08,32z M32,170.32c0-13.752,7.632-25.752,18.88-31.992v2.792v61.24
		C39.52,196.144,32,184.112,32,170.32z M301.2,244.96H105.448l17.296-17.312l1.568-1.568H267.84c8.832,0,16-7.168,16-16v-58.336
		c0-0.072,0-0.232,0-0.312c0.008-0.32,0.008-0.632,0.008-1.16c0-0.368-0.016-0.808-0.024-1.28c-0.008-0.528-0.024-1.008-0.048-1.648
		c-0.024-0.584-0.072-1.256-0.112-1.928c-0.04-0.696-0.08-1.344-0.144-2.128c-0.064-0.776-0.168-1.64-0.256-2.496
		c-0.088-0.824-0.16-1.608-0.272-2.496c-0.12-0.96-0.304-2.008-0.464-3.04c-0.144-0.92-0.264-1.792-0.44-2.768
		c-0.208-1.144-0.488-2.36-0.752-3.568c-0.208-0.96-0.376-1.872-0.624-2.864c-0.344-1.416-0.792-2.896-1.216-4.36
		c-0.248-0.856-0.448-1.672-0.72-2.544c-0.752-2.368-1.616-4.776-2.608-7.224c-1.4-3.568-3.016-6.944-4.784-10.184
		c-0.56-1.032-1.232-1.968-1.832-2.968c-1.28-2.136-2.584-4.248-4.032-6.224c-0.216-0.296-0.384-0.64-0.6-0.936L280.24,76.8
		c9.52,13.032,16.016,28.016,19.04,44.152c1.28,6.304,1.92,13.096,1.92,20.184v81.52L301.2,244.96L301.2,244.96z M333.2,202.184
		V141.12v-2.752c11.208,6.256,18.8,18.232,18.8,31.952C352,183.84,344.424,195.888,333.2,202.184z"/>
</g>
<g>
</g>
<g>
</g>
<g>
</g>
<g>
</g>
<g>
</g>
<g>
</g>
<g>
</g>
<g>
</g>
<g>
</g>
<g>
</g>
<g>
</g>
<g>
</g>
<g>
</g>
<g>
</g>
<g>
</g>
</svg>
