<?xml version="1.0" encoding="iso-8859-1"?>
<!-- Generator: Adobe Illustrator 19.0.0, SVG Export Plug-In . SVG Version: 6.00 Build 0)  -->
<svg version="1.1" id="Capa_1" xmlns="http://www.w3.org/2000/svg" xmlns:xlink="http://www.w3.org/1999/xlink" x="0px" y="0px"
	 viewBox="0 0 384.008 384.008" style="enable-background:new 0 0 384.008 384.008;" xml:space="preserve">
<g>
	<ellipse style="fill:#FFDC7B;" cx="294.716" cy="219.12" rx="35.2" ry="35.288"/>
	<ellipse style="fill:#FFDC7B;" cx="51.204" cy="53.296" rx="35.2" ry="35.288"/>
</g>
<g>
	<ellipse style="fill:#EDC45F;" cx="332.804" cy="334.712" rx="35.2" ry="35.296"/>
	<ellipse style="fill:#EDC45F;" cx="192.004" cy="123.672" rx="35.192" ry="35.288"/>
</g>
<path style="fill:#141F38;" d="M281.604,332.712c0,28.288,22.968,51.296,51.2,51.296s51.2-23.008,51.2-51.296
	c0-24.384-17.088-44.816-39.896-49.992l-12.288-30.352c8.712-9.2,14.104-21.592,14.104-35.248c0-28.28-22.968-51.296-51.2-51.296
	c-4.68,0-9.2,0.688-13.504,1.872l-39.68-33.248c1.056-4.096,1.672-8.36,1.672-12.776c0-28.28-22.968-51.296-51.192-51.296
	c-11.784,0-22.608,4.048-31.272,10.776l-58.376-28.96c0.008-0.304,0.048-0.592,0.048-0.896C102.42,23.016,79.452,0,51.22,0
	C22.972,0.008,0.004,23.024,0.004,51.304s22.968,51.288,51.192,51.288c16.464,0,31.096-7.856,40.464-19.984l51.064,25.336
	c-1.216,4.376-1.92,8.968-1.92,13.736c0,28.28,22.968,51.288,51.192,51.288c12.144,0,23.296-4.28,32.08-11.376l29.68,24.872
	c-6.408,8.568-10.256,19.16-10.256,30.664c0,28.28,22.968,51.288,51.2,51.288c2.992,0,5.904-0.312,8.752-0.808l7.584,18.736
	C293.684,294.56,281.604,312.232,281.604,332.712z M51.196,70.592c-10.584,0-19.192-8.656-19.192-19.288s8.608-19.296,19.192-19.296
	s19.2,8.656,19.2,19.296S61.788,70.592,51.196,70.592z M332.804,352.008c-10.584,0-19.192-8.656-19.192-19.296
	c0-10.632,8.6-19.288,19.184-19.296c0.008,0,0.016,0,0.016,0s0.008,0,0.016,0c10.568,0.024,19.176,8.672,19.176,19.296
	C352.004,343.352,343.388,352.008,332.804,352.008z M192.004,140.968c-10.584,0-19.192-8.656-19.192-19.288
	s8.608-19.296,19.192-19.296c10.584,0,19.192,8.656,19.192,19.296S202.588,140.968,192.004,140.968z M275.508,217.128
	c0-10.632,8.616-19.296,19.2-19.296s19.2,8.656,19.2,19.296c0,10.64-8.616,19.288-19.2,19.288
	C284.132,236.416,275.508,227.76,275.508,217.128z"/>
<g>
</g>
<g>
</g>
<g>
</g>
<g>
</g>
<g>
</g>
<g>
</g>
<g>
</g>
<g>
</g>
<g>
</g>
<g>
</g>
<g>
</g>
<g>
</g>
<g>
</g>
<g>
</g>
<g>
</g>
</svg>
