<?xml version="1.0" encoding="iso-8859-1"?>
<!-- Generator: Adobe Illustrator 19.0.0, SVG Export Plug-In . SVG Version: 6.00 Build 0)  -->
<svg version="1.1" id="Capa_1" xmlns="http://www.w3.org/2000/svg" xmlns:xlink="http://www.w3.org/1999/xlink" x="0px" y="0px"
	 viewBox="0 0 384 384" style="enable-background:new 0 0 384 384;" xml:space="preserve">
<path style="fill:#FFDC7B;" d="M192,370c87.576,0,102.208-130.728,102.208-130.728l0.032,0.016
	C315.264,215.824,328,185.024,328,151.36C328,77.712,267.128,18,192,18S56,77.712,56,151.36c0,33.664,12.736,64.44,33.76,87.928
	l0.032-0.016C89.792,239.272,104.44,370,192,370z"/>
<g>
	<path style="fill:#141F38;" d="M192,0C108.184,0,40,67,40,149.36c0,34.672,12.248,68.16,34.584,94.848
		C78.544,270.416,100.968,384,192,384c91.04,0,113.456-113.576,117.416-139.792C331.752,217.544,344,184.056,344,149.36
		C344,67,275.816,0,192,0z M282.92,225.936c-2.536,2.528-4.192,5.872-4.608,9.536C278.176,236.64,264.16,352,192,352
		c-72.152,0-86.184-115.36-86.312-116.512c-0.408-3.632-2.04-6.952-4.536-9.472C82.344,204.72,72,177.528,72,149.36
		C72,84.648,125.824,32,192,32c66.168,0,120,52.648,120,117.36C312,177.52,301.68,204.672,282.92,225.936z"/>
	<path style="fill:#141F38;" d="M210.544,272.616h-36.352c-8.832,0-16,7.168-16,16s7.168,16,16,16h36.352c8.832,0,16-7.168,16-16
		S219.384,272.616,210.544,272.616z"/>
	<path style="fill:#141F38;" d="M211.136,190.288c-0.488,4.52,0.968,9.024,4,12.4c3.032,3.384,7.36,5.312,11.904,5.312
		c21.056,0,36.416-5.656,45.664-16.816c8.072-9.736,9.32-21.688,7.944-28.976c-1.424-7.56-8.024-13.032-15.72-13.032
		C225.864,149.176,212.656,176.072,211.136,190.288z"/>
	<path style="fill:#141F38;" d="M172.84,190.296c-1.52-14.216-14.728-41.112-53.792-41.112c-7.696,0-14.296,5.472-15.72,13.032
		c-1.376,7.288-0.128,19.248,7.944,28.976C120.528,202.344,135.888,208,156.936,208c4.536,0,8.864-1.928,11.896-5.304
		C171.872,199.32,173.328,194.808,172.84,190.296z"/>
</g>
<g>
</g>
<g>
</g>
<g>
</g>
<g>
</g>
<g>
</g>
<g>
</g>
<g>
</g>
<g>
</g>
<g>
</g>
<g>
</g>
<g>
</g>
<g>
</g>
<g>
</g>
<g>
</g>
<g>
</g>
</svg>
