<?xml version="1.0" encoding="iso-8859-1"?>
<!-- Generator: Adobe Illustrator 19.0.0, SVG Export Plug-In . SVG Version: 6.00 Build 0)  -->
<svg version="1.1" id="Capa_1" xmlns="http://www.w3.org/2000/svg" xmlns:xlink="http://www.w3.org/1999/xlink" x="0px" y="0px"
	 viewBox="0 0 384 384" style="enable-background:new 0 0 384 384;" xml:space="preserve">
<path style="fill:#38B4C1;" d="M192.004,155.6c-99.44,0-92.64-44-92.64-44c0-9.44,1.36-18.56,3.92-27.12h0.08
	C114.804,46,150.164,18,192.004,18s77.12,28,88.64,66.4c2.64,8.64,4,17.76,4,27.2C284.644,111.6,291.444,155.6,192.004,155.6z"/>
<path style="fill:#EDC45F;" d="M220.084,368.4l-20.88-138.08c13.92-0.08,26.64-0.64,38.32-1.6l29.52,103.36
	C267.044,332.08,277.284,361.28,220.084,368.4z"/>
<path style="fill:#EBF3FF;" d="M237.524,228.72c-11.68,0.96-24.4,1.52-38.32,1.6c-2.32,0.08-4.72,0.08-7.2,0.08
	c-16.72,0-31.84-0.56-45.52-1.68C6.884,217.6,16.164,155.6,16.164,155.6c0-51.04,61.92-66.72,87.12-71.12
	c-2.56,8.56-3.92,17.68-3.92,27.12c0,0-6.8,44,92.64,44s92.64-44,92.64-44c0-9.44-1.36-18.56-4-27.2h0.08
	c25.2,4.4,87.12,20.16,87.12,71.2C367.844,155.6,377.124,217.6,237.524,228.72z"/>
<path style="fill:#FFDC7B;" d="M220.084,368.4c-8,1.04-17.28,1.6-28.08,1.6c-88.32,0-75.04-37.92-75.04-37.92l29.52-103.36
	c13.68,1.12,28.8,1.68,45.52,1.68c2.48,0,4.88,0,7.2-0.08L220.084,368.4z"/>
<g>
	<path style="fill:#141F38;" d="M369.908,193.16c14.336-18.04,14.368-34.984,13.928-40.36c-0.416-41.528-33.464-71.896-91.144-84.32
		C276.228,27.144,236.924,0,192.004,0C147.732,0,107.66,27.752,91.308,68.56C33.628,80.976,0.58,111.312,0.164,152.8
		c-0.44,5.376-0.408,22.32,13.928,40.36c19.728,24.832,57.32,40.76,111.76,47.512l-24.184,84.68
		c-2.472,7.64-2.432,20.256,5.616,31.6c12.912,18.2,40.624,27.048,84.72,27.048c11.12,0,21.216-0.584,30.024-1.72
		c0.008,0,0.016,0,0.032,0c0.008,0,0.016,0,0.032-0.008c0.024,0,0.04-0.008,0.064-0.008c0.016,0,0.024-0.008,0.04-0.008
		c28-3.512,46.824-12.72,55.904-27.384c6.696-10.8,6.496-22.496,4.232-29.52l-24.184-84.68
		C312.596,233.912,350.188,217.984,369.908,193.16z M192.004,32c33.976,0,63.448,22.104,73.336,55.072
		c2.192,7.168,3.304,14.744,3.304,22.528c0,1.376-0.248,0.36,0.096,1.688c0.016,0.312,0,2.504-1.76,5.48
		c-0.16,0.272-0.424,0.584-0.616,0.864c-0.552,0.824-1.144,1.656-2,2.56c-0.072,0.072-0.12,0.136-0.2,0.216
		c-0.08,0.088-0.184,0.176-0.272,0.264c-5.224,5.136-19.088,13.976-53.608,16.328c-0.184,0.008-0.36,0.032-0.544,0.04
		c-2.296,0.152-4.728,0.256-7.216,0.352c-0.472,0.016-0.904,0.048-1.384,0.064c-2.92,0.096-5.96,0.144-9.136,0.144
		c-48.448,0-66.088-10.848-72.288-17.312c-4.312-4.496-4.464-8.264-4.528-8.264c0,0,0,0.008-0.008,0.016
		c0.352-1.32,0.184-1.064,0.184-2.432c0-3.76,0.28-7.48,0.792-11.144c0.16-1.152,0.488-2.256,0.696-3.392
		c0.464-2.496,0.928-4.992,1.632-7.416c0.072-0.208,0.152-0.408,0.216-0.616C128.332,54.632,158.476,32,192.004,32z
		 M133.772,338.928c-1.408-1.728-1.576-3.152-1.512-3.936c0.032-0.08,0.008-0.04,0-0.064c0.008-0.064,0.016-0.12,0.024-0.176
		c0.016-0.064,0.04-0.16,0.072-0.28l25.968-90.92c1.144,0.064,2.368,0.088,3.528,0.144c2.592,0.12,5.2,0.24,7.88,0.328
		c1.664,0.056,3.36,0.096,5.056,0.136c2.704,0.064,5.44,0.12,8.224,0.16c0.824,0.008,1.608,0.04,2.44,0.048l8.96,59.256
		l7.288,48.208c-3.104,0.112-6.336,0.168-9.696,0.168C147.82,352,136.26,342,133.772,338.928z M250.892,338.016
		c-1,1.616-4.832,6.136-17.472,9.6l-11.352-75.08l-4.328-28.616c0.448-0.016,0.88-0.04,1.328-0.056
		c0.456-0.016,0.896-0.04,1.352-0.064c1.768-0.072,3.536-0.144,5.264-0.24l25.968,90.92c0.088,0.304,0.176,0.6,0.28,0.904
		C251.948,335.376,251.588,336.904,250.892,338.016z M343.9,174.416c-11.568,13.592-39.64,30.936-107.648,36.352
		c-0.008,0-0.024,0-0.04,0c-11.544,0.952-24.032,1.472-37.544,1.552c-2.056,0.072-4.144,0.072-6.416,0.064
		c-2.496,0-4.92-0.032-7.368-0.056c-1.472-0.016-2.992-0.016-4.44-0.04c-3.496-0.064-6.912-0.16-10.272-0.272
		c-0.368-0.016-0.752-0.016-1.112-0.032c-3.272-0.12-6.44-0.272-9.56-0.448c-0.464-0.024-0.952-0.04-1.416-0.064
		c-2.16-0.12-4.2-0.288-6.272-0.432c-1.344-0.096-2.744-0.176-4.056-0.28c-68.008-5.416-96.08-22.76-107.648-36.352
		c-8.592-10.096-8.096-18.456-8.12-18.456c0,0,0,0-0.008,0c0.12-0.784,0.176-1.576,0.176-2.368c0-28.112,27.784-42.672,51.36-49.976
		c-0.096,1.76-0.144,3.528-0.16,5.296c-0.04,0.608-0.072,1.352-0.072,2.2c-0.008,5.128,1.072,14.4,7.568,24.168
		c1.08,1.624,2.32,3.272,3.72,4.904c16.736,19.528,49.52,29.424,97.432,29.424s80.696-9.896,97.424-29.4
		c1.408-1.64,2.64-3.28,3.72-4.904c6.496-9.768,7.576-19.04,7.568-24.168c0-0.856-0.032-1.592-0.072-2.2
		c-0.016-1.8-0.064-3.592-0.168-5.376c23.576,7.304,51.368,21.896,51.368,50.056c0,0.792,0,1.096,0.12,1.872
		C351.988,155.832,352.564,164.24,343.9,174.416z"/>
	<path style="fill:#141F38;" d="M200.516,82.584c6,0,10.872,5,10.872,11.152c0,8.832,7.168,16,16,16s16-7.168,16-16
		c0-23.792-19.232-43.152-42.872-43.152c-8.832,0-16,7.168-16,16C184.516,75.424,191.684,82.584,200.516,82.584z"/>
</g>
<g>
</g>
<g>
</g>
<g>
</g>
<g>
</g>
<g>
</g>
<g>
</g>
<g>
</g>
<g>
</g>
<g>
</g>
<g>
</g>
<g>
</g>
<g>
</g>
<g>
</g>
<g>
</g>
<g>
</g>
</svg>
